<?xml version="1.0" encoding="utf-8" standalone="no"?>
<!DOCTYPE svg PUBLIC "-//W3C//DTD SVG 1.1//EN"
  "http://www.w3.org/Graphics/SVG/1.1/DTD/svg11.dtd">
<svg height="345.6pt" version="1.1" viewBox="0 0 460.8 345.6" width="460.8pt" xmlns="http://www.w3.org/2000/svg" xmlns:xlink="http://www.w3.org/1999/xlink">
 <metadata>
  <rdf:RDF xmlns:cc="http://creativecommons.org/ns#" xmlns:dc="http://purl.org/dc/elements/1.1/" xmlns:rdf="http://www.w3.org/1999/02/22-rdf-syntax-ns#">
   <cc:Work>
    <dc:type rdf:resource="http://purl.org/dc/dcmitype/StillImage"/>
    <dc:date>2023-04-25T10:38:28.796562</dc:date>
    <dc:format>image/svg+xml</dc:format>
    <dc:creator>
     <cc:Agent>
      <dc:title>Matplotlib v3.4.3, https://matplotlib.org/</dc:title>
     </cc:Agent>
    </dc:creator>
   </cc:Work>
  </rdf:RDF>
 </metadata>
 <defs>
  <style type="text/css">*{stroke-linecap:butt;stroke-linejoin:round;}</style>
 </defs>
 <g id="figure_1">
  <g id="patch_1">
   <path d="M 0 345.6 
L 460.8 345.6 
L 460.8 0 
L 0 0 
z
" style="fill:#ffffff;"/>
  </g>
  <g id="axes_1">
   <g id="patch_2">
    <path d="M 57.6 307.584 
L 414.72 307.584 
L 414.72 41.472 
L 57.6 41.472 
z
" style="fill:#ffffff;"/>
   </g>
   <g id="matplotlib.axis_1">
    <g id="xtick_1">
     <g id="line2d_1">
      <path clip-path="url(#p03dbcb4f19)" d="M 73.832727 307.584 
L 73.832727 41.472 
" style="fill:none;stroke:#b0b0b0;stroke-linecap:square;stroke-width:0.8;"/>
     </g>
     <g id="line2d_2">
      <defs>
       <path d="M 0 0 
L 0 3.5 
" id="m6eae222d2e" style="stroke:#000000;stroke-width:0.8;"/>
      </defs>
      <g>
       <use style="stroke:#000000;stroke-width:0.8;" x="73.832727" xlink:href="#m6eae222d2e" y="307.584"/>
      </g>
     </g>
     <g id="text_1">
      <!-- 0 -->
      <g transform="translate(70.651477 322.182437)scale(0.1 -0.1)">
       <defs>
        <path d="M 2034 4250 
Q 1547 4250 1301 3770 
Q 1056 3291 1056 2328 
Q 1056 1369 1301 889 
Q 1547 409 2034 409 
Q 2525 409 2770 889 
Q 3016 1369 3016 2328 
Q 3016 3291 2770 3770 
Q 2525 4250 2034 4250 
z
M 2034 4750 
Q 2819 4750 3233 4129 
Q 3647 3509 3647 2328 
Q 3647 1150 3233 529 
Q 2819 -91 2034 -91 
Q 1250 -91 836 529 
Q 422 1150 422 2328 
Q 422 3509 836 4129 
Q 1250 4750 2034 4750 
z
" id="DejaVuSans-30" transform="scale(0.015625)"/>
       </defs>
       <use xlink:href="#DejaVuSans-30"/>
      </g>
     </g>
    </g>
    <g id="xtick_2">
     <g id="line2d_3">
      <path clip-path="url(#p03dbcb4f19)" d="M 139.419504 307.584 
L 139.419504 41.472 
" style="fill:none;stroke:#b0b0b0;stroke-linecap:square;stroke-width:0.8;"/>
     </g>
     <g id="line2d_4">
      <g>
       <use style="stroke:#000000;stroke-width:0.8;" x="139.419504" xlink:href="#m6eae222d2e" y="307.584"/>
      </g>
     </g>
     <g id="text_2">
      <!-- 20 -->
      <g transform="translate(133.057004 322.182437)scale(0.1 -0.1)">
       <defs>
        <path d="M 1228 531 
L 3431 531 
L 3431 0 
L 469 0 
L 469 531 
Q 828 903 1448 1529 
Q 2069 2156 2228 2338 
Q 2531 2678 2651 2914 
Q 2772 3150 2772 3378 
Q 2772 3750 2511 3984 
Q 2250 4219 1831 4219 
Q 1534 4219 1204 4116 
Q 875 4013 500 3803 
L 500 4441 
Q 881 4594 1212 4672 
Q 1544 4750 1819 4750 
Q 2544 4750 2975 4387 
Q 3406 4025 3406 3419 
Q 3406 3131 3298 2873 
Q 3191 2616 2906 2266 
Q 2828 2175 2409 1742 
Q 1991 1309 1228 531 
z
" id="DejaVuSans-32" transform="scale(0.015625)"/>
       </defs>
       <use xlink:href="#DejaVuSans-32"/>
       <use x="63.623047" xlink:href="#DejaVuSans-30"/>
      </g>
     </g>
    </g>
    <g id="xtick_3">
     <g id="line2d_5">
      <path clip-path="url(#p03dbcb4f19)" d="M 205.006281 307.584 
L 205.006281 41.472 
" style="fill:none;stroke:#b0b0b0;stroke-linecap:square;stroke-width:0.8;"/>
     </g>
     <g id="line2d_6">
      <g>
       <use style="stroke:#000000;stroke-width:0.8;" x="205.006281" xlink:href="#m6eae222d2e" y="307.584"/>
      </g>
     </g>
     <g id="text_3">
      <!-- 40 -->
      <g transform="translate(198.643781 322.182437)scale(0.1 -0.1)">
       <defs>
        <path d="M 2419 4116 
L 825 1625 
L 2419 1625 
L 2419 4116 
z
M 2253 4666 
L 3047 4666 
L 3047 1625 
L 3713 1625 
L 3713 1100 
L 3047 1100 
L 3047 0 
L 2419 0 
L 2419 1100 
L 313 1100 
L 313 1709 
L 2253 4666 
z
" id="DejaVuSans-34" transform="scale(0.015625)"/>
       </defs>
       <use xlink:href="#DejaVuSans-34"/>
       <use x="63.623047" xlink:href="#DejaVuSans-30"/>
      </g>
     </g>
    </g>
    <g id="xtick_4">
     <g id="line2d_7">
      <path clip-path="url(#p03dbcb4f19)" d="M 270.593058 307.584 
L 270.593058 41.472 
" style="fill:none;stroke:#b0b0b0;stroke-linecap:square;stroke-width:0.8;"/>
     </g>
     <g id="line2d_8">
      <g>
       <use style="stroke:#000000;stroke-width:0.8;" x="270.593058" xlink:href="#m6eae222d2e" y="307.584"/>
      </g>
     </g>
     <g id="text_4">
      <!-- 60 -->
      <g transform="translate(264.230558 322.182437)scale(0.1 -0.1)">
       <defs>
        <path d="M 2113 2584 
Q 1688 2584 1439 2293 
Q 1191 2003 1191 1497 
Q 1191 994 1439 701 
Q 1688 409 2113 409 
Q 2538 409 2786 701 
Q 3034 994 3034 1497 
Q 3034 2003 2786 2293 
Q 2538 2584 2113 2584 
z
M 3366 4563 
L 3366 3988 
Q 3128 4100 2886 4159 
Q 2644 4219 2406 4219 
Q 1781 4219 1451 3797 
Q 1122 3375 1075 2522 
Q 1259 2794 1537 2939 
Q 1816 3084 2150 3084 
Q 2853 3084 3261 2657 
Q 3669 2231 3669 1497 
Q 3669 778 3244 343 
Q 2819 -91 2113 -91 
Q 1303 -91 875 529 
Q 447 1150 447 2328 
Q 447 3434 972 4092 
Q 1497 4750 2381 4750 
Q 2619 4750 2861 4703 
Q 3103 4656 3366 4563 
z
" id="DejaVuSans-36" transform="scale(0.015625)"/>
       </defs>
       <use xlink:href="#DejaVuSans-36"/>
       <use x="63.623047" xlink:href="#DejaVuSans-30"/>
      </g>
     </g>
    </g>
    <g id="xtick_5">
     <g id="line2d_9">
      <path clip-path="url(#p03dbcb4f19)" d="M 336.179835 307.584 
L 336.179835 41.472 
" style="fill:none;stroke:#b0b0b0;stroke-linecap:square;stroke-width:0.8;"/>
     </g>
     <g id="line2d_10">
      <g>
       <use style="stroke:#000000;stroke-width:0.8;" x="336.179835" xlink:href="#m6eae222d2e" y="307.584"/>
      </g>
     </g>
     <g id="text_5">
      <!-- 80 -->
      <g transform="translate(329.817335 322.182437)scale(0.1 -0.1)">
       <defs>
        <path d="M 2034 2216 
Q 1584 2216 1326 1975 
Q 1069 1734 1069 1313 
Q 1069 891 1326 650 
Q 1584 409 2034 409 
Q 2484 409 2743 651 
Q 3003 894 3003 1313 
Q 3003 1734 2745 1975 
Q 2488 2216 2034 2216 
z
M 1403 2484 
Q 997 2584 770 2862 
Q 544 3141 544 3541 
Q 544 4100 942 4425 
Q 1341 4750 2034 4750 
Q 2731 4750 3128 4425 
Q 3525 4100 3525 3541 
Q 3525 3141 3298 2862 
Q 3072 2584 2669 2484 
Q 3125 2378 3379 2068 
Q 3634 1759 3634 1313 
Q 3634 634 3220 271 
Q 2806 -91 2034 -91 
Q 1263 -91 848 271 
Q 434 634 434 1313 
Q 434 1759 690 2068 
Q 947 2378 1403 2484 
z
M 1172 3481 
Q 1172 3119 1398 2916 
Q 1625 2713 2034 2713 
Q 2441 2713 2670 2916 
Q 2900 3119 2900 3481 
Q 2900 3844 2670 4047 
Q 2441 4250 2034 4250 
Q 1625 4250 1398 4047 
Q 1172 3844 1172 3481 
z
" id="DejaVuSans-38" transform="scale(0.015625)"/>
       </defs>
       <use xlink:href="#DejaVuSans-38"/>
       <use x="63.623047" xlink:href="#DejaVuSans-30"/>
      </g>
     </g>
    </g>
    <g id="xtick_6">
     <g id="line2d_11">
      <path clip-path="url(#p03dbcb4f19)" d="M 401.766612 307.584 
L 401.766612 41.472 
" style="fill:none;stroke:#b0b0b0;stroke-linecap:square;stroke-width:0.8;"/>
     </g>
     <g id="line2d_12">
      <g>
       <use style="stroke:#000000;stroke-width:0.8;" x="401.766612" xlink:href="#m6eae222d2e" y="307.584"/>
      </g>
     </g>
     <g id="text_6">
      <!-- 100 -->
      <g transform="translate(392.222862 322.182437)scale(0.1 -0.1)">
       <defs>
        <path d="M 794 531 
L 1825 531 
L 1825 4091 
L 703 3866 
L 703 4441 
L 1819 4666 
L 2450 4666 
L 2450 531 
L 3481 531 
L 3481 0 
L 794 0 
L 794 531 
z
" id="DejaVuSans-31" transform="scale(0.015625)"/>
       </defs>
       <use xlink:href="#DejaVuSans-31"/>
       <use x="63.623047" xlink:href="#DejaVuSans-30"/>
       <use x="127.246094" xlink:href="#DejaVuSans-30"/>
      </g>
     </g>
    </g>
    <g id="text_7">
     <!-- Generations -->
     <g transform="translate(205.662344 335.860562)scale(0.1 -0.1)">
      <defs>
       <path d="M 3809 666 
L 3809 1919 
L 2778 1919 
L 2778 2438 
L 4434 2438 
L 4434 434 
Q 4069 175 3628 42 
Q 3188 -91 2688 -91 
Q 1594 -91 976 548 
Q 359 1188 359 2328 
Q 359 3472 976 4111 
Q 1594 4750 2688 4750 
Q 3144 4750 3555 4637 
Q 3966 4525 4313 4306 
L 4313 3634 
Q 3963 3931 3569 4081 
Q 3175 4231 2741 4231 
Q 1884 4231 1454 3753 
Q 1025 3275 1025 2328 
Q 1025 1384 1454 906 
Q 1884 428 2741 428 
Q 3075 428 3337 486 
Q 3600 544 3809 666 
z
" id="DejaVuSans-47" transform="scale(0.015625)"/>
       <path d="M 3597 1894 
L 3597 1613 
L 953 1613 
Q 991 1019 1311 708 
Q 1631 397 2203 397 
Q 2534 397 2845 478 
Q 3156 559 3463 722 
L 3463 178 
Q 3153 47 2828 -22 
Q 2503 -91 2169 -91 
Q 1331 -91 842 396 
Q 353 884 353 1716 
Q 353 2575 817 3079 
Q 1281 3584 2069 3584 
Q 2775 3584 3186 3129 
Q 3597 2675 3597 1894 
z
M 3022 2063 
Q 3016 2534 2758 2815 
Q 2500 3097 2075 3097 
Q 1594 3097 1305 2825 
Q 1016 2553 972 2059 
L 3022 2063 
z
" id="DejaVuSans-65" transform="scale(0.015625)"/>
       <path d="M 3513 2113 
L 3513 0 
L 2938 0 
L 2938 2094 
Q 2938 2591 2744 2837 
Q 2550 3084 2163 3084 
Q 1697 3084 1428 2787 
Q 1159 2491 1159 1978 
L 1159 0 
L 581 0 
L 581 3500 
L 1159 3500 
L 1159 2956 
Q 1366 3272 1645 3428 
Q 1925 3584 2291 3584 
Q 2894 3584 3203 3211 
Q 3513 2838 3513 2113 
z
" id="DejaVuSans-6e" transform="scale(0.015625)"/>
       <path d="M 2631 2963 
Q 2534 3019 2420 3045 
Q 2306 3072 2169 3072 
Q 1681 3072 1420 2755 
Q 1159 2438 1159 1844 
L 1159 0 
L 581 0 
L 581 3500 
L 1159 3500 
L 1159 2956 
Q 1341 3275 1631 3429 
Q 1922 3584 2338 3584 
Q 2397 3584 2469 3576 
Q 2541 3569 2628 3553 
L 2631 2963 
z
" id="DejaVuSans-72" transform="scale(0.015625)"/>
       <path d="M 2194 1759 
Q 1497 1759 1228 1600 
Q 959 1441 959 1056 
Q 959 750 1161 570 
Q 1363 391 1709 391 
Q 2188 391 2477 730 
Q 2766 1069 2766 1631 
L 2766 1759 
L 2194 1759 
z
M 3341 1997 
L 3341 0 
L 2766 0 
L 2766 531 
Q 2569 213 2275 61 
Q 1981 -91 1556 -91 
Q 1019 -91 701 211 
Q 384 513 384 1019 
Q 384 1609 779 1909 
Q 1175 2209 1959 2209 
L 2766 2209 
L 2766 2266 
Q 2766 2663 2505 2880 
Q 2244 3097 1772 3097 
Q 1472 3097 1187 3025 
Q 903 2953 641 2809 
L 641 3341 
Q 956 3463 1253 3523 
Q 1550 3584 1831 3584 
Q 2591 3584 2966 3190 
Q 3341 2797 3341 1997 
z
" id="DejaVuSans-61" transform="scale(0.015625)"/>
       <path d="M 1172 4494 
L 1172 3500 
L 2356 3500 
L 2356 3053 
L 1172 3053 
L 1172 1153 
Q 1172 725 1289 603 
Q 1406 481 1766 481 
L 2356 481 
L 2356 0 
L 1766 0 
Q 1100 0 847 248 
Q 594 497 594 1153 
L 594 3053 
L 172 3053 
L 172 3500 
L 594 3500 
L 594 4494 
L 1172 4494 
z
" id="DejaVuSans-74" transform="scale(0.015625)"/>
       <path d="M 603 3500 
L 1178 3500 
L 1178 0 
L 603 0 
L 603 3500 
z
M 603 4863 
L 1178 4863 
L 1178 4134 
L 603 4134 
L 603 4863 
z
" id="DejaVuSans-69" transform="scale(0.015625)"/>
       <path d="M 1959 3097 
Q 1497 3097 1228 2736 
Q 959 2375 959 1747 
Q 959 1119 1226 758 
Q 1494 397 1959 397 
Q 2419 397 2687 759 
Q 2956 1122 2956 1747 
Q 2956 2369 2687 2733 
Q 2419 3097 1959 3097 
z
M 1959 3584 
Q 2709 3584 3137 3096 
Q 3566 2609 3566 1747 
Q 3566 888 3137 398 
Q 2709 -91 1959 -91 
Q 1206 -91 779 398 
Q 353 888 353 1747 
Q 353 2609 779 3096 
Q 1206 3584 1959 3584 
z
" id="DejaVuSans-6f" transform="scale(0.015625)"/>
       <path d="M 2834 3397 
L 2834 2853 
Q 2591 2978 2328 3040 
Q 2066 3103 1784 3103 
Q 1356 3103 1142 2972 
Q 928 2841 928 2578 
Q 928 2378 1081 2264 
Q 1234 2150 1697 2047 
L 1894 2003 
Q 2506 1872 2764 1633 
Q 3022 1394 3022 966 
Q 3022 478 2636 193 
Q 2250 -91 1575 -91 
Q 1294 -91 989 -36 
Q 684 19 347 128 
L 347 722 
Q 666 556 975 473 
Q 1284 391 1588 391 
Q 1994 391 2212 530 
Q 2431 669 2431 922 
Q 2431 1156 2273 1281 
Q 2116 1406 1581 1522 
L 1381 1569 
Q 847 1681 609 1914 
Q 372 2147 372 2553 
Q 372 3047 722 3315 
Q 1072 3584 1716 3584 
Q 2034 3584 2315 3537 
Q 2597 3491 2834 3397 
z
" id="DejaVuSans-73" transform="scale(0.015625)"/>
      </defs>
      <use xlink:href="#DejaVuSans-47"/>
      <use x="77.490234" xlink:href="#DejaVuSans-65"/>
      <use x="139.013672" xlink:href="#DejaVuSans-6e"/>
      <use x="202.392578" xlink:href="#DejaVuSans-65"/>
      <use x="263.916016" xlink:href="#DejaVuSans-72"/>
      <use x="305.029297" xlink:href="#DejaVuSans-61"/>
      <use x="366.308594" xlink:href="#DejaVuSans-74"/>
      <use x="405.517578" xlink:href="#DejaVuSans-69"/>
      <use x="433.300781" xlink:href="#DejaVuSans-6f"/>
      <use x="494.482422" xlink:href="#DejaVuSans-6e"/>
      <use x="557.861328" xlink:href="#DejaVuSans-73"/>
     </g>
    </g>
   </g>
   <g id="matplotlib.axis_2">
    <g id="ytick_1">
     <g id="line2d_13">
      <path clip-path="url(#p03dbcb4f19)" d="M 57.6 294.599703 
L 414.72 294.599703 
" style="fill:none;stroke:#b0b0b0;stroke-linecap:square;stroke-width:0.8;"/>
     </g>
     <g id="line2d_14">
      <defs>
       <path d="M 0 0 
L -3.5 0 
" id="m430e03c2ab" style="stroke:#000000;stroke-width:0.8;"/>
      </defs>
      <g>
       <use style="stroke:#000000;stroke-width:0.8;" x="57.6" xlink:href="#m430e03c2ab" y="294.599703"/>
      </g>
     </g>
     <g id="text_8">
      <!-- −50 -->
      <g transform="translate(29.495313 298.398922)scale(0.1 -0.1)">
       <defs>
        <path d="M 678 2272 
L 4684 2272 
L 4684 1741 
L 678 1741 
L 678 2272 
z
" id="DejaVuSans-2212" transform="scale(0.015625)"/>
        <path d="M 691 4666 
L 3169 4666 
L 3169 4134 
L 1269 4134 
L 1269 2991 
Q 1406 3038 1543 3061 
Q 1681 3084 1819 3084 
Q 2600 3084 3056 2656 
Q 3513 2228 3513 1497 
Q 3513 744 3044 326 
Q 2575 -91 1722 -91 
Q 1428 -91 1123 -41 
Q 819 9 494 109 
L 494 744 
Q 775 591 1075 516 
Q 1375 441 1709 441 
Q 2250 441 2565 725 
Q 2881 1009 2881 1497 
Q 2881 1984 2565 2268 
Q 2250 2553 1709 2553 
Q 1456 2553 1204 2497 
Q 953 2441 691 2322 
L 691 4666 
z
" id="DejaVuSans-35" transform="scale(0.015625)"/>
       </defs>
       <use xlink:href="#DejaVuSans-2212"/>
       <use x="83.789062" xlink:href="#DejaVuSans-35"/>
       <use x="147.412109" xlink:href="#DejaVuSans-30"/>
      </g>
     </g>
    </g>
    <g id="ytick_2">
     <g id="line2d_15">
      <path clip-path="url(#p03dbcb4f19)" d="M 57.6 257.255431 
L 414.72 257.255431 
" style="fill:none;stroke:#b0b0b0;stroke-linecap:square;stroke-width:0.8;"/>
     </g>
     <g id="line2d_16">
      <g>
       <use style="stroke:#000000;stroke-width:0.8;" x="57.6" xlink:href="#m430e03c2ab" y="257.255431"/>
      </g>
     </g>
     <g id="text_9">
      <!-- −40 -->
      <g transform="translate(29.495313 261.05465)scale(0.1 -0.1)">
       <use xlink:href="#DejaVuSans-2212"/>
       <use x="83.789062" xlink:href="#DejaVuSans-34"/>
       <use x="147.412109" xlink:href="#DejaVuSans-30"/>
      </g>
     </g>
    </g>
    <g id="ytick_3">
     <g id="line2d_17">
      <path clip-path="url(#p03dbcb4f19)" d="M 57.6 219.911159 
L 414.72 219.911159 
" style="fill:none;stroke:#b0b0b0;stroke-linecap:square;stroke-width:0.8;"/>
     </g>
     <g id="line2d_18">
      <g>
       <use style="stroke:#000000;stroke-width:0.8;" x="57.6" xlink:href="#m430e03c2ab" y="219.911159"/>
      </g>
     </g>
     <g id="text_10">
      <!-- −30 -->
      <g transform="translate(29.495313 223.710377)scale(0.1 -0.1)">
       <defs>
        <path d="M 2597 2516 
Q 3050 2419 3304 2112 
Q 3559 1806 3559 1356 
Q 3559 666 3084 287 
Q 2609 -91 1734 -91 
Q 1441 -91 1130 -33 
Q 819 25 488 141 
L 488 750 
Q 750 597 1062 519 
Q 1375 441 1716 441 
Q 2309 441 2620 675 
Q 2931 909 2931 1356 
Q 2931 1769 2642 2001 
Q 2353 2234 1838 2234 
L 1294 2234 
L 1294 2753 
L 1863 2753 
Q 2328 2753 2575 2939 
Q 2822 3125 2822 3475 
Q 2822 3834 2567 4026 
Q 2313 4219 1838 4219 
Q 1578 4219 1281 4162 
Q 984 4106 628 3988 
L 628 4550 
Q 988 4650 1302 4700 
Q 1616 4750 1894 4750 
Q 2613 4750 3031 4423 
Q 3450 4097 3450 3541 
Q 3450 3153 3228 2886 
Q 3006 2619 2597 2516 
z
" id="DejaVuSans-33" transform="scale(0.015625)"/>
       </defs>
       <use xlink:href="#DejaVuSans-2212"/>
       <use x="83.789062" xlink:href="#DejaVuSans-33"/>
       <use x="147.412109" xlink:href="#DejaVuSans-30"/>
      </g>
     </g>
    </g>
    <g id="ytick_4">
     <g id="line2d_19">
      <path clip-path="url(#p03dbcb4f19)" d="M 57.6 182.566887 
L 414.72 182.566887 
" style="fill:none;stroke:#b0b0b0;stroke-linecap:square;stroke-width:0.8;"/>
     </g>
     <g id="line2d_20">
      <g>
       <use style="stroke:#000000;stroke-width:0.8;" x="57.6" xlink:href="#m430e03c2ab" y="182.566887"/>
      </g>
     </g>
     <g id="text_11">
      <!-- −20 -->
      <g transform="translate(29.495313 186.366105)scale(0.1 -0.1)">
       <use xlink:href="#DejaVuSans-2212"/>
       <use x="83.789062" xlink:href="#DejaVuSans-32"/>
       <use x="147.412109" xlink:href="#DejaVuSans-30"/>
      </g>
     </g>
    </g>
    <g id="ytick_5">
     <g id="line2d_21">
      <path clip-path="url(#p03dbcb4f19)" d="M 57.6 145.222615 
L 414.72 145.222615 
" style="fill:none;stroke:#b0b0b0;stroke-linecap:square;stroke-width:0.8;"/>
     </g>
     <g id="line2d_22">
      <g>
       <use style="stroke:#000000;stroke-width:0.8;" x="57.6" xlink:href="#m430e03c2ab" y="145.222615"/>
      </g>
     </g>
     <g id="text_12">
      <!-- −10 -->
      <g transform="translate(29.495313 149.021833)scale(0.1 -0.1)">
       <use xlink:href="#DejaVuSans-2212"/>
       <use x="83.789062" xlink:href="#DejaVuSans-31"/>
       <use x="147.412109" xlink:href="#DejaVuSans-30"/>
      </g>
     </g>
    </g>
    <g id="ytick_6">
     <g id="line2d_23">
      <path clip-path="url(#p03dbcb4f19)" d="M 57.6 107.878343 
L 414.72 107.878343 
" style="fill:none;stroke:#b0b0b0;stroke-linecap:square;stroke-width:0.8;"/>
     </g>
     <g id="line2d_24">
      <g>
       <use style="stroke:#000000;stroke-width:0.8;" x="57.6" xlink:href="#m430e03c2ab" y="107.878343"/>
      </g>
     </g>
     <g id="text_13">
      <!-- 0 -->
      <g transform="translate(44.2375 111.677561)scale(0.1 -0.1)">
       <use xlink:href="#DejaVuSans-30"/>
      </g>
     </g>
    </g>
    <g id="ytick_7">
     <g id="line2d_25">
      <path clip-path="url(#p03dbcb4f19)" d="M 57.6 70.534071 
L 414.72 70.534071 
" style="fill:none;stroke:#b0b0b0;stroke-linecap:square;stroke-width:0.8;"/>
     </g>
     <g id="line2d_26">
      <g>
       <use style="stroke:#000000;stroke-width:0.8;" x="57.6" xlink:href="#m430e03c2ab" y="70.534071"/>
      </g>
     </g>
     <g id="text_14">
      <!-- 10 -->
      <g transform="translate(37.875 74.333289)scale(0.1 -0.1)">
       <use xlink:href="#DejaVuSans-31"/>
       <use x="63.623047" xlink:href="#DejaVuSans-30"/>
      </g>
     </g>
    </g>
    <g id="text_15">
     <!-- Fitness -->
     <g transform="translate(23.415625 191.845187)rotate(-90)scale(0.1 -0.1)">
      <defs>
       <path d="M 628 4666 
L 3309 4666 
L 3309 4134 
L 1259 4134 
L 1259 2759 
L 3109 2759 
L 3109 2228 
L 1259 2228 
L 1259 0 
L 628 0 
L 628 4666 
z
" id="DejaVuSans-46" transform="scale(0.015625)"/>
      </defs>
      <use xlink:href="#DejaVuSans-46"/>
      <use x="50.269531" xlink:href="#DejaVuSans-69"/>
      <use x="78.052734" xlink:href="#DejaVuSans-74"/>
      <use x="117.261719" xlink:href="#DejaVuSans-6e"/>
      <use x="180.640625" xlink:href="#DejaVuSans-65"/>
      <use x="242.164062" xlink:href="#DejaVuSans-73"/>
      <use x="294.263672" xlink:href="#DejaVuSans-73"/>
     </g>
    </g>
   </g>
   <g id="line2d_27">
    <path clip-path="url(#p03dbcb4f19)" d="M 73.832727 111.843437 
L 77.112066 108.102504 
L 80.391405 107.853628 
L 83.670744 107.257699 
L 86.950083 107.424425 
L 90.229421 116.55955 
L 93.50876 107.284744 
L 96.788099 129.004888 
L 100.067438 107.389291 
L 103.346777 106.753319 
L 106.626116 108.040804 
L 109.905455 108.192384 
L 113.184793 108.450819 
L 116.464132 108.6619 
L 119.743471 108.440174 
L 123.02281 109.563944 
L 126.302149 107.278381 
L 129.581488 109.989757 
L 132.860826 107.20807 
L 136.140165 107.520362 
L 139.419504 112.438707 
L 142.698843 107.065331 
L 145.978182 107.50981 
L 149.257521 106.969657 
L 152.53686 117.656084 
L 155.816198 109.284983 
L 159.095537 107.310249 
L 162.374876 107.152145 
L 165.654215 111.579591 
L 168.933554 106.988332 
L 172.212893 110.329181 
L 175.492231 107.824373 
L 178.77157 107.72125 
L 182.050909 107.88317 
L 185.330248 106.489469 
L 188.609587 113.95757 
L 191.888926 107.811091 
L 195.168264 123.079941 
L 198.447603 107.518042 
L 201.726942 106.445359 
L 205.006281 106.429665 
L 208.28562 106.673354 
L 211.564959 106.141679 
L 214.844298 106.888257 
L 218.123636 114.928108 
L 221.402975 107.519228 
L 224.682314 109.082461 
L 227.961653 109.220136 
L 231.240992 109.10227 
L 234.520331 106.74687 
L 237.799669 109.210552 
L 241.079008 114.248322 
L 244.358347 121.384186 
L 247.637686 107.924516 
L 250.917025 109.988514 
L 254.196364 106.626796 
L 257.475702 121.885662 
L 260.755041 107.387399 
L 264.03438 108.118426 
L 267.313719 106.795541 
L 270.593058 113.618866 
L 273.872397 106.797425 
L 277.151736 107.590056 
L 280.431074 107.540864 
L 283.710413 109.105601 
L 286.989752 110.798535 
L 290.269091 107.955524 
L 293.54843 107.023326 
L 296.827769 107.347712 
L 300.107107 109.469561 
L 303.386446 107.423533 
L 306.665785 112.849424 
L 309.945124 107.221511 
L 313.224463 108.600714 
L 316.503802 105.926718 
L 319.78314 119.486385 
L 323.062479 109.299051 
L 326.341818 107.572025 
L 329.621157 174.528 
L 332.900496 107.419919 
L 336.179835 107.174376 
L 339.459174 106.566781 
L 342.738512 106.998116 
L 346.017851 106.25971 
L 349.29719 112.517153 
L 352.576529 106.616971 
L 355.855868 106.832761 
L 359.135207 108.316376 
L 362.414545 106.856675 
L 365.693884 107.944513 
L 368.973223 107.004756 
L 372.252562 107.973273 
L 375.531901 109.447189 
L 378.81124 107.462379 
L 382.090579 107.512104 
L 385.369917 111.201157 
L 388.649256 106.767778 
L 391.928595 106.656196 
L 395.207934 107.793882 
L 398.487273 110.398827 
" style="fill:none;stroke:#0000ff;stroke-linecap:square;stroke-width:1.5;"/>
   </g>
   <g id="line2d_28">
    <path clip-path="url(#p03dbcb4f19)" d="M 73.832727 115.833215 
L 77.112066 110.683315 
L 80.391405 111.047324 
L 83.670744 110.372983 
L 86.950083 110.683391 
L 90.229421 134.436886 
L 93.50876 110.466765 
L 96.788099 169.937302 
L 100.067438 110.244263 
L 103.346777 109.228228 
L 106.626116 112.157738 
L 109.905455 112.629988 
L 113.184793 113.550522 
L 116.464132 114.1707 
L 119.743471 113.577502 
L 123.02281 116.214242 
L 126.302149 110.54546 
L 129.581488 117.243075 
L 132.860826 110.423142 
L 136.140165 111.243873 
L 139.419504 124.231519 
L 142.698843 109.895809 
L 145.978182 111.323791 
L 149.257521 110.249659 
L 152.53686 137.482549 
L 155.816198 115.639704 
L 159.095537 110.856008 
L 162.374876 110.488114 
L 165.654215 122.396319 
L 168.933554 110.277634 
L 172.212893 117.796825 
L 175.492231 112.302576 
L 178.77157 111.561381 
L 182.050909 111.938724 
L 185.330248 109.158035 
L 188.609587 126.115067 
L 191.888926 111.690469 
L 195.168264 148.484859 
L 198.447603 110.836933 
L 201.726942 108.871841 
L 205.006281 108.723972 
L 208.28562 109.304194 
L 211.564959 108.429958 
L 214.844298 109.736332 
L 218.123636 130.80152 
L 221.402975 111.073845 
L 224.682314 115.493678 
L 227.961653 115.457003 
L 231.240992 114.576515 
L 234.520331 109.667341 
L 237.799669 115.859203 
L 241.079008 128.563529 
L 244.358347 148.736042 
L 247.637686 112.631586 
L 250.917025 118.362294 
L 254.196364 109.193927 
L 257.475702 149.693238 
L 260.755041 110.324653 
L 264.03438 112.690176 
L 267.313719 109.688979 
L 270.593058 127.928166 
L 273.872397 109.746165 
L 277.151736 111.743485 
L 280.431074 111.529213 
L 283.710413 115.101733 
L 286.989752 119.652547 
L 290.269091 112.297311 
L 293.54843 110.446278 
L 296.827769 110.734516 
L 300.107107 116.857656 
L 303.386446 111.21543 
L 306.665785 125.142658 
L 309.945124 110.457344 
L 313.224463 113.911613 
L 316.503802 107.764826 
L 319.78314 144.326749 
L 323.062479 116.169856 
L 326.341818 111.681411 
L 329.621157 295.488 
L 332.900496 109.470117 
L 336.179835 110.054458 
L 339.459174 108.994031 
L 342.738512 110.425995 
L 346.017851 108.526938 
L 349.29719 124.987058 
L 352.576529 109.271369 
L 355.855868 110.230942 
L 359.135207 112.86768 
L 362.414545 109.889165 
L 365.693884 112.469541 
L 368.973223 109.764829 
L 372.252562 112.540235 
L 375.531901 116.014616 
L 378.81124 111.487045 
L 382.090579 111.009421 
L 385.369917 120.974943 
L 388.649256 109.329704 
L 391.928595 109.082009 
L 395.207934 111.517893 
L 398.487273 118.484447 
" style="fill:none;stroke:#008000;stroke-dasharray:9.6,2.4,1.5,2.4;stroke-dashoffset:0;stroke-width:1.5;"/>
   </g>
   <g id="line2d_29">
    <path clip-path="url(#p03dbcb4f19)" d="M 73.832727 107.853659 
L 77.112066 105.521693 
L 80.391405 104.659931 
L 83.670744 104.142415 
L 86.950083 104.165459 
L 90.229421 98.682214 
L 93.50876 104.102722 
L 96.788099 88.072474 
L 100.067438 104.534318 
L 103.346777 104.278411 
L 106.626116 103.923869 
L 109.905455 103.75478 
L 113.184793 103.351116 
L 116.464132 103.153099 
L 119.743471 103.302845 
L 123.02281 102.913647 
L 126.302149 104.011301 
L 129.581488 102.73644 
L 132.860826 103.992998 
L 136.140165 103.796851 
L 139.419504 100.645895 
L 142.698843 104.234853 
L 145.978182 103.695829 
L 149.257521 103.689655 
L 152.53686 97.829618 
L 155.816198 102.930262 
L 159.095537 103.764491 
L 162.374876 103.816175 
L 165.654215 100.762862 
L 168.933554 103.69903 
L 172.212893 102.861536 
L 175.492231 103.346171 
L 178.77157 103.881119 
L 182.050909 103.827616 
L 185.330248 103.820902 
L 188.609587 101.800072 
L 191.888926 103.931714 
L 195.168264 97.675023 
L 198.447603 104.19915 
L 201.726942 104.018878 
L 205.006281 104.135358 
L 208.28562 104.042515 
L 211.564959 103.8534 
L 214.844298 104.040182 
L 218.123636 99.054696 
L 221.402975 103.96461 
L 224.682314 102.671243 
L 227.961653 102.983268 
L 231.240992 103.628025 
L 234.520331 103.826399 
L 237.799669 102.5619 
L 241.079008 99.933115 
L 244.358347 94.03233 
L 247.637686 103.217446 
L 250.917025 101.614734 
L 254.196364 104.059664 
L 257.475702 94.078087 
L 260.755041 104.450145 
L 264.03438 103.546676 
L 267.313719 103.902104 
L 270.593058 99.309566 
L 273.872397 103.848685 
L 277.151736 103.436627 
L 280.431074 103.552515 
L 283.710413 103.109468 
L 286.989752 101.944524 
L 290.269091 103.613736 
L 293.54843 103.600374 
L 296.827769 103.960908 
L 300.107107 102.081466 
L 303.386446 103.631636 
L 306.665785 100.55619 
L 309.945124 103.985679 
L 313.224463 103.289816 
L 316.503802 104.088611 
L 319.78314 94.646021 
L 323.062479 102.428247 
L 326.341818 103.462639 
L 329.621157 53.568 
L 332.900496 105.369722 
L 336.179835 104.294293 
L 339.459174 104.139531 
L 342.738512 103.570237 
L 346.017851 103.992481 
L 349.29719 100.047249 
L 352.576529 103.962573 
L 355.855868 103.434581 
L 359.135207 103.765072 
L 362.414545 103.824185 
L 365.693884 103.419485 
L 368.973223 104.244682 
L 372.252562 103.40631 
L 375.531901 102.879762 
L 378.81124 103.437713 
L 382.090579 104.014786 
L 385.369917 101.427371 
L 388.649256 104.205852 
L 391.928595 104.230383 
L 395.207934 104.06987 
L 398.487273 102.313208 
" style="fill:none;stroke:#008000;stroke-dasharray:9.6,2.4,1.5,2.4;stroke-dashoffset:0;stroke-width:1.5;"/>
   </g>
   <g id="line2d_30">
    <path clip-path="url(#p03dbcb4f19)" d="M 73.832727 104.267989 
L 77.112066 104.23344 
L 80.391405 104.292208 
L 83.670744 104.276365 
L 86.950083 104.301362 
L 90.229421 104.899514 
L 93.50876 104.325757 
L 96.788099 104.938534 
L 100.067438 104.208852 
L 103.346777 104.215402 
L 106.626116 104.260682 
L 109.905455 104.255827 
L 113.184793 104.269121 
L 116.464132 104.281089 
L 119.743471 104.223075 
L 123.02281 104.204222 
L 126.302149 104.227656 
L 129.581488 104.256333 
L 132.860826 104.195484 
L 136.140165 104.166415 
L 139.419504 104.179398 
L 142.698843 104.169736 
L 145.978182 104.180057 
L 149.257521 104.157246 
L 152.53686 104.315937 
L 155.816198 104.192645 
L 159.095537 104.177387 
L 162.374876 104.173028 
L 165.654215 104.226614 
L 168.933554 104.178982 
L 172.212893 104.232429 
L 175.492231 104.17596 
L 178.77157 104.195787 
L 182.050909 104.172788 
L 185.330248 104.172067 
L 188.609587 104.2516 
L 191.888926 104.195268 
L 195.168264 104.355449 
L 198.447603 104.216317 
L 201.726942 104.170168 
L 205.006281 104.164517 
L 208.28562 104.17762 
L 211.564959 104.169391 
L 214.844298 104.179522 
L 218.123636 104.301303 
L 221.402975 104.180564 
L 224.682314 104.218412 
L 227.961653 104.206641 
L 231.240992 104.187408 
L 234.520331 104.177932 
L 237.799669 104.229625 
L 241.079008 104.322035 
L 244.358347 104.452847 
L 247.637686 104.196145 
L 250.917025 104.244458 
L 254.196364 104.181506 
L 257.475702 104.42046 
L 260.755041 104.16973 
L 264.03438 104.194414 
L 267.313719 104.172231 
L 270.593058 104.304619 
L 273.872397 104.186593 
L 277.151736 104.216561 
L 280.431074 104.194237 
L 283.710413 104.216932 
L 286.989752 104.246418 
L 290.269091 104.203124 
L 293.54843 104.172914 
L 296.827769 104.167645 
L 300.107107 104.190853 
L 303.386446 104.173286 
L 306.665785 104.243675 
L 309.945124 104.169588 
L 313.224463 104.190267 
L 316.503802 104.174651 
L 319.78314 104.321721 
L 323.062479 104.246302 
L 326.341818 104.176515 
L 329.621157 105.033855 
L 332.900496 104.16273 
L 336.179835 104.185151 
L 339.459174 104.167539 
L 342.738512 104.173671 
L 346.017851 104.171823 
L 349.29719 104.243599 
L 352.576529 104.160734 
L 355.855868 104.162701 
L 359.135207 104.176702 
L 362.414545 104.163915 
L 365.693884 104.19753 
L 368.973223 104.171188 
L 372.252562 104.18101 
L 375.531901 104.190547 
L 378.81124 104.192057 
L 382.090579 104.168051 
L 385.369917 104.231502 
L 388.649256 104.164835 
L 391.928595 104.16073 
L 395.207934 104.170485 
L 398.487273 104.189836 
" style="fill:none;stroke:#ff0000;stroke-linecap:square;stroke-width:1.5;"/>
   </g>
   <g id="patch_3">
    <path d="M 57.6 307.584 
L 57.6 41.472 
" style="fill:none;stroke:#000000;stroke-linecap:square;stroke-linejoin:miter;stroke-width:0.8;"/>
   </g>
   <g id="patch_4">
    <path d="M 414.72 307.584 
L 414.72 41.472 
" style="fill:none;stroke:#000000;stroke-linecap:square;stroke-linejoin:miter;stroke-width:0.8;"/>
   </g>
   <g id="patch_5">
    <path d="M 57.6 307.584 
L 414.72 307.584 
" style="fill:none;stroke:#000000;stroke-linecap:square;stroke-linejoin:miter;stroke-width:0.8;"/>
   </g>
   <g id="patch_6">
    <path d="M 57.6 41.472 
L 414.72 41.472 
" style="fill:none;stroke:#000000;stroke-linecap:square;stroke-linejoin:miter;stroke-width:0.8;"/>
   </g>
   <g id="text_16">
    <!-- Population's average and best fitness -->
    <g transform="translate(123.529687 35.472)scale(0.12 -0.12)">
     <defs>
      <path d="M 1259 4147 
L 1259 2394 
L 2053 2394 
Q 2494 2394 2734 2622 
Q 2975 2850 2975 3272 
Q 2975 3691 2734 3919 
Q 2494 4147 2053 4147 
L 1259 4147 
z
M 628 4666 
L 2053 4666 
Q 2838 4666 3239 4311 
Q 3641 3956 3641 3272 
Q 3641 2581 3239 2228 
Q 2838 1875 2053 1875 
L 1259 1875 
L 1259 0 
L 628 0 
L 628 4666 
z
" id="DejaVuSans-50" transform="scale(0.015625)"/>
      <path d="M 1159 525 
L 1159 -1331 
L 581 -1331 
L 581 3500 
L 1159 3500 
L 1159 2969 
Q 1341 3281 1617 3432 
Q 1894 3584 2278 3584 
Q 2916 3584 3314 3078 
Q 3713 2572 3713 1747 
Q 3713 922 3314 415 
Q 2916 -91 2278 -91 
Q 1894 -91 1617 61 
Q 1341 213 1159 525 
z
M 3116 1747 
Q 3116 2381 2855 2742 
Q 2594 3103 2138 3103 
Q 1681 3103 1420 2742 
Q 1159 2381 1159 1747 
Q 1159 1113 1420 752 
Q 1681 391 2138 391 
Q 2594 391 2855 752 
Q 3116 1113 3116 1747 
z
" id="DejaVuSans-70" transform="scale(0.015625)"/>
      <path d="M 544 1381 
L 544 3500 
L 1119 3500 
L 1119 1403 
Q 1119 906 1312 657 
Q 1506 409 1894 409 
Q 2359 409 2629 706 
Q 2900 1003 2900 1516 
L 2900 3500 
L 3475 3500 
L 3475 0 
L 2900 0 
L 2900 538 
Q 2691 219 2414 64 
Q 2138 -91 1772 -91 
Q 1169 -91 856 284 
Q 544 659 544 1381 
z
M 1991 3584 
L 1991 3584 
z
" id="DejaVuSans-75" transform="scale(0.015625)"/>
      <path d="M 603 4863 
L 1178 4863 
L 1178 0 
L 603 0 
L 603 4863 
z
" id="DejaVuSans-6c" transform="scale(0.015625)"/>
      <path d="M 1147 4666 
L 1147 2931 
L 616 2931 
L 616 4666 
L 1147 4666 
z
" id="DejaVuSans-27" transform="scale(0.015625)"/>
      <path id="DejaVuSans-20" transform="scale(0.015625)"/>
      <path d="M 191 3500 
L 800 3500 
L 1894 563 
L 2988 3500 
L 3597 3500 
L 2284 0 
L 1503 0 
L 191 3500 
z
" id="DejaVuSans-76" transform="scale(0.015625)"/>
      <path d="M 2906 1791 
Q 2906 2416 2648 2759 
Q 2391 3103 1925 3103 
Q 1463 3103 1205 2759 
Q 947 2416 947 1791 
Q 947 1169 1205 825 
Q 1463 481 1925 481 
Q 2391 481 2648 825 
Q 2906 1169 2906 1791 
z
M 3481 434 
Q 3481 -459 3084 -895 
Q 2688 -1331 1869 -1331 
Q 1566 -1331 1297 -1286 
Q 1028 -1241 775 -1147 
L 775 -588 
Q 1028 -725 1275 -790 
Q 1522 -856 1778 -856 
Q 2344 -856 2625 -561 
Q 2906 -266 2906 331 
L 2906 616 
Q 2728 306 2450 153 
Q 2172 0 1784 0 
Q 1141 0 747 490 
Q 353 981 353 1791 
Q 353 2603 747 3093 
Q 1141 3584 1784 3584 
Q 2172 3584 2450 3431 
Q 2728 3278 2906 2969 
L 2906 3500 
L 3481 3500 
L 3481 434 
z
" id="DejaVuSans-67" transform="scale(0.015625)"/>
      <path d="M 2906 2969 
L 2906 4863 
L 3481 4863 
L 3481 0 
L 2906 0 
L 2906 525 
Q 2725 213 2448 61 
Q 2172 -91 1784 -91 
Q 1150 -91 751 415 
Q 353 922 353 1747 
Q 353 2572 751 3078 
Q 1150 3584 1784 3584 
Q 2172 3584 2448 3432 
Q 2725 3281 2906 2969 
z
M 947 1747 
Q 947 1113 1208 752 
Q 1469 391 1925 391 
Q 2381 391 2643 752 
Q 2906 1113 2906 1747 
Q 2906 2381 2643 2742 
Q 2381 3103 1925 3103 
Q 1469 3103 1208 2742 
Q 947 2381 947 1747 
z
" id="DejaVuSans-64" transform="scale(0.015625)"/>
      <path d="M 3116 1747 
Q 3116 2381 2855 2742 
Q 2594 3103 2138 3103 
Q 1681 3103 1420 2742 
Q 1159 2381 1159 1747 
Q 1159 1113 1420 752 
Q 1681 391 2138 391 
Q 2594 391 2855 752 
Q 3116 1113 3116 1747 
z
M 1159 2969 
Q 1341 3281 1617 3432 
Q 1894 3584 2278 3584 
Q 2916 3584 3314 3078 
Q 3713 2572 3713 1747 
Q 3713 922 3314 415 
Q 2916 -91 2278 -91 
Q 1894 -91 1617 61 
Q 1341 213 1159 525 
L 1159 0 
L 581 0 
L 581 4863 
L 1159 4863 
L 1159 2969 
z
" id="DejaVuSans-62" transform="scale(0.015625)"/>
      <path d="M 2375 4863 
L 2375 4384 
L 1825 4384 
Q 1516 4384 1395 4259 
Q 1275 4134 1275 3809 
L 1275 3500 
L 2222 3500 
L 2222 3053 
L 1275 3053 
L 1275 0 
L 697 0 
L 697 3053 
L 147 3053 
L 147 3500 
L 697 3500 
L 697 3744 
Q 697 4328 969 4595 
Q 1241 4863 1831 4863 
L 2375 4863 
z
" id="DejaVuSans-66" transform="scale(0.015625)"/>
     </defs>
     <use xlink:href="#DejaVuSans-50"/>
     <use x="56.677734" xlink:href="#DejaVuSans-6f"/>
     <use x="117.859375" xlink:href="#DejaVuSans-70"/>
     <use x="181.335938" xlink:href="#DejaVuSans-75"/>
     <use x="244.714844" xlink:href="#DejaVuSans-6c"/>
     <use x="272.498047" xlink:href="#DejaVuSans-61"/>
     <use x="333.777344" xlink:href="#DejaVuSans-74"/>
     <use x="372.986328" xlink:href="#DejaVuSans-69"/>
     <use x="400.769531" xlink:href="#DejaVuSans-6f"/>
     <use x="461.951172" xlink:href="#DejaVuSans-6e"/>
     <use x="525.330078" xlink:href="#DejaVuSans-27"/>
     <use x="552.820312" xlink:href="#DejaVuSans-73"/>
     <use x="604.919922" xlink:href="#DejaVuSans-20"/>
     <use x="636.707031" xlink:href="#DejaVuSans-61"/>
     <use x="697.986328" xlink:href="#DejaVuSans-76"/>
     <use x="757.166016" xlink:href="#DejaVuSans-65"/>
     <use x="818.689453" xlink:href="#DejaVuSans-72"/>
     <use x="859.802734" xlink:href="#DejaVuSans-61"/>
     <use x="921.082031" xlink:href="#DejaVuSans-67"/>
     <use x="984.558594" xlink:href="#DejaVuSans-65"/>
     <use x="1046.082031" xlink:href="#DejaVuSans-20"/>
     <use x="1077.869141" xlink:href="#DejaVuSans-61"/>
     <use x="1139.148438" xlink:href="#DejaVuSans-6e"/>
     <use x="1202.527344" xlink:href="#DejaVuSans-64"/>
     <use x="1266.003906" xlink:href="#DejaVuSans-20"/>
     <use x="1297.791016" xlink:href="#DejaVuSans-62"/>
     <use x="1361.267578" xlink:href="#DejaVuSans-65"/>
     <use x="1422.791016" xlink:href="#DejaVuSans-73"/>
     <use x="1474.890625" xlink:href="#DejaVuSans-74"/>
     <use x="1514.099609" xlink:href="#DejaVuSans-20"/>
     <use x="1545.886719" xlink:href="#DejaVuSans-66"/>
     <use x="1581.091797" xlink:href="#DejaVuSans-69"/>
     <use x="1608.875" xlink:href="#DejaVuSans-74"/>
     <use x="1648.083984" xlink:href="#DejaVuSans-6e"/>
     <use x="1711.462891" xlink:href="#DejaVuSans-65"/>
     <use x="1772.986328" xlink:href="#DejaVuSans-73"/>
     <use x="1825.085938" xlink:href="#DejaVuSans-73"/>
    </g>
   </g>
   <g id="legend_1">
    <g id="patch_7">
     <path d="M 64.6 302.584 
L 137.540625 302.584 
Q 139.540625 302.584 139.540625 300.584 
L 139.540625 242.8715 
Q 139.540625 240.8715 137.540625 240.8715 
L 64.6 240.8715 
Q 62.6 240.8715 62.6 242.8715 
L 62.6 300.584 
Q 62.6 302.584 64.6 302.584 
z
" style="fill:#ffffff;opacity:0.8;stroke:#cccccc;stroke-linejoin:miter;"/>
    </g>
    <g id="line2d_31">
     <path d="M 66.6 248.969937 
L 86.6 248.969937 
" style="fill:none;stroke:#0000ff;stroke-linecap:square;stroke-width:1.5;"/>
    </g>
    <g id="line2d_32"/>
    <g id="text_17">
     <!-- average -->
     <g transform="translate(94.6 252.469937)scale(0.1 -0.1)">
      <use xlink:href="#DejaVuSans-61"/>
      <use x="61.279297" xlink:href="#DejaVuSans-76"/>
      <use x="120.458984" xlink:href="#DejaVuSans-65"/>
      <use x="181.982422" xlink:href="#DejaVuSans-72"/>
      <use x="223.095703" xlink:href="#DejaVuSans-61"/>
      <use x="284.375" xlink:href="#DejaVuSans-67"/>
      <use x="347.851562" xlink:href="#DejaVuSans-65"/>
     </g>
    </g>
    <g id="line2d_33">
     <path d="M 66.6 263.648062 
L 86.6 263.648062 
" style="fill:none;stroke:#008000;stroke-dasharray:9.6,2.4,1.5,2.4;stroke-dashoffset:0;stroke-width:1.5;"/>
    </g>
    <g id="line2d_34"/>
    <g id="text_18">
     <!-- -1 sd -->
     <g transform="translate(94.6 267.148062)scale(0.1 -0.1)">
      <defs>
       <path d="M 313 2009 
L 1997 2009 
L 1997 1497 
L 313 1497 
L 313 2009 
z
" id="DejaVuSans-2d" transform="scale(0.015625)"/>
      </defs>
      <use xlink:href="#DejaVuSans-2d"/>
      <use x="36.083984" xlink:href="#DejaVuSans-31"/>
      <use x="99.707031" xlink:href="#DejaVuSans-20"/>
      <use x="131.494141" xlink:href="#DejaVuSans-73"/>
      <use x="183.59375" xlink:href="#DejaVuSans-64"/>
     </g>
    </g>
    <g id="line2d_35">
     <path d="M 66.6 278.326187 
L 86.6 278.326187 
" style="fill:none;stroke:#008000;stroke-dasharray:9.6,2.4,1.5,2.4;stroke-dashoffset:0;stroke-width:1.5;"/>
    </g>
    <g id="line2d_36"/>
    <g id="text_19">
     <!-- +1 sd -->
     <g transform="translate(94.6 281.826187)scale(0.1 -0.1)">
      <defs>
       <path d="M 2944 4013 
L 2944 2272 
L 4684 2272 
L 4684 1741 
L 2944 1741 
L 2944 0 
L 2419 0 
L 2419 1741 
L 678 1741 
L 678 2272 
L 2419 2272 
L 2419 4013 
L 2944 4013 
z
" id="DejaVuSans-2b" transform="scale(0.015625)"/>
      </defs>
      <use xlink:href="#DejaVuSans-2b"/>
      <use x="83.789062" xlink:href="#DejaVuSans-31"/>
      <use x="147.412109" xlink:href="#DejaVuSans-20"/>
      <use x="179.199219" xlink:href="#DejaVuSans-73"/>
      <use x="231.298828" xlink:href="#DejaVuSans-64"/>
     </g>
    </g>
    <g id="line2d_37">
     <path d="M 66.6 293.004312 
L 86.6 293.004312 
" style="fill:none;stroke:#ff0000;stroke-linecap:square;stroke-width:1.5;"/>
    </g>
    <g id="line2d_38"/>
    <g id="text_20">
     <!-- best -->
     <g transform="translate(94.6 296.504312)scale(0.1 -0.1)">
      <use xlink:href="#DejaVuSans-62"/>
      <use x="63.476562" xlink:href="#DejaVuSans-65"/>
      <use x="125" xlink:href="#DejaVuSans-73"/>
      <use x="177.099609" xlink:href="#DejaVuSans-74"/>
     </g>
    </g>
   </g>
  </g>
 </g>
 <defs>
  <clipPath id="p03dbcb4f19">
   <rect height="266.112" width="357.12" x="57.6" y="41.472"/>
  </clipPath>
 </defs>
</svg>
