<?xml version="1.0" encoding="utf-8" standalone="no"?>
<!DOCTYPE svg PUBLIC "-//W3C//DTD SVG 1.1//EN"
  "http://www.w3.org/Graphics/SVG/1.1/DTD/svg11.dtd">
<svg height="345.6pt" version="1.1" viewBox="0 0 460.8 345.6" width="460.8pt" xmlns="http://www.w3.org/2000/svg" xmlns:xlink="http://www.w3.org/1999/xlink">
 <metadata>
  <rdf:RDF xmlns:cc="http://creativecommons.org/ns#" xmlns:dc="http://purl.org/dc/elements/1.1/" xmlns:rdf="http://www.w3.org/1999/02/22-rdf-syntax-ns#">
   <cc:Work>
    <dc:type rdf:resource="http://purl.org/dc/dcmitype/StillImage"/>
    <dc:date>2023-04-24T23:54:04.609174</dc:date>
    <dc:format>image/svg+xml</dc:format>
    <dc:creator>
     <cc:Agent>
      <dc:title>Matplotlib v3.4.3, https://matplotlib.org/</dc:title>
     </cc:Agent>
    </dc:creator>
   </cc:Work>
  </rdf:RDF>
 </metadata>
 <defs>
  <style type="text/css">*{stroke-linecap:butt;stroke-linejoin:round;}</style>
 </defs>
 <g id="figure_1">
  <g id="patch_1">
   <path d="M 0 345.6 
L 460.8 345.6 
L 460.8 0 
L 0 0 
z
" style="fill:#ffffff;"/>
  </g>
  <g id="axes_1">
   <g id="patch_2">
    <path d="M 57.6 307.584 
L 414.72 307.584 
L 414.72 41.472 
L 57.6 41.472 
z
" style="fill:#ffffff;"/>
   </g>
   <g id="matplotlib.axis_1">
    <g id="xtick_1">
     <g id="line2d_1">
      <path clip-path="url(#p585965a34d)" d="M 73.832727 307.584 
L 73.832727 41.472 
" style="fill:none;stroke:#b0b0b0;stroke-linecap:square;stroke-width:0.8;"/>
     </g>
     <g id="line2d_2">
      <defs>
       <path d="M 0 0 
L 0 3.5 
" id="m313d943286" style="stroke:#000000;stroke-width:0.8;"/>
      </defs>
      <g>
       <use style="stroke:#000000;stroke-width:0.8;" x="73.832727" xlink:href="#m313d943286" y="307.584"/>
      </g>
     </g>
     <g id="text_1">
      <!-- 0 -->
      <g transform="translate(70.651477 322.182437)scale(0.1 -0.1)">
       <defs>
        <path d="M 2034 4250 
Q 1547 4250 1301 3770 
Q 1056 3291 1056 2328 
Q 1056 1369 1301 889 
Q 1547 409 2034 409 
Q 2525 409 2770 889 
Q 3016 1369 3016 2328 
Q 3016 3291 2770 3770 
Q 2525 4250 2034 4250 
z
M 2034 4750 
Q 2819 4750 3233 4129 
Q 3647 3509 3647 2328 
Q 3647 1150 3233 529 
Q 2819 -91 2034 -91 
Q 1250 -91 836 529 
Q 422 1150 422 2328 
Q 422 3509 836 4129 
Q 1250 4750 2034 4750 
z
" id="DejaVuSans-30" transform="scale(0.015625)"/>
       </defs>
       <use xlink:href="#DejaVuSans-30"/>
      </g>
     </g>
    </g>
    <g id="xtick_2">
     <g id="line2d_3">
      <path clip-path="url(#p585965a34d)" d="M 138.893758 307.584 
L 138.893758 41.472 
" style="fill:none;stroke:#b0b0b0;stroke-linecap:square;stroke-width:0.8;"/>
     </g>
     <g id="line2d_4">
      <g>
       <use style="stroke:#000000;stroke-width:0.8;" x="138.893758" xlink:href="#m313d943286" y="307.584"/>
      </g>
     </g>
     <g id="text_2">
      <!-- 100 -->
      <g transform="translate(129.350008 322.182437)scale(0.1 -0.1)">
       <defs>
        <path d="M 794 531 
L 1825 531 
L 1825 4091 
L 703 3866 
L 703 4441 
L 1819 4666 
L 2450 4666 
L 2450 531 
L 3481 531 
L 3481 0 
L 794 0 
L 794 531 
z
" id="DejaVuSans-31" transform="scale(0.015625)"/>
       </defs>
       <use xlink:href="#DejaVuSans-31"/>
       <use x="63.623047" xlink:href="#DejaVuSans-30"/>
       <use x="127.246094" xlink:href="#DejaVuSans-30"/>
      </g>
     </g>
    </g>
    <g id="xtick_3">
     <g id="line2d_5">
      <path clip-path="url(#p585965a34d)" d="M 203.95479 307.584 
L 203.95479 41.472 
" style="fill:none;stroke:#b0b0b0;stroke-linecap:square;stroke-width:0.8;"/>
     </g>
     <g id="line2d_6">
      <g>
       <use style="stroke:#000000;stroke-width:0.8;" x="203.95479" xlink:href="#m313d943286" y="307.584"/>
      </g>
     </g>
     <g id="text_3">
      <!-- 200 -->
      <g transform="translate(194.41104 322.182437)scale(0.1 -0.1)">
       <defs>
        <path d="M 1228 531 
L 3431 531 
L 3431 0 
L 469 0 
L 469 531 
Q 828 903 1448 1529 
Q 2069 2156 2228 2338 
Q 2531 2678 2651 2914 
Q 2772 3150 2772 3378 
Q 2772 3750 2511 3984 
Q 2250 4219 1831 4219 
Q 1534 4219 1204 4116 
Q 875 4013 500 3803 
L 500 4441 
Q 881 4594 1212 4672 
Q 1544 4750 1819 4750 
Q 2544 4750 2975 4387 
Q 3406 4025 3406 3419 
Q 3406 3131 3298 2873 
Q 3191 2616 2906 2266 
Q 2828 2175 2409 1742 
Q 1991 1309 1228 531 
z
" id="DejaVuSans-32" transform="scale(0.015625)"/>
       </defs>
       <use xlink:href="#DejaVuSans-32"/>
       <use x="63.623047" xlink:href="#DejaVuSans-30"/>
       <use x="127.246094" xlink:href="#DejaVuSans-30"/>
      </g>
     </g>
    </g>
    <g id="xtick_4">
     <g id="line2d_7">
      <path clip-path="url(#p585965a34d)" d="M 269.015821 307.584 
L 269.015821 41.472 
" style="fill:none;stroke:#b0b0b0;stroke-linecap:square;stroke-width:0.8;"/>
     </g>
     <g id="line2d_8">
      <g>
       <use style="stroke:#000000;stroke-width:0.8;" x="269.015821" xlink:href="#m313d943286" y="307.584"/>
      </g>
     </g>
     <g id="text_4">
      <!-- 300 -->
      <g transform="translate(259.472071 322.182437)scale(0.1 -0.1)">
       <defs>
        <path d="M 2597 2516 
Q 3050 2419 3304 2112 
Q 3559 1806 3559 1356 
Q 3559 666 3084 287 
Q 2609 -91 1734 -91 
Q 1441 -91 1130 -33 
Q 819 25 488 141 
L 488 750 
Q 750 597 1062 519 
Q 1375 441 1716 441 
Q 2309 441 2620 675 
Q 2931 909 2931 1356 
Q 2931 1769 2642 2001 
Q 2353 2234 1838 2234 
L 1294 2234 
L 1294 2753 
L 1863 2753 
Q 2328 2753 2575 2939 
Q 2822 3125 2822 3475 
Q 2822 3834 2567 4026 
Q 2313 4219 1838 4219 
Q 1578 4219 1281 4162 
Q 984 4106 628 3988 
L 628 4550 
Q 988 4650 1302 4700 
Q 1616 4750 1894 4750 
Q 2613 4750 3031 4423 
Q 3450 4097 3450 3541 
Q 3450 3153 3228 2886 
Q 3006 2619 2597 2516 
z
" id="DejaVuSans-33" transform="scale(0.015625)"/>
       </defs>
       <use xlink:href="#DejaVuSans-33"/>
       <use x="63.623047" xlink:href="#DejaVuSans-30"/>
       <use x="127.246094" xlink:href="#DejaVuSans-30"/>
      </g>
     </g>
    </g>
    <g id="xtick_5">
     <g id="line2d_9">
      <path clip-path="url(#p585965a34d)" d="M 334.076852 307.584 
L 334.076852 41.472 
" style="fill:none;stroke:#b0b0b0;stroke-linecap:square;stroke-width:0.8;"/>
     </g>
     <g id="line2d_10">
      <g>
       <use style="stroke:#000000;stroke-width:0.8;" x="334.076852" xlink:href="#m313d943286" y="307.584"/>
      </g>
     </g>
     <g id="text_5">
      <!-- 400 -->
      <g transform="translate(324.533102 322.182437)scale(0.1 -0.1)">
       <defs>
        <path d="M 2419 4116 
L 825 1625 
L 2419 1625 
L 2419 4116 
z
M 2253 4666 
L 3047 4666 
L 3047 1625 
L 3713 1625 
L 3713 1100 
L 3047 1100 
L 3047 0 
L 2419 0 
L 2419 1100 
L 313 1100 
L 313 1709 
L 2253 4666 
z
" id="DejaVuSans-34" transform="scale(0.015625)"/>
       </defs>
       <use xlink:href="#DejaVuSans-34"/>
       <use x="63.623047" xlink:href="#DejaVuSans-30"/>
       <use x="127.246094" xlink:href="#DejaVuSans-30"/>
      </g>
     </g>
    </g>
    <g id="xtick_6">
     <g id="line2d_11">
      <path clip-path="url(#p585965a34d)" d="M 399.137883 307.584 
L 399.137883 41.472 
" style="fill:none;stroke:#b0b0b0;stroke-linecap:square;stroke-width:0.8;"/>
     </g>
     <g id="line2d_12">
      <g>
       <use style="stroke:#000000;stroke-width:0.8;" x="399.137883" xlink:href="#m313d943286" y="307.584"/>
      </g>
     </g>
     <g id="text_6">
      <!-- 500 -->
      <g transform="translate(389.594133 322.182437)scale(0.1 -0.1)">
       <defs>
        <path d="M 691 4666 
L 3169 4666 
L 3169 4134 
L 1269 4134 
L 1269 2991 
Q 1406 3038 1543 3061 
Q 1681 3084 1819 3084 
Q 2600 3084 3056 2656 
Q 3513 2228 3513 1497 
Q 3513 744 3044 326 
Q 2575 -91 1722 -91 
Q 1428 -91 1123 -41 
Q 819 9 494 109 
L 494 744 
Q 775 591 1075 516 
Q 1375 441 1709 441 
Q 2250 441 2565 725 
Q 2881 1009 2881 1497 
Q 2881 1984 2565 2268 
Q 2250 2553 1709 2553 
Q 1456 2553 1204 2497 
Q 953 2441 691 2322 
L 691 4666 
z
" id="DejaVuSans-35" transform="scale(0.015625)"/>
       </defs>
       <use xlink:href="#DejaVuSans-35"/>
       <use x="63.623047" xlink:href="#DejaVuSans-30"/>
       <use x="127.246094" xlink:href="#DejaVuSans-30"/>
      </g>
     </g>
    </g>
    <g id="text_7">
     <!-- Generations -->
     <g transform="translate(205.662344 335.860562)scale(0.1 -0.1)">
      <defs>
       <path d="M 3809 666 
L 3809 1919 
L 2778 1919 
L 2778 2438 
L 4434 2438 
L 4434 434 
Q 4069 175 3628 42 
Q 3188 -91 2688 -91 
Q 1594 -91 976 548 
Q 359 1188 359 2328 
Q 359 3472 976 4111 
Q 1594 4750 2688 4750 
Q 3144 4750 3555 4637 
Q 3966 4525 4313 4306 
L 4313 3634 
Q 3963 3931 3569 4081 
Q 3175 4231 2741 4231 
Q 1884 4231 1454 3753 
Q 1025 3275 1025 2328 
Q 1025 1384 1454 906 
Q 1884 428 2741 428 
Q 3075 428 3337 486 
Q 3600 544 3809 666 
z
" id="DejaVuSans-47" transform="scale(0.015625)"/>
       <path d="M 3597 1894 
L 3597 1613 
L 953 1613 
Q 991 1019 1311 708 
Q 1631 397 2203 397 
Q 2534 397 2845 478 
Q 3156 559 3463 722 
L 3463 178 
Q 3153 47 2828 -22 
Q 2503 -91 2169 -91 
Q 1331 -91 842 396 
Q 353 884 353 1716 
Q 353 2575 817 3079 
Q 1281 3584 2069 3584 
Q 2775 3584 3186 3129 
Q 3597 2675 3597 1894 
z
M 3022 2063 
Q 3016 2534 2758 2815 
Q 2500 3097 2075 3097 
Q 1594 3097 1305 2825 
Q 1016 2553 972 2059 
L 3022 2063 
z
" id="DejaVuSans-65" transform="scale(0.015625)"/>
       <path d="M 3513 2113 
L 3513 0 
L 2938 0 
L 2938 2094 
Q 2938 2591 2744 2837 
Q 2550 3084 2163 3084 
Q 1697 3084 1428 2787 
Q 1159 2491 1159 1978 
L 1159 0 
L 581 0 
L 581 3500 
L 1159 3500 
L 1159 2956 
Q 1366 3272 1645 3428 
Q 1925 3584 2291 3584 
Q 2894 3584 3203 3211 
Q 3513 2838 3513 2113 
z
" id="DejaVuSans-6e" transform="scale(0.015625)"/>
       <path d="M 2631 2963 
Q 2534 3019 2420 3045 
Q 2306 3072 2169 3072 
Q 1681 3072 1420 2755 
Q 1159 2438 1159 1844 
L 1159 0 
L 581 0 
L 581 3500 
L 1159 3500 
L 1159 2956 
Q 1341 3275 1631 3429 
Q 1922 3584 2338 3584 
Q 2397 3584 2469 3576 
Q 2541 3569 2628 3553 
L 2631 2963 
z
" id="DejaVuSans-72" transform="scale(0.015625)"/>
       <path d="M 2194 1759 
Q 1497 1759 1228 1600 
Q 959 1441 959 1056 
Q 959 750 1161 570 
Q 1363 391 1709 391 
Q 2188 391 2477 730 
Q 2766 1069 2766 1631 
L 2766 1759 
L 2194 1759 
z
M 3341 1997 
L 3341 0 
L 2766 0 
L 2766 531 
Q 2569 213 2275 61 
Q 1981 -91 1556 -91 
Q 1019 -91 701 211 
Q 384 513 384 1019 
Q 384 1609 779 1909 
Q 1175 2209 1959 2209 
L 2766 2209 
L 2766 2266 
Q 2766 2663 2505 2880 
Q 2244 3097 1772 3097 
Q 1472 3097 1187 3025 
Q 903 2953 641 2809 
L 641 3341 
Q 956 3463 1253 3523 
Q 1550 3584 1831 3584 
Q 2591 3584 2966 3190 
Q 3341 2797 3341 1997 
z
" id="DejaVuSans-61" transform="scale(0.015625)"/>
       <path d="M 1172 4494 
L 1172 3500 
L 2356 3500 
L 2356 3053 
L 1172 3053 
L 1172 1153 
Q 1172 725 1289 603 
Q 1406 481 1766 481 
L 2356 481 
L 2356 0 
L 1766 0 
Q 1100 0 847 248 
Q 594 497 594 1153 
L 594 3053 
L 172 3053 
L 172 3500 
L 594 3500 
L 594 4494 
L 1172 4494 
z
" id="DejaVuSans-74" transform="scale(0.015625)"/>
       <path d="M 603 3500 
L 1178 3500 
L 1178 0 
L 603 0 
L 603 3500 
z
M 603 4863 
L 1178 4863 
L 1178 4134 
L 603 4134 
L 603 4863 
z
" id="DejaVuSans-69" transform="scale(0.015625)"/>
       <path d="M 1959 3097 
Q 1497 3097 1228 2736 
Q 959 2375 959 1747 
Q 959 1119 1226 758 
Q 1494 397 1959 397 
Q 2419 397 2687 759 
Q 2956 1122 2956 1747 
Q 2956 2369 2687 2733 
Q 2419 3097 1959 3097 
z
M 1959 3584 
Q 2709 3584 3137 3096 
Q 3566 2609 3566 1747 
Q 3566 888 3137 398 
Q 2709 -91 1959 -91 
Q 1206 -91 779 398 
Q 353 888 353 1747 
Q 353 2609 779 3096 
Q 1206 3584 1959 3584 
z
" id="DejaVuSans-6f" transform="scale(0.015625)"/>
       <path d="M 2834 3397 
L 2834 2853 
Q 2591 2978 2328 3040 
Q 2066 3103 1784 3103 
Q 1356 3103 1142 2972 
Q 928 2841 928 2578 
Q 928 2378 1081 2264 
Q 1234 2150 1697 2047 
L 1894 2003 
Q 2506 1872 2764 1633 
Q 3022 1394 3022 966 
Q 3022 478 2636 193 
Q 2250 -91 1575 -91 
Q 1294 -91 989 -36 
Q 684 19 347 128 
L 347 722 
Q 666 556 975 473 
Q 1284 391 1588 391 
Q 1994 391 2212 530 
Q 2431 669 2431 922 
Q 2431 1156 2273 1281 
Q 2116 1406 1581 1522 
L 1381 1569 
Q 847 1681 609 1914 
Q 372 2147 372 2553 
Q 372 3047 722 3315 
Q 1072 3584 1716 3584 
Q 2034 3584 2315 3537 
Q 2597 3491 2834 3397 
z
" id="DejaVuSans-73" transform="scale(0.015625)"/>
      </defs>
      <use xlink:href="#DejaVuSans-47"/>
      <use x="77.490234" xlink:href="#DejaVuSans-65"/>
      <use x="139.013672" xlink:href="#DejaVuSans-6e"/>
      <use x="202.392578" xlink:href="#DejaVuSans-65"/>
      <use x="263.916016" xlink:href="#DejaVuSans-72"/>
      <use x="305.029297" xlink:href="#DejaVuSans-61"/>
      <use x="366.308594" xlink:href="#DejaVuSans-74"/>
      <use x="405.517578" xlink:href="#DejaVuSans-69"/>
      <use x="433.300781" xlink:href="#DejaVuSans-6f"/>
      <use x="494.482422" xlink:href="#DejaVuSans-6e"/>
      <use x="557.861328" xlink:href="#DejaVuSans-73"/>
     </g>
    </g>
   </g>
   <g id="matplotlib.axis_2">
    <g id="ytick_1">
     <g id="line2d_13">
      <path clip-path="url(#p585965a34d)" d="M 57.6 303.253897 
L 414.72 303.253897 
" style="fill:none;stroke:#b0b0b0;stroke-linecap:square;stroke-width:0.8;"/>
     </g>
     <g id="line2d_14">
      <defs>
       <path d="M 0 0 
L -3.5 0 
" id="mb22cbc3f50" style="stroke:#000000;stroke-width:0.8;"/>
      </defs>
      <g>
       <use style="stroke:#000000;stroke-width:0.8;" x="57.6" xlink:href="#mb22cbc3f50" y="303.253897"/>
      </g>
     </g>
     <g id="text_8">
      <!-- −1.0 -->
      <g transform="translate(26.317187 307.053116)scale(0.1 -0.1)">
       <defs>
        <path d="M 678 2272 
L 4684 2272 
L 4684 1741 
L 678 1741 
L 678 2272 
z
" id="DejaVuSans-2212" transform="scale(0.015625)"/>
        <path d="M 684 794 
L 1344 794 
L 1344 0 
L 684 0 
L 684 794 
z
" id="DejaVuSans-2e" transform="scale(0.015625)"/>
       </defs>
       <use xlink:href="#DejaVuSans-2212"/>
       <use x="83.789062" xlink:href="#DejaVuSans-31"/>
       <use x="147.412109" xlink:href="#DejaVuSans-2e"/>
       <use x="179.199219" xlink:href="#DejaVuSans-30"/>
      </g>
     </g>
    </g>
    <g id="ytick_2">
     <g id="line2d_15">
      <path clip-path="url(#p585965a34d)" d="M 57.6 246.199022 
L 414.72 246.199022 
" style="fill:none;stroke:#b0b0b0;stroke-linecap:square;stroke-width:0.8;"/>
     </g>
     <g id="line2d_16">
      <g>
       <use style="stroke:#000000;stroke-width:0.8;" x="57.6" xlink:href="#mb22cbc3f50" y="246.199022"/>
      </g>
     </g>
     <g id="text_9">
      <!-- −0.5 -->
      <g transform="translate(26.317187 249.99824)scale(0.1 -0.1)">
       <use xlink:href="#DejaVuSans-2212"/>
       <use x="83.789062" xlink:href="#DejaVuSans-30"/>
       <use x="147.412109" xlink:href="#DejaVuSans-2e"/>
       <use x="179.199219" xlink:href="#DejaVuSans-35"/>
      </g>
     </g>
    </g>
    <g id="ytick_3">
     <g id="line2d_17">
      <path clip-path="url(#p585965a34d)" d="M 57.6 189.144146 
L 414.72 189.144146 
" style="fill:none;stroke:#b0b0b0;stroke-linecap:square;stroke-width:0.8;"/>
     </g>
     <g id="line2d_18">
      <g>
       <use style="stroke:#000000;stroke-width:0.8;" x="57.6" xlink:href="#mb22cbc3f50" y="189.144146"/>
      </g>
     </g>
     <g id="text_10">
      <!-- 0.0 -->
      <g transform="translate(34.696875 192.943365)scale(0.1 -0.1)">
       <use xlink:href="#DejaVuSans-30"/>
       <use x="63.623047" xlink:href="#DejaVuSans-2e"/>
       <use x="95.410156" xlink:href="#DejaVuSans-30"/>
      </g>
     </g>
    </g>
    <g id="ytick_4">
     <g id="line2d_19">
      <path clip-path="url(#p585965a34d)" d="M 57.6 132.08927 
L 414.72 132.08927 
" style="fill:none;stroke:#b0b0b0;stroke-linecap:square;stroke-width:0.8;"/>
     </g>
     <g id="line2d_20">
      <g>
       <use style="stroke:#000000;stroke-width:0.8;" x="57.6" xlink:href="#mb22cbc3f50" y="132.08927"/>
      </g>
     </g>
     <g id="text_11">
      <!-- 0.5 -->
      <g transform="translate(34.696875 135.888489)scale(0.1 -0.1)">
       <use xlink:href="#DejaVuSans-30"/>
       <use x="63.623047" xlink:href="#DejaVuSans-2e"/>
       <use x="95.410156" xlink:href="#DejaVuSans-35"/>
      </g>
     </g>
    </g>
    <g id="ytick_5">
     <g id="line2d_21">
      <path clip-path="url(#p585965a34d)" d="M 57.6 75.034395 
L 414.72 75.034395 
" style="fill:none;stroke:#b0b0b0;stroke-linecap:square;stroke-width:0.8;"/>
     </g>
     <g id="line2d_22">
      <g>
       <use style="stroke:#000000;stroke-width:0.8;" x="57.6" xlink:href="#mb22cbc3f50" y="75.034395"/>
      </g>
     </g>
     <g id="text_12">
      <!-- 1.0 -->
      <g transform="translate(34.696875 78.833614)scale(0.1 -0.1)">
       <use xlink:href="#DejaVuSans-31"/>
       <use x="63.623047" xlink:href="#DejaVuSans-2e"/>
       <use x="95.410156" xlink:href="#DejaVuSans-30"/>
      </g>
     </g>
    </g>
    <g id="text_13">
     <!-- Fitness -->
     <g transform="translate(20.2375 191.845187)rotate(-90)scale(0.1 -0.1)">
      <defs>
       <path d="M 628 4666 
L 3309 4666 
L 3309 4134 
L 1259 4134 
L 1259 2759 
L 3109 2759 
L 3109 2228 
L 1259 2228 
L 1259 0 
L 628 0 
L 628 4666 
z
" id="DejaVuSans-46" transform="scale(0.015625)"/>
      </defs>
      <use xlink:href="#DejaVuSans-46"/>
      <use x="50.269531" xlink:href="#DejaVuSans-69"/>
      <use x="78.052734" xlink:href="#DejaVuSans-74"/>
      <use x="117.261719" xlink:href="#DejaVuSans-6e"/>
      <use x="180.640625" xlink:href="#DejaVuSans-65"/>
      <use x="242.164062" xlink:href="#DejaVuSans-73"/>
      <use x="294.263672" xlink:href="#DejaVuSans-73"/>
     </g>
    </g>
   </g>
   <g id="line2d_23">
    <path clip-path="url(#p585965a34d)" d="M 73.832727 228.645113 
L 74.483338 235.742059 
L 75.133948 204.056717 
L 75.784558 184.24807 
L 76.435169 181.720224 
L 77.085779 199.040905 
L 77.736389 149.28771 
L 78.386999 218.710042 
L 79.03761 206.810032 
L 79.68822 180.026349 
L 80.33883 199.669359 
L 80.989441 177.819261 
L 81.640051 159.812202 
L 82.290661 168.316758 
L 82.941272 173.44191 
L 84.242492 136.680138 
L 84.893103 128.042799 
L 85.543713 152.80356 
L 86.194323 152.983471 
L 86.844934 147.204958 
L 87.495544 151.145543 
L 88.146154 138.224509 
L 88.796764 131.593259 
L 89.447375 133.960779 
L 90.097985 141.401282 
L 90.748595 128.433186 
L 91.399206 128.905832 
L 92.049816 126.302321 
L 92.700426 133.139819 
L 93.351037 119.765473 
L 94.652257 127.836355 
L 95.302868 123.06351 
L 95.953478 127.029274 
L 96.604088 126.386817 
L 97.254698 128.282941 
L 97.905309 124.148236 
L 98.555919 131.676994 
L 99.206529 134.670236 
L 99.85714 128.72966 
L 100.50775 153.721931 
L 101.15836 129.176617 
L 101.808971 129.713821 
L 102.459581 153.77799 
L 103.110191 130.93344 
L 103.760802 157.186993 
L 104.411412 147.344212 
L 105.062022 151.866245 
L 105.712633 137.211842 
L 106.363243 170.132135 
L 107.013853 146.198139 
L 107.664463 146.128017 
L 108.315074 151.07437 
L 108.965684 145.405743 
L 109.616294 137.825797 
L 110.266905 140.192766 
L 110.917515 131.840897 
L 111.568125 131.061196 
L 112.218736 155.568502 
L 112.869346 147.986139 
L 113.519956 131.400543 
L 114.170567 140.999118 
L 114.821177 146.362039 
L 115.471787 144.074378 
L 116.122398 133.236924 
L 116.773008 151.390564 
L 117.423618 148.962275 
L 118.074228 157.047453 
L 118.724839 136.38196 
L 119.375449 147.429542 
L 120.026059 139.239077 
L 120.67667 170.055585 
L 121.32728 152.649932 
L 121.97789 147.004627 
L 122.628501 149.343356 
L 123.279111 140.737128 
L 123.929721 141.873557 
L 124.580332 143.91585 
L 125.230942 136.611355 
L 125.881552 157.996754 
L 126.532163 142.019131 
L 127.182773 147.061152 
L 127.833383 138.964275 
L 128.483993 149.938733 
L 129.785214 126.692162 
L 130.435824 148.14847 
L 131.086435 135.80382 
L 131.737045 129.121388 
L 132.387655 132.469731 
L 133.038266 127.201812 
L 133.688876 158.77147 
L 134.339486 138.911804 
L 134.990097 145.309108 
L 135.640707 137.262588 
L 136.291317 144.424235 
L 136.941927 137.454721 
L 137.592538 136.559567 
L 138.243148 134.934552 
L 138.893758 132.92909 
L 139.544369 152.085306 
L 140.194979 142.980814 
L 140.845589 142.647429 
L 141.4962 141.748249 
L 142.14681 165.037589 
L 142.79742 146.788657 
L 143.448031 153.316209 
L 144.098641 150.691282 
L 144.749251 148.795393 
L 145.399862 153.568279 
L 146.050472 138.918206 
L 146.701082 129.863719 
L 147.351692 135.535765 
L 148.002303 122.509486 
L 148.652913 117.860285 
L 149.303523 131.553124 
L 149.954134 118.513957 
L 150.604744 136.720191 
L 151.255354 139.121412 
L 151.905965 129.530056 
L 152.556575 146.274632 
L 153.207185 129.367907 
L 153.857796 143.442381 
L 154.508406 127.09556 
L 155.159016 146.242877 
L 155.809627 131.193078 
L 156.460237 128.631036 
L 157.110847 143.899754 
L 157.761457 136.185741 
L 158.412068 137.871677 
L 159.062678 136.592336 
L 159.713288 138.591215 
L 160.363899 142.067493 
L 161.014509 138.741497 
L 161.665119 137.90406 
L 162.31573 141.05079 
L 162.96634 167.765299 
L 163.61695 135.356515 
L 164.267561 145.683938 
L 164.918171 139.359957 
L 165.568781 135.952988 
L 166.219392 134.95627 
L 166.870002 137.693032 
L 167.520612 128.112136 
L 168.171222 135.34094 
L 168.821833 137.813463 
L 169.472443 133.579375 
L 170.123053 160.651605 
L 170.773664 136.50344 
L 172.074884 125.38333 
L 172.725495 134.450864 
L 173.376105 136.058794 
L 174.026715 133.177311 
L 174.677326 133.383618 
L 175.327936 144.105603 
L 175.978546 144.436249 
L 176.629156 147.737701 
L 177.279767 140.829499 
L 177.930377 139.046106 
L 179.231598 146.846072 
L 179.882208 131.907974 
L 180.532818 132.268964 
L 181.183429 158.422351 
L 181.834039 144.38974 
L 182.484649 134.712029 
L 183.13526 130.324309 
L 183.78587 133.589331 
L 184.43648 130.675707 
L 185.087091 135.670978 
L 185.737701 128.540879 
L 186.388311 141.470382 
L 187.038921 128.702542 
L 187.689532 142.546571 
L 188.340142 134.609487 
L 188.990752 144.694098 
L 189.641363 129.586112 
L 190.291973 126.411711 
L 190.942583 143.773301 
L 191.593194 138.817763 
L 192.243804 124.993937 
L 192.894414 134.27862 
L 193.545025 138.665816 
L 194.195635 137.891275 
L 194.846245 120.772545 
L 195.496856 133.669516 
L 196.147466 134.355812 
L 196.798076 135.810301 
L 197.448686 134.647658 
L 198.099297 122.28303 
L 198.749907 140.375458 
L 199.400517 135.129204 
L 200.701738 158.135906 
L 201.352348 137.713839 
L 202.002959 141.315151 
L 202.653569 136.756628 
L 203.304179 131.24185 
L 203.95479 129.699482 
L 204.6054 131.123354 
L 205.25601 133.718917 
L 205.906621 125.397887 
L 206.557231 135.952141 
L 207.207841 140.259534 
L 207.858451 136.377144 
L 208.509062 134.823299 
L 209.159672 132.797244 
L 209.810282 138.739847 
L 210.460893 132.748695 
L 211.111503 139.160899 
L 211.762113 143.909768 
L 212.412724 125.960814 
L 213.063334 138.910291 
L 213.713944 132.040777 
L 214.364555 127.684899 
L 215.015165 124.852623 
L 215.665775 127.463573 
L 216.316385 135.754072 
L 216.966996 134.237852 
L 217.617606 149.590498 
L 218.268216 131.530628 
L 218.918827 136.361981 
L 219.569437 152.017601 
L 220.220047 132.031422 
L 220.870658 126.43713 
L 221.521268 143.547467 
L 222.171878 134.329991 
L 222.822489 136.47425 
L 224.123709 147.646113 
L 226.72615 121.129657 
L 227.376761 135.849687 
L 228.027371 146.671007 
L 228.677981 145.159307 
L 229.328592 132.861583 
L 229.979202 132.254857 
L 230.629812 141.46967 
L 231.280423 130.379238 
L 231.931033 133.829035 
L 232.581643 139.628591 
L 233.232254 131.017902 
L 235.184085 140.773434 
L 235.834695 142.150672 
L 236.485305 136.783527 
L 237.135915 123.921577 
L 237.786526 134.618065 
L 238.437136 140.211629 
L 239.087746 140.023742 
L 239.738357 140.455671 
L 240.388967 125.205358 
L 241.039577 134.367897 
L 241.690188 128.088047 
L 242.340798 127.471011 
L 242.991408 131.096088 
L 243.642019 139.639098 
L 244.292629 137.292508 
L 244.943239 126.818695 
L 245.59385 122.601399 
L 246.89507 135.495328 
L 247.54568 134.483628 
L 248.196291 136.896876 
L 248.846901 140.593827 
L 249.497511 117.664921 
L 250.148122 144.905042 
L 250.798732 138.910091 
L 251.449342 128.17784 
L 252.099953 140.810521 
L 252.750563 146.999269 
L 253.401173 135.857115 
L 254.051784 135.173691 
L 254.702394 130.914322 
L 255.353004 141.194547 
L 256.003615 131.54442 
L 256.654225 131.880355 
L 257.304835 126.080773 
L 257.955445 146.709508 
L 259.256666 136.09077 
L 259.907276 142.535098 
L 260.557887 126.99066 
L 261.208497 137.147945 
L 261.859107 116.643898 
L 262.509718 133.735194 
L 263.160328 131.826761 
L 263.810938 134.353132 
L 264.461549 127.61861 
L 265.112159 136.76575 
L 265.762769 134.032985 
L 266.413379 128.564685 
L 267.06399 131.410609 
L 267.7146 133.184603 
L 268.36521 139.412166 
L 269.015821 127.215949 
L 269.666431 137.786007 
L 270.317041 130.591363 
L 270.967652 126.406584 
L 271.618262 127.492817 
L 272.268872 146.18826 
L 272.919483 135.273243 
L 273.570093 129.939545 
L 274.220703 140.034837 
L 274.871314 136.586241 
L 275.521924 140.013623 
L 276.172534 144.5145 
L 276.823144 155.074178 
L 277.473755 132.662723 
L 278.124365 165.57257 
L 278.774975 139.041288 
L 279.425586 163.70453 
L 280.076196 146.229942 
L 281.377417 128.566288 
L 282.028027 146.728957 
L 282.678637 143.148282 
L 283.979858 129.117322 
L 284.630468 131.160819 
L 285.931689 141.724153 
L 286.582299 130.119846 
L 287.232909 139.859832 
L 287.88352 129.269558 
L 288.53413 133.536805 
L 289.18474 133.989258 
L 289.835351 131.386339 
L 290.485961 126.837865 
L 291.136571 130.451398 
L 291.787182 136.449941 
L 293.088402 142.177168 
L 293.739013 134.944524 
L 294.389623 145.73045 
L 295.040233 135.56942 
L 295.690844 157.419565 
L 296.341454 134.542339 
L 296.992064 151.131547 
L 297.642674 138.806377 
L 298.293285 128.747105 
L 298.943895 149.354654 
L 299.594505 141.820907 
L 300.245116 143.76625 
L 300.895726 134.185509 
L 301.546336 142.125176 
L 302.196947 134.107106 
L 302.847557 139.424582 
L 303.498167 142.631327 
L 304.148778 129.41462 
L 304.799388 133.356827 
L 305.449998 133.683571 
L 306.100608 140.967528 
L 306.751219 115.577037 
L 308.052439 138.882186 
L 308.70305 143.218479 
L 309.35366 132.860382 
L 310.00427 130.912822 
L 310.654881 133.189006 
L 311.305491 124.564168 
L 311.956101 126.690648 
L 312.606712 135.192572 
L 313.257322 134.862832 
L 313.907932 120.402155 
L 314.558543 126.517758 
L 315.209153 133.899028 
L 315.859763 135.052993 
L 316.510373 128.588354 
L 317.160984 130.243485 
L 317.811594 127.587745 
L 318.462204 134.724322 
L 319.112815 139.842177 
L 320.414035 133.275843 
L 321.064646 125.572329 
L 321.715256 121.436882 
L 322.365866 131.597978 
L 323.016477 131.732094 
L 323.667087 130.267555 
L 324.317697 132.275628 
L 324.968308 136.523947 
L 325.618918 130.972795 
L 326.269528 132.017936 
L 326.920138 127.117981 
L 327.570749 123.951528 
L 328.221359 123.041044 
L 328.871969 142.028508 
L 329.52258 129.328552 
L 330.17319 128.502198 
L 330.8238 140.217062 
L 331.474411 136.806353 
L 332.125021 126.387365 
L 332.775631 129.648362 
L 333.426242 127.321963 
L 334.076852 135.919243 
L 334.727462 128.75981 
L 335.378073 141.126102 
L 336.028683 121.42969 
L 336.679293 135.293445 
L 337.329903 140.270116 
L 337.980514 119.022082 
L 338.631124 124.514281 
L 339.281734 122.282975 
L 339.932345 125.988843 
L 341.233565 125.754725 
L 341.884176 113.825194 
L 342.534786 111.290811 
L 343.185396 119.451959 
L 343.836007 122.053519 
L 344.486617 120.294323 
L 345.137227 119.828961 
L 346.438448 138.944784 
L 347.089058 125.156797 
L 347.739668 121.59813 
L 348.390279 121.973862 
L 349.040889 112.20125 
L 349.691499 113.553534 
L 350.34211 124.508249 
L 350.99272 114.726303 
L 351.64333 113.329936 
L 352.293941 123.372035 
L 352.944551 127.868603 
L 353.595161 119.434633 
L 354.245772 120.065622 
L 354.896382 125.101794 
L 355.546992 135.67649 
L 356.197602 129.84373 
L 356.848213 128.383157 
L 357.498823 122.302573 
L 358.800044 127.07257 
L 359.450654 120.845934 
L 360.101264 121.233526 
L 360.751875 126.447822 
L 361.402485 119.126652 
L 362.053095 123.704407 
L 362.703706 109.551458 
L 363.354316 118.042393 
L 364.004926 121.78473 
L 364.655537 127.507412 
L 365.306147 106.286614 
L 365.956757 115.020071 
L 366.607367 127.918441 
L 367.257978 134.027078 
L 367.908588 131.011449 
L 368.559198 123.863269 
L 369.209809 127.592562 
L 369.860419 141.382154 
L 370.511029 128.669172 
L 371.16164 137.60993 
L 371.81225 140.979809 
L 372.46286 140.772358 
L 373.113471 131.190069 
L 373.764081 134.47212 
L 374.414691 129.65693 
L 375.065302 121.125845 
L 375.715912 118.746797 
L 376.366522 138.129003 
L 377.017132 131.492931 
L 377.667743 128.353852 
L 378.318353 113.577446 
L 378.968963 124.408052 
L 379.619574 127.66623 
L 380.270184 140.050423 
L 380.920794 139.327406 
L 381.571405 130.177919 
L 382.222015 129.368228 
L 382.872625 126.119993 
L 383.523236 120.859651 
L 384.173846 109.532298 
L 384.824456 115.874134 
L 385.475066 114.053123 
L 386.125677 127.80999 
L 386.776287 124.632966 
L 387.426897 117.872971 
L 388.077508 114.867531 
L 388.728118 118.182156 
L 389.378728 128.354749 
L 390.029339 120.006269 
L 390.679949 138.837783 
L 391.330559 144.692525 
L 391.98117 126.357713 
L 392.63178 121.456247 
L 393.28239 123.681768 
L 393.933001 123.885201 
L 394.583611 122.639728 
L 395.234221 131.528342 
L 395.884831 128.085257 
L 396.535442 125.964894 
L 397.186052 131.580041 
L 397.836662 127.087176 
L 398.487273 140.639315 
L 398.487273 140.639315 
" style="fill:none;stroke:#0000ff;stroke-linecap:square;stroke-width:1.5;"/>
   </g>
   <g id="line2d_24">
    <path clip-path="url(#p585965a34d)" d="M 73.832727 293.898509 
L 74.483338 295.488 
L 75.133948 244.09603 
L 75.784558 228.787974 
L 76.435169 231.414594 
L 77.085779 264.463427 
L 77.736389 213.281563 
L 78.386999 274.50358 
L 79.03761 262.843413 
L 79.68822 230.117666 
L 80.33883 261.683682 
L 80.989441 237.989433 
L 81.640051 221.919833 
L 82.290661 237.344609 
L 82.941272 230.966976 
L 83.591882 214.234987 
L 84.242492 191.912723 
L 84.893103 186.315584 
L 85.543713 203.310037 
L 86.194323 213.509085 
L 86.844934 203.007265 
L 87.495544 218.156979 
L 88.796764 177.686537 
L 89.447375 182.723695 
L 90.097985 203.334878 
L 90.748595 183.264155 
L 91.399206 183.169883 
L 92.049816 178.721832 
L 92.700426 189.09306 
L 93.351037 168.693683 
L 94.001647 174.855538 
L 94.652257 185.776568 
L 95.302868 174.881592 
L 95.953478 188.456962 
L 96.604088 182.009022 
L 97.254698 189.590295 
L 97.905309 171.957151 
L 98.555919 189.867409 
L 99.206529 190.870474 
L 99.85714 186.340365 
L 100.50775 226.758864 
L 101.15836 178.677644 
L 101.808971 189.766052 
L 102.459581 216.955805 
L 103.110191 192.291417 
L 103.760802 222.496366 
L 104.411412 207.213162 
L 105.062022 216.621401 
L 105.712633 195.51238 
L 106.363243 247.44346 
L 107.013853 206.887826 
L 107.664463 212.244503 
L 108.315074 209.171851 
L 108.965684 205.40753 
L 109.616294 191.278058 
L 110.266905 198.159336 
L 110.917515 185.862768 
L 111.568125 189.353144 
L 112.218736 220.738902 
L 112.869346 206.085196 
L 113.519956 187.759077 
L 114.170567 203.929109 
L 114.821177 200.800112 
L 115.471787 205.236108 
L 116.122398 192.225779 
L 116.773008 216.363309 
L 117.423618 206.715447 
L 118.074228 220.057273 
L 118.724839 189.918061 
L 119.375449 205.189629 
L 120.026059 200.948765 
L 120.67667 238.908521 
L 121.32728 202.597526 
L 121.97789 208.457121 
L 122.628501 210.656789 
L 123.279111 198.078152 
L 123.929721 198.124649 
L 124.580332 205.563088 
L 125.230942 197.786339 
L 125.881552 213.864347 
L 126.532163 206.421984 
L 127.182773 212.304295 
L 127.833383 199.498826 
L 128.483993 207.668178 
L 129.134604 191.646964 
L 129.785214 180.727588 
L 130.435824 211.397556 
L 131.086435 189.663386 
L 131.737045 184.893446 
L 132.387655 181.817943 
L 133.038266 189.994542 
L 133.688876 212.222247 
L 134.339486 201.901762 
L 134.990097 199.639976 
L 135.640707 197.869819 
L 136.291317 206.336591 
L 136.941927 195.53527 
L 137.592538 199.518174 
L 138.243148 206.423102 
L 138.893758 192.35691 
L 139.544369 212.145172 
L 140.194979 208.68643 
L 140.845589 203.280428 
L 141.4962 210.198277 
L 142.14681 231.654967 
L 142.79742 216.821403 
L 143.448031 226.128134 
L 144.098641 208.833675 
L 144.749251 215.989171 
L 145.399862 215.241421 
L 146.050472 195.77907 
L 146.701082 186.108314 
L 147.351692 194.248977 
L 148.002303 174.204088 
L 148.652913 172.479501 
L 149.303523 194.584315 
L 149.954134 170.549706 
L 150.604744 201.117991 
L 151.255354 192.431418 
L 151.905965 189.852388 
L 152.556575 208.19275 
L 153.207185 187.71655 
L 153.857796 196.046296 
L 154.508406 177.565274 
L 155.159016 214.294958 
L 155.809627 187.788332 
L 156.460237 183.80232 
L 157.110847 215.623174 
L 157.761457 199.245237 
L 158.412068 213.712615 
L 159.062678 198.868901 
L 159.713288 200.333934 
L 160.363899 202.918371 
L 161.014509 197.2327 
L 161.665119 197.049989 
L 162.31573 203.0345 
L 162.96634 239.202175 
L 163.61695 194.621034 
L 164.267561 209.290739 
L 164.918171 204.546942 
L 165.568781 193.5272 
L 166.219392 195.531837 
L 166.870002 200.95809 
L 167.520612 190.767372 
L 168.171222 199.556846 
L 168.821833 193.528945 
L 169.472443 191.693201 
L 170.123053 230.981732 
L 170.773664 199.826409 
L 171.424274 187.114597 
L 172.074884 179.52271 
L 172.725495 194.5705 
L 173.376105 190.950502 
L 174.026715 186.430993 
L 175.327936 203.108108 
L 175.978546 218.142498 
L 176.629156 207.42749 
L 177.930377 201.027146 
L 178.580987 204.671094 
L 179.231598 210.627313 
L 179.882208 191.721864 
L 180.532818 195.35514 
L 181.183429 219.757467 
L 181.834039 206.02357 
L 182.484649 195.240964 
L 183.13526 187.158993 
L 183.78587 188.088988 
L 184.43648 178.670886 
L 185.087091 192.519923 
L 185.737701 189.331503 
L 186.388311 200.836438 
L 187.038921 182.667306 
L 187.689532 207.206659 
L 188.340142 186.912036 
L 188.990752 208.891792 
L 189.641363 191.255473 
L 190.291973 176.639517 
L 190.942583 208.584787 
L 191.593194 206.417701 
L 192.243804 178.02661 
L 192.894414 189.62948 
L 193.545025 208.075125 
L 194.195635 194.520899 
L 194.846245 173.714859 
L 195.496856 189.082512 
L 196.147466 200.541005 
L 196.798076 195.405968 
L 197.448686 193.435162 
L 198.099297 174.825645 
L 198.749907 198.955894 
L 199.400517 195.664352 
L 200.051128 198.577702 
L 200.701738 218.191416 
L 201.352348 199.446332 
L 202.002959 196.0894 
L 202.653569 203.174561 
L 203.304179 182.810815 
L 203.95479 184.057877 
L 204.6054 194.650398 
L 205.25601 195.170455 
L 205.906621 173.350455 
L 206.557231 197.677593 
L 207.207841 201.962484 
L 207.858451 200.600296 
L 208.509062 188.465093 
L 209.159672 189.616563 
L 209.810282 208.49606 
L 210.460893 195.840211 
L 211.111503 214.627116 
L 211.762113 205.828863 
L 212.412724 179.697727 
L 213.063334 200.437401 
L 213.713944 186.648239 
L 214.364555 180.910029 
L 215.015165 184.416575 
L 215.665775 189.886606 
L 216.316385 200.506921 
L 216.966996 204.574503 
L 217.617606 213.951281 
L 218.268216 196.265592 
L 218.918827 201.005961 
L 219.569437 214.096862 
L 220.220047 184.757253 
L 220.870658 185.169225 
L 221.521268 201.562081 
L 222.171878 197.608928 
L 222.822489 201.7213 
L 223.473099 199.806676 
L 224.123709 214.74452 
L 225.42493 192.852231 
L 226.07554 184.646894 
L 226.72615 178.471364 
L 227.376761 208.994797 
L 228.027371 213.473631 
L 228.677981 211.926945 
L 229.328592 190.461897 
L 229.979202 188.669055 
L 230.629812 209.686216 
L 231.280423 187.000924 
L 231.931033 192.579735 
L 232.581643 201.149429 
L 233.232254 188.884616 
L 233.882864 188.869319 
L 234.533474 198.928784 
L 235.834695 206.889501 
L 236.485305 198.759348 
L 237.135915 181.970541 
L 237.786526 184.570071 
L 238.437136 194.83144 
L 239.087746 192.690095 
L 239.738357 198.636228 
L 240.388967 184.878047 
L 241.039577 189.839866 
L 241.690188 181.456214 
L 242.340798 186.0475 
L 242.991408 200.816248 
L 243.642019 203.103851 
L 244.292629 195.386757 
L 244.943239 183.507656 
L 245.59385 173.892322 
L 246.89507 199.037999 
L 247.54568 195.794248 
L 248.196291 194.752974 
L 248.846901 212.387626 
L 249.497511 174.215417 
L 250.148122 211.292297 
L 250.798732 191.430985 
L 251.449342 183.521174 
L 252.750563 224.8204 
L 253.401173 190.856702 
L 254.051784 192.961804 
L 254.702394 187.513367 
L 255.353004 195.535138 
L 256.003615 186.758652 
L 256.654225 192.801568 
L 257.304835 178.879652 
L 257.955445 222.168141 
L 258.606056 205.638569 
L 259.256666 196.637199 
L 259.907276 201.253978 
L 260.557887 179.168164 
L 261.208497 197.794969 
L 261.859107 169.875493 
L 262.509718 195.640634 
L 263.160328 185.250345 
L 263.810938 193.694569 
L 264.461549 185.137989 
L 265.112159 200.415877 
L 265.762769 196.221989 
L 266.413379 182.419125 
L 267.06399 193.885573 
L 267.7146 183.605677 
L 268.36521 200.318989 
L 269.015821 189.011161 
L 269.666431 197.012681 
L 270.317041 192.40208 
L 270.967652 178.770425 
L 271.618262 182.748551 
L 272.268872 213.216923 
L 272.919483 194.783827 
L 273.570093 189.459755 
L 274.220703 198.692384 
L 274.871314 195.558973 
L 275.521924 190.871665 
L 276.823144 221.000698 
L 277.473755 193.645339 
L 278.124365 225.42189 
L 278.774975 205.629146 
L 279.425586 217.781192 
L 280.076196 202.800679 
L 280.726806 190.806091 
L 281.377417 174.593742 
L 282.028027 213.344657 
L 282.678637 196.891365 
L 283.329248 190.952209 
L 283.979858 183.206464 
L 284.630468 187.332677 
L 285.931689 208.076489 
L 286.582299 182.710587 
L 287.232909 205.548004 
L 287.88352 187.86441 
L 288.53413 182.84122 
L 289.18474 190.229322 
L 289.835351 189.094325 
L 290.485961 184.641677 
L 291.136571 193.227191 
L 291.787182 192.241923 
L 292.437792 201.90885 
L 293.088402 215.646499 
L 293.739013 195.033894 
L 294.389623 204.974163 
L 295.040233 199.662385 
L 295.690844 210.040019 
L 296.341454 194.109685 
L 296.992064 209.210538 
L 297.642674 197.258581 
L 298.293285 190.26559 
L 298.943895 212.58914 
L 299.594505 195.246474 
L 300.245116 205.889541 
L 300.895726 199.229687 
L 301.546336 204.239691 
L 302.196947 204.533354 
L 302.847557 196.094956 
L 303.498167 208.307934 
L 304.148778 188.224395 
L 304.799388 195.516186 
L 306.100608 204.660068 
L 306.751219 171.659795 
L 307.401829 172.933313 
L 308.052439 209.231305 
L 308.70305 198.93567 
L 309.35366 184.366656 
L 310.00427 188.414627 
L 310.654881 188.700995 
L 311.305491 178.12266 
L 311.956101 178.337561 
L 312.606712 197.586573 
L 313.257322 195.609407 
L 313.907932 180.944754 
L 314.558543 186.91908 
L 315.209153 194.342537 
L 315.859763 188.871117 
L 316.510373 186.08803 
L 317.160984 179.415634 
L 317.811594 184.850693 
L 318.462204 186.890308 
L 319.112815 200.211001 
L 320.414035 191.625049 
L 321.064646 183.474299 
L 321.715256 172.362374 
L 322.365866 190.321183 
L 323.016477 187.718777 
L 323.667087 191.878671 
L 324.968308 196.503611 
L 325.618918 191.378793 
L 326.269528 189.300291 
L 326.920138 185.89116 
L 327.570749 177.519369 
L 328.221359 173.351893 
L 328.871969 196.91992 
L 329.52258 186.829751 
L 330.17319 179.042589 
L 330.8238 201.72391 
L 331.474411 198.824441 
L 332.125021 184.723035 
L 332.775631 184.794297 
L 333.426242 187.537165 
L 334.076852 204.125296 
L 334.727462 188.525467 
L 335.378073 203.25314 
L 336.028683 176.550655 
L 336.679293 201.373675 
L 337.329903 207.5481 
L 337.980514 174.032883 
L 338.631124 184.815213 
L 339.281734 178.743297 
L 339.932345 186.420855 
L 340.582955 191.257084 
L 341.884176 165.301987 
L 342.534786 162.336114 
L 343.185396 173.262975 
L 344.486617 184.374759 
L 345.137227 173.958635 
L 345.787837 190.870501 
L 346.438448 200.699716 
L 347.089058 180.89545 
L 347.739668 180.538519 
L 348.390279 177.975361 
L 349.040889 161.388908 
L 349.691499 162.333212 
L 350.34211 188.651858 
L 350.99272 169.715548 
L 351.64333 162.26136 
L 352.293941 172.364107 
L 352.944551 187.972112 
L 353.595161 169.931681 
L 354.245772 170.414734 
L 354.896382 188.594377 
L 355.546992 198.430423 
L 356.197602 189.1203 
L 357.498823 180.36865 
L 358.149433 185.830374 
L 358.800044 192.815564 
L 359.450654 175.290183 
L 360.101264 174.819508 
L 360.751875 184.684885 
L 361.402485 176.541443 
L 362.053095 184.589166 
L 362.703706 158.61358 
L 364.004926 175.566204 
L 364.655537 188.611879 
L 365.306147 152.045051 
L 365.956757 172.625181 
L 366.607367 183.540294 
L 367.257978 199.077824 
L 367.908588 197.88525 
L 368.559198 180.372997 
L 369.209809 191.593998 
L 369.860419 208.126666 
L 370.511029 183.168897 
L 371.16164 199.863583 
L 371.81225 205.140759 
L 372.46286 209.23424 
L 373.113471 193.63492 
L 373.764081 192.266742 
L 374.414691 192.692493 
L 375.065302 169.888839 
L 375.715912 178.692412 
L 376.366522 198.214631 
L 377.017132 187.952372 
L 377.667743 193.624385 
L 378.318353 169.327012 
L 378.968963 190.086084 
L 379.619574 183.619531 
L 380.270184 202.708892 
L 380.920794 214.242223 
L 381.571405 179.491068 
L 382.222015 196.082214 
L 382.872625 187.387573 
L 383.523236 171.823358 
L 384.173846 165.496595 
L 384.824456 170.396354 
L 385.475066 169.866957 
L 386.125677 188.825317 
L 386.776287 184.929988 
L 387.426897 170.812309 
L 388.077508 165.327906 
L 388.728118 167.246959 
L 389.378728 190.890709 
L 390.029339 176.288518 
L 390.679949 198.78142 
L 391.330559 214.545425 
L 391.98117 189.724432 
L 393.28239 176.043813 
L 393.933001 180.277753 
L 394.583611 181.072086 
L 395.234221 191.366191 
L 395.884831 188.363192 
L 396.535442 191.834272 
L 397.186052 188.48964 
L 397.836662 179.800753 
L 398.487273 204.319005 
L 398.487273 204.319005 
" style="fill:none;stroke:#008000;stroke-dasharray:9.6,2.4,1.5,2.4;stroke-dashoffset:0;stroke-width:1.5;"/>
   </g>
   <g id="line2d_25">
    <path clip-path="url(#p585965a34d)" d="M 73.832727 163.391718 
L 74.483338 175.996118 
L 75.133948 164.017405 
L 75.784558 139.708166 
L 76.435169 132.025854 
L 77.085779 133.618382 
L 77.736389 85.293857 
L 78.386999 162.916504 
L 79.03761 150.776651 
L 79.68822 129.935032 
L 80.33883 137.655037 
L 81.640051 97.704571 
L 82.290661 99.288906 
L 82.941272 115.916843 
L 84.242492 81.447553 
L 84.893103 69.770014 
L 85.543713 102.297083 
L 86.194323 92.457856 
L 86.844934 91.402651 
L 87.495544 84.134108 
L 88.146154 78.159926 
L 88.796764 85.499982 
L 89.447375 85.197864 
L 90.748595 73.602217 
L 91.399206 74.641782 
L 92.049816 73.882811 
L 92.700426 77.186578 
L 93.351037 70.837263 
L 94.001647 73.373397 
L 94.652257 69.896143 
L 95.302868 71.245427 
L 95.953478 65.601587 
L 96.604088 70.764613 
L 97.254698 66.975588 
L 97.905309 76.339322 
L 98.555919 73.48658 
L 99.206529 78.469997 
L 99.85714 71.118955 
L 100.50775 80.684997 
L 101.15836 79.675591 
L 101.808971 69.661589 
L 102.459581 90.600175 
L 103.110191 69.575463 
L 103.760802 91.87762 
L 104.411412 87.475263 
L 105.062022 87.111088 
L 105.712633 78.911305 
L 106.363243 92.82081 
L 107.013853 85.508453 
L 107.664463 80.01153 
L 108.315074 92.976889 
L 108.965684 85.403956 
L 109.616294 84.373537 
L 110.266905 82.226195 
L 111.568125 72.769248 
L 112.218736 90.398101 
L 112.869346 89.887081 
L 113.519956 75.042009 
L 114.170567 78.069126 
L 114.821177 91.923965 
L 116.122398 74.248068 
L 116.773008 86.41782 
L 117.423618 91.209103 
L 118.074228 94.037633 
L 118.724839 82.84586 
L 119.375449 89.669455 
L 120.026059 77.529389 
L 120.67667 101.202649 
L 121.32728 102.702338 
L 121.97789 85.552132 
L 122.628501 88.029923 
L 123.279111 83.396105 
L 123.929721 85.622464 
L 124.580332 82.268612 
L 125.230942 75.436371 
L 125.881552 102.129162 
L 126.532163 77.616278 
L 127.182773 81.818009 
L 127.833383 78.429724 
L 128.483993 92.209288 
L 129.134604 83.640072 
L 129.785214 72.656736 
L 130.435824 84.899383 
L 131.086435 81.944253 
L 131.737045 73.349331 
L 132.387655 83.121519 
L 133.038266 64.409083 
L 133.688876 105.320693 
L 134.339486 75.921846 
L 134.990097 90.97824 
L 135.640707 76.655357 
L 136.291317 82.511879 
L 136.941927 79.374172 
L 137.592538 73.60096 
L 138.243148 63.446002 
L 138.893758 73.50127 
L 139.544369 92.025441 
L 140.194979 77.275199 
L 140.845589 82.01443 
L 141.4962 73.298221 
L 142.14681 98.42021 
L 142.79742 76.75591 
L 143.448031 80.504284 
L 144.098641 92.54889 
L 144.749251 81.601615 
L 145.399862 91.895137 
L 146.701082 73.619124 
L 147.351692 76.822553 
L 148.002303 70.814883 
L 148.652913 63.24107 
L 149.303523 68.521932 
L 149.954134 66.478208 
L 150.604744 72.322391 
L 151.255354 85.811405 
L 151.905965 69.207725 
L 152.556575 84.356514 
L 153.207185 71.019265 
L 153.857796 90.838466 
L 154.508406 76.625847 
L 155.159016 78.190796 
L 155.809627 74.597825 
L 157.110847 72.176334 
L 157.761457 73.126246 
L 158.412068 62.03074 
L 159.062678 74.315772 
L 159.713288 76.848495 
L 160.363899 81.216615 
L 161.014509 80.250294 
L 161.665119 78.75813 
L 162.31573 79.06708 
L 162.96634 96.328424 
L 163.61695 76.091996 
L 164.267561 82.077137 
L 164.918171 74.172973 
L 165.568781 78.378776 
L 166.219392 74.380703 
L 166.870002 74.427974 
L 167.520612 65.4569 
L 168.171222 71.125034 
L 168.821833 82.09798 
L 169.472443 75.465549 
L 170.123053 90.321477 
L 170.773664 73.180471 
L 171.424274 74.964511 
L 172.074884 71.24395 
L 172.725495 74.331227 
L 173.376105 81.167085 
L 174.026715 79.923629 
L 174.677326 72.346945 
L 175.327936 85.103098 
L 175.978546 70.73 
L 176.629156 88.047912 
L 177.279767 77.456681 
L 177.930377 77.065066 
L 178.580987 80.60498 
L 179.231598 83.064831 
L 179.882208 72.094084 
L 180.532818 69.182787 
L 181.183429 97.087234 
L 181.834039 82.75591 
L 182.484649 74.183093 
L 183.13526 73.489624 
L 183.78587 79.089674 
L 184.43648 82.680527 
L 185.087091 78.822033 
L 185.737701 67.750255 
L 186.388311 82.104326 
L 187.038921 74.737778 
L 187.689532 77.886483 
L 188.340142 82.306939 
L 188.990752 80.496405 
L 189.641363 67.916751 
L 190.291973 76.183906 
L 190.942583 78.961815 
L 191.593194 71.217826 
L 192.243804 71.961263 
L 192.894414 78.92776 
L 193.545025 69.256508 
L 194.195635 81.26165 
L 194.846245 67.830231 
L 195.496856 78.256521 
L 196.147466 68.170618 
L 196.798076 76.214633 
L 197.448686 75.860153 
L 198.099297 69.740414 
L 198.749907 81.795021 
L 199.400517 74.594056 
L 200.051128 93.24622 
L 200.701738 98.080395 
L 201.352348 75.981345 
L 202.002959 86.540901 
L 202.653569 70.338695 
L 203.304179 79.672886 
L 203.95479 75.341086 
L 204.6054 67.596309 
L 205.906621 77.445319 
L 206.557231 74.226689 
L 207.207841 78.556583 
L 207.858451 72.153992 
L 208.509062 81.181505 
L 209.159672 75.977926 
L 209.810282 68.983633 
L 210.460893 69.65718 
L 211.111503 63.694683 
L 211.762113 81.990673 
L 212.412724 72.2239 
L 213.063334 77.383181 
L 213.713944 77.433316 
L 214.364555 74.459768 
L 215.015165 65.288671 
L 215.665775 65.040539 
L 216.316385 71.001223 
L 216.966996 63.901202 
L 217.617606 85.229714 
L 218.268216 66.795665 
L 218.918827 71.718001 
L 219.569437 89.938339 
L 220.870658 67.705036 
L 221.521268 85.532852 
L 222.171878 71.051055 
L 222.822489 71.2272 
L 223.473099 83.467214 
L 224.77432 78.022129 
L 225.42493 77.495253 
L 226.07554 72.139628 
L 226.72615 63.787949 
L 227.376761 62.704576 
L 228.027371 79.868384 
L 228.677981 78.391669 
L 229.328592 75.261268 
L 229.979202 75.840659 
L 230.629812 73.253124 
L 231.280423 73.757551 
L 231.931033 75.078336 
L 232.581643 78.107753 
L 233.232254 73.151189 
L 233.882864 79.979753 
L 234.533474 77.336822 
L 235.184085 78.390658 
L 235.834695 77.411844 
L 236.485305 74.807706 
L 237.135915 65.872613 
L 237.786526 84.666058 
L 238.437136 85.591819 
L 239.087746 87.35739 
L 239.738357 82.275115 
L 240.388967 65.532669 
L 241.039577 78.895927 
L 241.690188 74.71988 
L 242.340798 68.894521 
L 242.991408 61.375928 
L 243.642019 76.174344 
L 244.292629 79.198259 
L 244.943239 70.129734 
L 246.24446 72.407354 
L 246.89507 71.952657 
L 247.54568 73.173009 
L 248.196291 79.040778 
L 248.846901 68.800028 
L 249.497511 61.114425 
L 250.148122 78.517787 
L 250.798732 86.389198 
L 251.449342 72.834506 
L 252.099953 76.20411 
L 252.750563 69.178138 
L 253.401173 80.857527 
L 254.702394 74.315276 
L 255.353004 86.853956 
L 256.003615 76.330189 
L 256.654225 70.959142 
L 257.304835 73.281893 
L 257.955445 71.250876 
L 258.606056 77.312715 
L 259.256666 75.544341 
L 259.907276 83.816218 
L 260.557887 74.813156 
L 261.208497 76.500921 
L 261.859107 63.412304 
L 262.509718 71.829755 
L 263.160328 78.403177 
L 263.810938 75.011694 
L 264.461549 70.09923 
L 265.112159 73.115624 
L 265.762769 71.843982 
L 266.413379 74.710245 
L 267.06399 68.935645 
L 267.7146 82.763528 
L 268.36521 78.505343 
L 269.015821 65.420737 
L 269.666431 78.559333 
L 270.317041 68.780647 
L 270.967652 74.042744 
L 271.618262 72.237083 
L 272.268872 79.159597 
L 272.919483 75.762659 
L 273.570093 70.419335 
L 274.220703 81.377291 
L 274.871314 77.613509 
L 275.521924 89.155581 
L 276.172534 81.99902 
L 276.823144 89.147658 
L 277.473755 71.680106 
L 278.124365 105.723251 
L 278.774975 72.45343 
L 279.425586 109.627868 
L 280.076196 89.659204 
L 280.726806 83.666164 
L 281.377417 82.538833 
L 282.028027 80.113257 
L 282.678637 89.405199 
L 283.329248 81.515223 
L 283.979858 75.02818 
L 284.630468 74.98896 
L 285.281079 75.459954 
L 285.931689 75.371818 
L 286.582299 77.529105 
L 287.88352 70.674706 
L 288.53413 84.23239 
L 289.18474 77.749194 
L 290.485961 69.034053 
L 291.136571 67.675606 
L 291.787182 80.657959 
L 292.437792 76.779938 
L 293.088402 68.707838 
L 293.739013 74.855154 
L 294.389623 86.486737 
L 295.040233 71.476456 
L 295.690844 104.799112 
L 296.341454 74.974993 
L 296.992064 93.052557 
L 298.293285 67.22862 
L 298.943895 86.120168 
L 299.594505 88.39534 
L 300.245116 81.642959 
L 300.895726 69.141331 
L 301.546336 80.010661 
L 302.196947 63.680859 
L 302.847557 82.754208 
L 304.148778 70.604845 
L 304.799388 71.197467 
L 305.449998 67.001071 
L 306.100608 77.274989 
L 306.751219 59.494279 
L 307.401829 82.375926 
L 308.052439 68.533066 
L 308.70305 87.501288 
L 309.35366 81.354107 
L 310.00427 73.411018 
L 310.654881 77.677018 
L 311.305491 71.005676 
L 311.956101 75.043734 
L 312.606712 72.798572 
L 313.257322 74.116257 
L 313.907932 59.859556 
L 314.558543 66.116435 
L 315.859763 81.234869 
L 316.510373 71.088678 
L 317.160984 81.071337 
L 317.811594 70.324797 
L 318.462204 82.558336 
L 319.763425 76.488314 
L 320.414035 74.926637 
L 321.064646 67.67036 
L 323.016477 75.74541 
L 323.667087 68.656439 
L 324.317697 70.194516 
L 324.968308 76.544282 
L 325.618918 70.566797 
L 326.269528 74.735581 
L 326.920138 68.344802 
L 328.221359 72.730196 
L 328.871969 87.137097 
L 329.52258 71.827352 
L 330.17319 77.961807 
L 330.8238 78.710215 
L 331.474411 74.788265 
L 332.125021 68.051695 
L 332.775631 74.502428 
L 333.426242 67.106761 
L 334.076852 67.71319 
L 334.727462 68.994153 
L 335.378073 78.999065 
L 336.028683 66.308725 
L 336.679293 69.213216 
L 337.329903 72.992131 
L 337.980514 64.01128 
L 338.631124 64.213349 
L 339.281734 65.822653 
L 339.932345 65.556832 
L 340.582955 60.375261 
L 341.233565 73.093013 
L 341.884176 62.348401 
L 342.534786 60.245508 
L 343.185396 65.640943 
L 343.836007 65.087834 
L 344.486617 56.213888 
L 345.137227 65.699288 
L 345.787837 67.543045 
L 346.438448 77.189852 
L 347.739668 62.657742 
L 348.390279 65.972362 
L 349.040889 63.013592 
L 349.691499 64.773856 
L 350.34211 60.364641 
L 350.99272 59.737058 
L 351.64333 64.398513 
L 352.293941 74.379962 
L 352.944551 67.765095 
L 353.595161 68.937584 
L 354.245772 69.716509 
L 354.896382 61.609211 
L 355.546992 72.922557 
L 356.197602 70.56716 
L 356.848213 71.823993 
L 357.498823 64.236496 
L 358.149433 63.869482 
L 358.800044 61.329575 
L 359.450654 66.401686 
L 360.101264 67.647545 
L 360.751875 68.210759 
L 361.402485 61.711861 
L 362.053095 62.819647 
L 362.703706 60.489337 
L 363.354316 68.771396 
L 364.004926 68.003256 
L 364.655537 66.402945 
L 365.306147 60.528177 
L 365.956757 57.414961 
L 366.607367 72.296587 
L 367.257978 68.976331 
L 367.908588 64.137648 
L 368.559198 67.353541 
L 369.209809 63.591125 
L 369.860419 74.637642 
L 370.511029 74.169446 
L 371.16164 75.356277 
L 371.81225 76.818858 
L 372.46286 72.310476 
L 373.113471 68.745217 
L 373.764081 76.677497 
L 374.414691 66.621368 
L 375.065302 72.362851 
L 375.715912 58.801182 
L 376.366522 78.043374 
L 377.017132 75.033489 
L 377.667743 63.08332 
L 378.318353 57.827881 
L 378.968963 58.730019 
L 379.619574 71.712929 
L 380.270184 77.391955 
L 380.920794 64.412589 
L 381.571405 80.86477 
L 382.222015 62.654242 
L 382.872625 64.852413 
L 383.523236 69.895945 
L 384.173846 53.568 
L 384.824456 61.351914 
L 385.475066 58.239289 
L 386.125677 66.794662 
L 386.776287 64.335944 
L 387.426897 64.933633 
L 388.077508 64.407157 
L 388.728118 69.117354 
L 389.378728 65.818789 
L 390.029339 63.72402 
L 390.679949 78.894146 
L 391.330559 74.839625 
L 391.98117 62.990994 
L 392.63178 60.516396 
L 393.28239 71.319722 
L 394.583611 64.207369 
L 395.234221 71.690493 
L 395.884831 67.807322 
L 396.535442 60.095515 
L 397.186052 74.670441 
L 397.836662 74.3736 
L 398.487273 76.959625 
L 398.487273 76.959625 
" style="fill:none;stroke:#008000;stroke-dasharray:9.6,2.4,1.5,2.4;stroke-dashoffset:0;stroke-width:1.5;"/>
   </g>
   <g id="line2d_26">
    <path clip-path="url(#p585965a34d)" d="M 73.832727 91.494929 
L 74.483338 121.481448 
L 75.133948 84.595287 
L 75.784558 89.851633 
L 76.435169 89.624693 
L 77.085779 78.172811 
L 77.736389 77.353975 
L 78.386999 113.231561 
L 79.03761 95.632056 
L 79.68822 83.575021 
L 80.33883 86.678402 
L 80.989441 81.17296 
L 81.640051 77.216632 
L 82.941272 79.065518 
L 83.591882 77.859445 
L 84.242492 77.393288 
L 84.893103 75.918597 
L 85.543713 77.843366 
L 86.844934 76.003145 
L 87.495544 77.025685 
L 88.146154 75.903128 
L 88.796764 76.370177 
L 89.447375 77.980128 
L 90.097985 75.559391 
L 90.748595 75.738026 
L 91.399206 76.217231 
L 92.049816 75.47191 
L 92.700426 76.302349 
L 93.351037 75.78564 
L 94.001647 77.181982 
L 94.652257 76.783153 
L 95.302868 76.169331 
L 96.604088 75.890126 
L 97.254698 75.866113 
L 97.905309 76.848233 
L 98.555919 76.078929 
L 99.206529 76.274435 
L 99.85714 75.658822 
L 100.50775 76.775609 
L 101.15836 77.076349 
L 101.808971 75.826699 
L 102.459581 76.843673 
L 103.110191 75.538455 
L 103.760802 75.516872 
L 104.411412 76.821777 
L 105.062022 76.643672 
L 105.712633 75.739451 
L 107.013853 75.461609 
L 107.664463 75.625086 
L 108.315074 76.116894 
L 108.965684 75.388373 
L 109.616294 76.010842 
L 110.266905 75.910379 
L 110.917515 75.304252 
L 111.568125 75.989134 
L 112.218736 76.497772 
L 112.869346 76.498121 
L 113.519956 75.631958 
L 114.170567 75.741703 
L 114.821177 76.263709 
L 115.471787 76.408096 
L 116.122398 75.915102 
L 117.423618 76.527667 
L 118.074228 75.94666 
L 118.724839 76.768787 
L 119.375449 76.696706 
L 120.026059 75.590613 
L 120.67667 76.191967 
L 121.32728 76.349153 
L 121.97789 76.645105 
L 122.628501 76.071855 
L 123.279111 76.057223 
L 123.929721 75.691704 
L 124.580332 76.076737 
L 125.230942 75.15964 
L 125.881552 78.603876 
L 126.532163 75.559848 
L 127.182773 76.14956 
L 127.833383 75.741557 
L 128.483993 76.777361 
L 129.134604 75.777363 
L 129.785214 75.701779 
L 130.435824 75.999451 
L 131.086435 75.661259 
L 132.387655 75.550069 
L 133.038266 75.047519 
L 134.339486 75.489725 
L 135.640707 76.786211 
L 136.291317 77.111712 
L 136.941927 76.131767 
L 137.592538 75.710533 
L 138.243148 76.574966 
L 138.893758 77.009885 
L 139.544369 76.214887 
L 140.194979 76.458069 
L 140.845589 76.049312 
L 141.4962 75.470279 
L 142.14681 76.527795 
L 142.79742 75.808355 
L 143.448031 75.861989 
L 144.098641 77.390697 
L 144.749251 76.971838 
L 145.399862 75.668147 
L 146.050472 75.371048 
L 146.701082 75.351811 
L 147.351692 75.650795 
L 148.002303 75.772874 
L 148.652913 76.145043 
L 149.303523 75.529519 
L 149.954134 75.593765 
L 150.604744 75.195537 
L 151.255354 75.686177 
L 151.905965 75.154398 
L 152.556575 76.425553 
L 153.207185 75.405612 
L 153.857796 76.647886 
L 154.508406 76.355021 
L 155.159016 75.449387 
L 155.809627 75.398684 
L 156.460237 75.718103 
L 157.110847 75.437472 
L 158.412068 75.326814 
L 159.062678 75.553616 
L 159.713288 75.297069 
L 160.363899 75.754001 
L 161.014509 75.738495 
L 161.665119 75.276852 
L 162.31573 75.361905 
L 162.96634 75.318366 
L 163.61695 75.691184 
L 164.267561 75.236112 
L 164.918171 75.120352 
L 165.568781 75.127407 
L 166.870002 75.504886 
L 167.520612 76.405938 
L 168.171222 75.738674 
L 168.821833 75.357045 
L 170.123053 75.409334 
L 172.074884 75.144174 
L 172.725495 75.622156 
L 174.677326 75.442847 
L 175.327936 75.096543 
L 175.978546 75.587859 
L 176.629156 75.382093 
L 177.279767 76.037295 
L 177.930377 75.323319 
L 178.580987 76.093931 
L 179.231598 75.196237 
L 179.882208 75.575155 
L 180.532818 75.219491 
L 181.834039 75.381477 
L 184.43648 75.261335 
L 185.087091 75.411338 
L 185.737701 75.23671 
L 186.388311 75.388715 
L 187.038921 75.399312 
L 188.340142 75.192859 
L 188.990752 75.162353 
L 189.641363 75.621309 
L 190.291973 75.545126 
L 190.942583 75.596111 
L 191.593194 75.079734 
L 192.243804 75.558784 
L 192.894414 75.617475 
L 193.545025 75.311312 
L 194.195635 75.1473 
L 194.846245 75.564185 
L 195.496856 75.510544 
L 196.147466 75.293384 
L 196.798076 75.493948 
L 197.448686 75.497963 
L 198.099297 75.127423 
L 198.749907 75.07653 
L 199.400517 75.582134 
L 200.051128 75.148436 
L 200.701738 75.397388 
L 201.352348 75.107424 
L 202.002959 75.146907 
L 202.653569 75.556881 
L 203.304179 75.241427 
L 203.95479 75.155092 
L 204.6054 75.393149 
L 205.25601 75.048596 
L 206.557231 75.402998 
L 207.207841 75.142848 
L 207.858451 75.390265 
L 208.509062 75.199692 
L 209.159672 76.285374 
L 209.810282 75.238129 
L 210.460893 75.240879 
L 211.111503 76.272758 
L 211.762113 75.350659 
L 212.412724 75.725476 
L 213.063334 75.920857 
L 213.713944 75.261405 
L 214.364555 75.090489 
L 215.015165 75.829021 
L 215.665775 76.081192 
L 216.316385 75.43515 
L 216.966996 75.391415 
L 217.617606 75.498668 
L 218.268216 75.232293 
L 218.918827 75.414947 
L 220.220047 75.473255 
L 220.870658 75.078515 
L 221.521268 75.907252 
L 222.171878 76.022268 
L 222.822489 75.349864 
L 223.473099 75.337009 
L 224.123709 75.118112 
L 224.77432 75.995894 
L 225.42493 75.50554 
L 226.72615 75.125538 
L 228.027371 75.634384 
L 229.979202 75.141841 
L 232.581643 75.130589 
L 233.232254 75.914843 
L 233.882864 75.157806 
L 234.533474 75.192467 
L 235.184085 75.729097 
L 235.834695 75.133713 
L 236.485305 75.954329 
L 237.135915 75.058484 
L 237.786526 75.995442 
L 238.437136 75.589978 
L 240.388967 75.157158 
L 241.039577 75.671185 
L 241.690188 75.475106 
L 242.340798 75.896699 
L 242.991408 75.093048 
L 243.642019 75.751332 
L 244.292629 76.190486 
L 244.943239 75.402011 
L 245.59385 75.267233 
L 246.24446 76.370872 
L 246.89507 75.29304 
L 247.54568 75.930683 
L 248.196291 75.476736 
L 248.846901 75.295378 
L 249.497511 75.79804 
L 250.148122 75.20566 
L 250.798732 76.227638 
L 251.449342 75.16508 
L 252.099953 75.781773 
L 252.750563 75.291784 
L 253.401173 75.220901 
L 254.051784 75.918823 
L 254.702394 75.095043 
L 255.353004 75.35701 
L 256.003615 75.192147 
L 256.654225 76.51303 
L 257.304835 75.164477 
L 257.955445 75.865931 
L 258.606056 75.221583 
L 259.256666 76.467285 
L 259.907276 75.426249 
L 260.557887 75.366628 
L 261.208497 75.720523 
L 261.859107 75.116197 
L 262.509718 75.529834 
L 263.160328 75.300378 
L 264.461549 75.626224 
L 265.112159 75.37933 
L 265.762769 75.763819 
L 266.413379 75.619504 
L 267.06399 76.224788 
L 267.7146 75.304024 
L 268.36521 75.290268 
L 269.666431 75.608985 
L 270.317041 76.938585 
L 270.967652 75.459258 
L 271.618262 75.970814 
L 272.268872 75.388518 
L 272.919483 75.395043 
L 273.570093 75.881764 
L 274.220703 75.091765 
L 274.871314 75.58381 
L 275.521924 75.358069 
L 276.172534 75.350792 
L 276.823144 75.674912 
L 277.473755 75.165962 
L 278.124365 75.462827 
L 278.774975 75.051843 
L 279.425586 75.816633 
L 280.076196 75.382661 
L 281.377417 75.375165 
L 282.028027 76.155027 
L 282.678637 75.280882 
L 283.329248 75.14418 
L 283.979858 75.26454 
L 284.630468 75.223258 
L 285.281079 75.316169 
L 285.931689 75.180761 
L 286.582299 75.365294 
L 287.232909 75.125799 
L 288.53413 75.115341 
L 289.18474 75.448107 
L 289.835351 75.200129 
L 290.485961 75.96957 
L 291.136571 75.840027 
L 291.787182 75.22453 
L 292.437792 75.89365 
L 293.088402 75.197599 
L 293.739013 75.615172 
L 294.389623 75.798441 
L 295.040233 75.172334 
L 295.690844 77.022885 
L 296.341454 75.212754 
L 296.992064 75.540286 
L 297.642674 75.271636 
L 298.293285 75.240348 
L 299.594505 75.989536 
L 300.245116 75.4104 
L 300.895726 75.424397 
L 302.196947 75.077219 
L 302.847557 75.361995 
L 304.148778 75.123487 
L 304.799388 75.892584 
L 307.401829 75.234517 
L 308.052439 75.637379 
L 308.70305 76.465788 
L 309.35366 75.543581 
L 310.00427 75.8554 
L 310.654881 75.745326 
L 311.305491 75.436453 
L 312.606712 77.098182 
L 314.558543 75.105867 
L 315.209153 76.961899 
L 315.859763 76.47636 
L 316.510373 75.551442 
L 317.811594 75.106189 
L 318.462204 75.180295 
L 319.112815 75.480916 
L 319.763425 75.654219 
L 321.064646 75.840812 
L 323.016477 75.202916 
L 323.667087 75.876055 
L 324.317697 75.770163 
L 324.968308 75.460056 
L 325.618918 75.837675 
L 326.920138 75.380952 
L 327.570749 76.449421 
L 328.221359 75.115311 
L 328.871969 76.091494 
L 329.52258 76.007711 
L 330.17319 75.087702 
L 330.8238 75.122719 
L 331.474411 75.582314 
L 332.125021 76.689485 
L 333.426242 75.201592 
L 334.076852 75.407417 
L 334.727462 75.453192 
L 335.378073 75.180085 
L 336.028683 75.368683 
L 336.679293 75.217179 
L 337.329903 75.368029 
L 337.980514 75.898512 
L 338.631124 75.268702 
L 339.281734 75.263233 
L 339.932345 75.638166 
L 340.582955 75.311381 
L 341.233565 75.623859 
L 341.884176 75.618716 
L 342.534786 75.351093 
L 343.185396 75.281025 
L 343.836007 75.412648 
L 344.486617 75.137409 
L 345.137227 75.449567 
L 347.089058 75.417507 
L 347.739668 75.809469 
L 348.390279 75.140406 
L 349.040889 75.278825 
L 349.691499 75.577206 
L 350.34211 75.301885 
L 350.99272 75.299963 
L 351.64333 75.52587 
L 352.293941 75.515591 
L 352.944551 75.301096 
L 353.595161 75.306785 
L 354.245772 76.160137 
L 354.896382 75.177725 
L 355.546992 75.234378 
L 356.197602 75.13559 
L 356.848213 76.644854 
L 357.498823 76.447496 
L 358.149433 75.452241 
L 358.800044 75.472134 
L 359.450654 76.028522 
L 360.101264 75.401865 
L 360.751875 75.437734 
L 361.402485 75.157725 
L 362.053095 75.111837 
L 363.354316 75.375433 
L 364.655537 75.335052 
L 365.306147 75.82676 
L 365.956757 75.12392 
L 366.607367 75.568065 
L 367.257978 75.200133 
L 367.908588 75.336409 
L 369.860419 75.107789 
L 371.16164 75.132224 
L 372.46286 75.13968 
L 373.113471 75.68111 
L 373.764081 75.173647 
L 375.065302 75.106124 
L 375.715912 75.418188 
L 376.366522 75.25888 
L 378.318353 75.504321 
L 379.619574 75.047288 
L 380.270184 75.198152 
L 380.920794 75.121814 
L 382.222015 75.230087 
L 382.872625 75.696524 
L 383.523236 75.167228 
L 384.173846 75.274891 
L 384.824456 75.106994 
L 385.475066 75.065518 
L 386.125677 75.473719 
L 387.426897 75.294905 
L 388.077508 75.580031 
L 390.029339 75.608523 
L 390.679949 75.385788 
L 391.330559 75.552329 
L 392.63178 75.106056 
L 393.28239 75.78332 
L 393.933001 75.625002 
L 394.583611 75.979281 
L 395.234221 75.712304 
L 395.884831 75.1045 
L 396.535442 75.514166 
L 397.836662 75.146041 
L 398.487273 75.482792 
L 398.487273 75.482792 
" style="fill:none;stroke:#ff0000;stroke-linecap:square;stroke-width:1.5;"/>
   </g>
   <g id="patch_3">
    <path d="M 57.6 307.584 
L 57.6 41.472 
" style="fill:none;stroke:#000000;stroke-linecap:square;stroke-linejoin:miter;stroke-width:0.8;"/>
   </g>
   <g id="patch_4">
    <path d="M 414.72 307.584 
L 414.72 41.472 
" style="fill:none;stroke:#000000;stroke-linecap:square;stroke-linejoin:miter;stroke-width:0.8;"/>
   </g>
   <g id="patch_5">
    <path d="M 57.6 307.584 
L 414.72 307.584 
" style="fill:none;stroke:#000000;stroke-linecap:square;stroke-linejoin:miter;stroke-width:0.8;"/>
   </g>
   <g id="patch_6">
    <path d="M 57.6 41.472 
L 414.72 41.472 
" style="fill:none;stroke:#000000;stroke-linecap:square;stroke-linejoin:miter;stroke-width:0.8;"/>
   </g>
   <g id="text_14">
    <!-- Population's average and best fitness -->
    <g transform="translate(123.529687 35.472)scale(0.12 -0.12)">
     <defs>
      <path d="M 1259 4147 
L 1259 2394 
L 2053 2394 
Q 2494 2394 2734 2622 
Q 2975 2850 2975 3272 
Q 2975 3691 2734 3919 
Q 2494 4147 2053 4147 
L 1259 4147 
z
M 628 4666 
L 2053 4666 
Q 2838 4666 3239 4311 
Q 3641 3956 3641 3272 
Q 3641 2581 3239 2228 
Q 2838 1875 2053 1875 
L 1259 1875 
L 1259 0 
L 628 0 
L 628 4666 
z
" id="DejaVuSans-50" transform="scale(0.015625)"/>
      <path d="M 1159 525 
L 1159 -1331 
L 581 -1331 
L 581 3500 
L 1159 3500 
L 1159 2969 
Q 1341 3281 1617 3432 
Q 1894 3584 2278 3584 
Q 2916 3584 3314 3078 
Q 3713 2572 3713 1747 
Q 3713 922 3314 415 
Q 2916 -91 2278 -91 
Q 1894 -91 1617 61 
Q 1341 213 1159 525 
z
M 3116 1747 
Q 3116 2381 2855 2742 
Q 2594 3103 2138 3103 
Q 1681 3103 1420 2742 
Q 1159 2381 1159 1747 
Q 1159 1113 1420 752 
Q 1681 391 2138 391 
Q 2594 391 2855 752 
Q 3116 1113 3116 1747 
z
" id="DejaVuSans-70" transform="scale(0.015625)"/>
      <path d="M 544 1381 
L 544 3500 
L 1119 3500 
L 1119 1403 
Q 1119 906 1312 657 
Q 1506 409 1894 409 
Q 2359 409 2629 706 
Q 2900 1003 2900 1516 
L 2900 3500 
L 3475 3500 
L 3475 0 
L 2900 0 
L 2900 538 
Q 2691 219 2414 64 
Q 2138 -91 1772 -91 
Q 1169 -91 856 284 
Q 544 659 544 1381 
z
M 1991 3584 
L 1991 3584 
z
" id="DejaVuSans-75" transform="scale(0.015625)"/>
      <path d="M 603 4863 
L 1178 4863 
L 1178 0 
L 603 0 
L 603 4863 
z
" id="DejaVuSans-6c" transform="scale(0.015625)"/>
      <path d="M 1147 4666 
L 1147 2931 
L 616 2931 
L 616 4666 
L 1147 4666 
z
" id="DejaVuSans-27" transform="scale(0.015625)"/>
      <path id="DejaVuSans-20" transform="scale(0.015625)"/>
      <path d="M 191 3500 
L 800 3500 
L 1894 563 
L 2988 3500 
L 3597 3500 
L 2284 0 
L 1503 0 
L 191 3500 
z
" id="DejaVuSans-76" transform="scale(0.015625)"/>
      <path d="M 2906 1791 
Q 2906 2416 2648 2759 
Q 2391 3103 1925 3103 
Q 1463 3103 1205 2759 
Q 947 2416 947 1791 
Q 947 1169 1205 825 
Q 1463 481 1925 481 
Q 2391 481 2648 825 
Q 2906 1169 2906 1791 
z
M 3481 434 
Q 3481 -459 3084 -895 
Q 2688 -1331 1869 -1331 
Q 1566 -1331 1297 -1286 
Q 1028 -1241 775 -1147 
L 775 -588 
Q 1028 -725 1275 -790 
Q 1522 -856 1778 -856 
Q 2344 -856 2625 -561 
Q 2906 -266 2906 331 
L 2906 616 
Q 2728 306 2450 153 
Q 2172 0 1784 0 
Q 1141 0 747 490 
Q 353 981 353 1791 
Q 353 2603 747 3093 
Q 1141 3584 1784 3584 
Q 2172 3584 2450 3431 
Q 2728 3278 2906 2969 
L 2906 3500 
L 3481 3500 
L 3481 434 
z
" id="DejaVuSans-67" transform="scale(0.015625)"/>
      <path d="M 2906 2969 
L 2906 4863 
L 3481 4863 
L 3481 0 
L 2906 0 
L 2906 525 
Q 2725 213 2448 61 
Q 2172 -91 1784 -91 
Q 1150 -91 751 415 
Q 353 922 353 1747 
Q 353 2572 751 3078 
Q 1150 3584 1784 3584 
Q 2172 3584 2448 3432 
Q 2725 3281 2906 2969 
z
M 947 1747 
Q 947 1113 1208 752 
Q 1469 391 1925 391 
Q 2381 391 2643 752 
Q 2906 1113 2906 1747 
Q 2906 2381 2643 2742 
Q 2381 3103 1925 3103 
Q 1469 3103 1208 2742 
Q 947 2381 947 1747 
z
" id="DejaVuSans-64" transform="scale(0.015625)"/>
      <path d="M 3116 1747 
Q 3116 2381 2855 2742 
Q 2594 3103 2138 3103 
Q 1681 3103 1420 2742 
Q 1159 2381 1159 1747 
Q 1159 1113 1420 752 
Q 1681 391 2138 391 
Q 2594 391 2855 752 
Q 3116 1113 3116 1747 
z
M 1159 2969 
Q 1341 3281 1617 3432 
Q 1894 3584 2278 3584 
Q 2916 3584 3314 3078 
Q 3713 2572 3713 1747 
Q 3713 922 3314 415 
Q 2916 -91 2278 -91 
Q 1894 -91 1617 61 
Q 1341 213 1159 525 
L 1159 0 
L 581 0 
L 581 4863 
L 1159 4863 
L 1159 2969 
z
" id="DejaVuSans-62" transform="scale(0.015625)"/>
      <path d="M 2375 4863 
L 2375 4384 
L 1825 4384 
Q 1516 4384 1395 4259 
Q 1275 4134 1275 3809 
L 1275 3500 
L 2222 3500 
L 2222 3053 
L 1275 3053 
L 1275 0 
L 697 0 
L 697 3053 
L 147 3053 
L 147 3500 
L 697 3500 
L 697 3744 
Q 697 4328 969 4595 
Q 1241 4863 1831 4863 
L 2375 4863 
z
" id="DejaVuSans-66" transform="scale(0.015625)"/>
     </defs>
     <use xlink:href="#DejaVuSans-50"/>
     <use x="56.677734" xlink:href="#DejaVuSans-6f"/>
     <use x="117.859375" xlink:href="#DejaVuSans-70"/>
     <use x="181.335938" xlink:href="#DejaVuSans-75"/>
     <use x="244.714844" xlink:href="#DejaVuSans-6c"/>
     <use x="272.498047" xlink:href="#DejaVuSans-61"/>
     <use x="333.777344" xlink:href="#DejaVuSans-74"/>
     <use x="372.986328" xlink:href="#DejaVuSans-69"/>
     <use x="400.769531" xlink:href="#DejaVuSans-6f"/>
     <use x="461.951172" xlink:href="#DejaVuSans-6e"/>
     <use x="525.330078" xlink:href="#DejaVuSans-27"/>
     <use x="552.820312" xlink:href="#DejaVuSans-73"/>
     <use x="604.919922" xlink:href="#DejaVuSans-20"/>
     <use x="636.707031" xlink:href="#DejaVuSans-61"/>
     <use x="697.986328" xlink:href="#DejaVuSans-76"/>
     <use x="757.166016" xlink:href="#DejaVuSans-65"/>
     <use x="818.689453" xlink:href="#DejaVuSans-72"/>
     <use x="859.802734" xlink:href="#DejaVuSans-61"/>
     <use x="921.082031" xlink:href="#DejaVuSans-67"/>
     <use x="984.558594" xlink:href="#DejaVuSans-65"/>
     <use x="1046.082031" xlink:href="#DejaVuSans-20"/>
     <use x="1077.869141" xlink:href="#DejaVuSans-61"/>
     <use x="1139.148438" xlink:href="#DejaVuSans-6e"/>
     <use x="1202.527344" xlink:href="#DejaVuSans-64"/>
     <use x="1266.003906" xlink:href="#DejaVuSans-20"/>
     <use x="1297.791016" xlink:href="#DejaVuSans-62"/>
     <use x="1361.267578" xlink:href="#DejaVuSans-65"/>
     <use x="1422.791016" xlink:href="#DejaVuSans-73"/>
     <use x="1474.890625" xlink:href="#DejaVuSans-74"/>
     <use x="1514.099609" xlink:href="#DejaVuSans-20"/>
     <use x="1545.886719" xlink:href="#DejaVuSans-66"/>
     <use x="1581.091797" xlink:href="#DejaVuSans-69"/>
     <use x="1608.875" xlink:href="#DejaVuSans-74"/>
     <use x="1648.083984" xlink:href="#DejaVuSans-6e"/>
     <use x="1711.462891" xlink:href="#DejaVuSans-65"/>
     <use x="1772.986328" xlink:href="#DejaVuSans-73"/>
     <use x="1825.085938" xlink:href="#DejaVuSans-73"/>
    </g>
   </g>
   <g id="legend_1">
    <g id="patch_7">
     <path d="M 334.779375 302.584 
L 407.72 302.584 
Q 409.72 302.584 409.72 300.584 
L 409.72 242.8715 
Q 409.72 240.8715 407.72 240.8715 
L 334.779375 240.8715 
Q 332.779375 240.8715 332.779375 242.8715 
L 332.779375 300.584 
Q 332.779375 302.584 334.779375 302.584 
z
" style="fill:#ffffff;opacity:0.8;stroke:#cccccc;stroke-linejoin:miter;"/>
    </g>
    <g id="line2d_27">
     <path d="M 336.779375 248.969937 
L 356.779375 248.969937 
" style="fill:none;stroke:#0000ff;stroke-linecap:square;stroke-width:1.5;"/>
    </g>
    <g id="line2d_28"/>
    <g id="text_15">
     <!-- average -->
     <g transform="translate(364.779375 252.469937)scale(0.1 -0.1)">
      <use xlink:href="#DejaVuSans-61"/>
      <use x="61.279297" xlink:href="#DejaVuSans-76"/>
      <use x="120.458984" xlink:href="#DejaVuSans-65"/>
      <use x="181.982422" xlink:href="#DejaVuSans-72"/>
      <use x="223.095703" xlink:href="#DejaVuSans-61"/>
      <use x="284.375" xlink:href="#DejaVuSans-67"/>
      <use x="347.851562" xlink:href="#DejaVuSans-65"/>
     </g>
    </g>
    <g id="line2d_29">
     <path d="M 336.779375 263.648062 
L 356.779375 263.648062 
" style="fill:none;stroke:#008000;stroke-dasharray:9.6,2.4,1.5,2.4;stroke-dashoffset:0;stroke-width:1.5;"/>
    </g>
    <g id="line2d_30"/>
    <g id="text_16">
     <!-- -1 sd -->
     <g transform="translate(364.779375 267.148062)scale(0.1 -0.1)">
      <defs>
       <path d="M 313 2009 
L 1997 2009 
L 1997 1497 
L 313 1497 
L 313 2009 
z
" id="DejaVuSans-2d" transform="scale(0.015625)"/>
      </defs>
      <use xlink:href="#DejaVuSans-2d"/>
      <use x="36.083984" xlink:href="#DejaVuSans-31"/>
      <use x="99.707031" xlink:href="#DejaVuSans-20"/>
      <use x="131.494141" xlink:href="#DejaVuSans-73"/>
      <use x="183.59375" xlink:href="#DejaVuSans-64"/>
     </g>
    </g>
    <g id="line2d_31">
     <path d="M 336.779375 278.326187 
L 356.779375 278.326187 
" style="fill:none;stroke:#008000;stroke-dasharray:9.6,2.4,1.5,2.4;stroke-dashoffset:0;stroke-width:1.5;"/>
    </g>
    <g id="line2d_32"/>
    <g id="text_17">
     <!-- +1 sd -->
     <g transform="translate(364.779375 281.826187)scale(0.1 -0.1)">
      <defs>
       <path d="M 2944 4013 
L 2944 2272 
L 4684 2272 
L 4684 1741 
L 2944 1741 
L 2944 0 
L 2419 0 
L 2419 1741 
L 678 1741 
L 678 2272 
L 2419 2272 
L 2419 4013 
L 2944 4013 
z
" id="DejaVuSans-2b" transform="scale(0.015625)"/>
      </defs>
      <use xlink:href="#DejaVuSans-2b"/>
      <use x="83.789062" xlink:href="#DejaVuSans-31"/>
      <use x="147.412109" xlink:href="#DejaVuSans-20"/>
      <use x="179.199219" xlink:href="#DejaVuSans-73"/>
      <use x="231.298828" xlink:href="#DejaVuSans-64"/>
     </g>
    </g>
    <g id="line2d_33">
     <path d="M 336.779375 293.004312 
L 356.779375 293.004312 
" style="fill:none;stroke:#ff0000;stroke-linecap:square;stroke-width:1.5;"/>
    </g>
    <g id="line2d_34"/>
    <g id="text_18">
     <!-- best -->
     <g transform="translate(364.779375 296.504312)scale(0.1 -0.1)">
      <use xlink:href="#DejaVuSans-62"/>
      <use x="63.476562" xlink:href="#DejaVuSans-65"/>
      <use x="125" xlink:href="#DejaVuSans-73"/>
      <use x="177.099609" xlink:href="#DejaVuSans-74"/>
     </g>
    </g>
   </g>
  </g>
 </g>
 <defs>
  <clipPath id="p585965a34d">
   <rect height="266.112" width="357.12" x="57.6" y="41.472"/>
  </clipPath>
 </defs>
</svg>
