<?xml version="1.0" encoding="UTF-8" standalone="no"?>
<!DOCTYPE svg PUBLIC "-//W3C//DTD SVG 1.1//EN"
 "http://www.w3.org/Graphics/SVG/1.1/DTD/svg11.dtd">
<!-- Generated by graphviz version 8.0.3 (20230416.2022)
 -->
<!-- Pages: 1 -->
<svg width="442pt" height="307pt"
 viewBox="0.00 0.00 442.43 306.92" xmlns="http://www.w3.org/2000/svg" xmlns:xlink="http://www.w3.org/1999/xlink">
<g id="graph0" class="graph" transform="scale(1 1) rotate(0) translate(4 302.92)">
<polygon fill="white" stroke="none" points="-4,4 -4,-302.92 438.43,-302.92 438.43,4 -4,4"/>
<!-- X -->
<g id="node1" class="node">
<title>X</title>
<polygon fill="lightgray" stroke="black" points="37.71,-119.25 14.71,-119.25 14.71,-101.25 37.71,-101.25 37.71,-119.25"/>
<text text-anchor="middle" x="26.21" y="-108.05" font-family="Times New Roman,serif" font-size="9.00">X</text>
</g>
<!-- M1 -->
<g id="node9" class="node">
<title>M1</title>
<ellipse fill="lightblue" stroke="black" cx="21.21" cy="-24.75" rx="21.43" ry="21.43"/>
<text text-anchor="middle" x="21.21" y="-22.55" font-family="Times New Roman,serif" font-size="9.00">M1</text>
</g>
<!-- X&#45;&gt;M1 -->
<g id="edge1" class="edge">
<title>X&#45;&gt;M1</title>
<path fill="none" stroke="red" stroke-width="1.9" d="M25.72,-100.93C25.12,-90.98 24.08,-73.69 23.16,-58.2"/>
<polygon fill="red" stroke="red" stroke-width="1.9" points="26.54,-58.11 22.45,-48.34 19.55,-58.53 26.54,-58.11"/>
</g>
<!-- 7701 -->
<g id="node16" class="node">
<title>7701</title>
<ellipse fill="white" stroke="black" cx="85.21" cy="-24.75" rx="25" ry="25"/>
<text text-anchor="middle" x="85.21" y="-22.55" font-family="Times New Roman,serif" font-size="9.00">7701</text>
</g>
<!-- X&#45;&gt;7701 -->
<g id="edge6" class="edge">
<title>X&#45;&gt;7701</title>
<path fill="none" stroke="green" stroke-width="0.63" d="M32.09,-100.93C39.85,-89.95 53.92,-70.04 65.63,-53.47"/>
<polygon fill="green" stroke="green" stroke-width="0.63" points="68.24,-55.84 71.15,-45.65 62.52,-51.8 68.24,-55.84"/>
</g>
<!-- Y -->
<g id="node2" class="node">
<title>Y</title>
<polygon fill="lightgray" stroke="black" points="204.71,-119.25 181.71,-119.25 181.71,-101.25 204.71,-101.25 204.71,-119.25"/>
<text text-anchor="middle" x="193.21" y="-108.05" font-family="Times New Roman,serif" font-size="9.00">Y</text>
</g>
<!-- M2 -->
<g id="node10" class="node">
<title>M2</title>
<ellipse fill="lightblue" stroke="black" cx="160.21" cy="-24.75" rx="21.43" ry="21.43"/>
<text text-anchor="middle" x="160.21" y="-22.55" font-family="Times New Roman,serif" font-size="9.00">M2</text>
</g>
<!-- Y&#45;&gt;M2 -->
<g id="edge2" class="edge">
<title>Y&#45;&gt;M2</title>
<path fill="none" stroke="red" stroke-width="1.27" d="M189.93,-100.93C185.73,-90.31 178.23,-71.35 171.82,-55.12"/>
<polygon fill="red" stroke="red" stroke-width="1.27" points="174.74,-53.99 167.81,-45.97 168.23,-56.56 174.74,-53.99"/>
</g>
<!-- 6657 -->
<g id="node13" class="node">
<title>6657</title>
<ellipse fill="white" stroke="black" cx="229.21" cy="-24.75" rx="25" ry="25"/>
<text text-anchor="middle" x="229.21" y="-22.55" font-family="Times New Roman,serif" font-size="9.00">6657</text>
</g>
<!-- Y&#45;&gt;6657 -->
<g id="edge7" class="edge">
<title>Y&#45;&gt;6657</title>
<path fill="none" stroke="red" stroke-width="0.24" d="M196.8,-100.93C201.2,-90.73 208.92,-72.83 215.72,-57.05"/>
<polygon fill="red" stroke="red" stroke-width="0.24" points="218.84,-58.65 219.58,-48.08 212.41,-55.88 218.84,-58.65"/>
</g>
<!-- Δθ -->
<g id="node3" class="node">
<title>Δθ</title>
<polygon fill="lightgray" stroke="black" points="328.71,-286.71 301.71,-286.71 301.71,-268.71 328.71,-268.71 328.71,-286.71"/>
<text text-anchor="middle" x="315.21" y="-275.51" font-family="Times New Roman,serif" font-size="9.00">Δθ</text>
</g>
<!-- θ -->
<g id="node4" class="node">
<title>θ</title>
<polygon fill="lightgray" stroke="black" points="227.71,-204.74 206.71,-204.74 206.71,-186.74 227.71,-186.74 227.71,-204.74"/>
<text text-anchor="middle" x="217.21" y="-193.54" font-family="Times New Roman,serif" font-size="9.00">θ</text>
</g>
<!-- M3 -->
<g id="node11" class="node">
<title>M3</title>
<ellipse fill="lightblue" stroke="black" cx="244.21" cy="-110.25" rx="21.43" ry="21.43"/>
<text text-anchor="middle" x="244.21" y="-108.05" font-family="Times New Roman,serif" font-size="9.00">M3</text>
</g>
<!-- θ&#45;&gt;M3 -->
<g id="edge4" class="edge">
<title>θ&#45;&gt;M3</title>
<path fill="none" stroke="red" stroke-width="1.09" d="M219.9,-186.43C223.29,-175.94 229.31,-157.33 234.51,-141.24"/>
<polygon fill="red" stroke="red" stroke-width="1.09" points="238.03,-142.74 237.78,-132.15 231.37,-140.59 238.03,-142.74"/>
</g>
<!-- V1 -->
<g id="node5" class="node">
<title>V1</title>
<polygon fill="lightgray" stroke="black" points="373.71,-286.71 346.71,-286.71 346.71,-268.71 373.71,-268.71 373.71,-286.71"/>
<text text-anchor="middle" x="360.21" y="-275.51" font-family="Times New Roman,serif" font-size="9.00">V1</text>
</g>
<!-- V2 -->
<g id="node6" class="node">
<title>V2</title>
<polygon fill="lightgray" stroke="black" points="98.71,-286.71 71.71,-286.71 71.71,-268.71 98.71,-268.71 98.71,-286.71"/>
<text text-anchor="middle" x="85.21" y="-275.51" font-family="Times New Roman,serif" font-size="9.00">V2</text>
</g>
<!-- 9328 -->
<g id="node15" class="node">
<title>9328</title>
<ellipse fill="white" stroke="black" cx="85.21" cy="-195.74" rx="25" ry="25"/>
<text text-anchor="middle" x="85.21" y="-193.54" font-family="Times New Roman,serif" font-size="9.00">9328</text>
</g>
<!-- V2&#45;&gt;9328 -->
<g id="edge10" class="edge">
<title>V2&#45;&gt;9328</title>
<path fill="none" stroke="green" stroke-width="0.35" d="M85.21,-268.45C85.21,-259.52 85.21,-244.71 85.21,-230.85"/>
<polygon fill="green" stroke="green" stroke-width="0.35" points="88.71,-231.04 85.21,-221.04 81.71,-231.04 88.71,-231.04"/>
</g>
<!-- V3 -->
<g id="node7" class="node">
<title>V3</title>
<polygon fill="lightgray" stroke="black" points="163.71,-119.25 136.71,-119.25 136.71,-101.25 163.71,-101.25 163.71,-119.25"/>
<text text-anchor="middle" x="150.21" y="-108.05" font-family="Times New Roman,serif" font-size="9.00">V3</text>
</g>
<!-- V3&#45;&gt;M2 -->
<g id="edge3" class="edge">
<title>V3&#45;&gt;M2</title>
<path fill="none" stroke="red" stroke-width="0.4" d="M151.21,-100.93C152.46,-90.48 154.68,-71.96 156.6,-55.91"/>
<polygon fill="red" stroke="red" stroke-width="0.4" points="160.03,-56.68 157.75,-46.34 153.08,-55.85 160.03,-56.68"/>
</g>
<!-- V4 -->
<g id="node8" class="node">
<title>V4</title>
<polygon fill="lightgray" stroke="black" points="283.71,-286.71 256.71,-286.71 256.71,-268.71 283.71,-268.71 283.71,-286.71"/>
<text text-anchor="middle" x="270.21" y="-275.51" font-family="Times New Roman,serif" font-size="9.00">V4</text>
</g>
<!-- 9405 -->
<g id="node17" class="node">
<title>9405</title>
<ellipse fill="white" stroke="black" cx="270.21" cy="-195.74" rx="25" ry="25"/>
<text text-anchor="middle" x="270.21" y="-193.54" font-family="Times New Roman,serif" font-size="9.00">9405</text>
</g>
<!-- V4&#45;&gt;9405 -->
<g id="edge8" class="edge">
<title>V4&#45;&gt;9405</title>
<path fill="none" stroke="green" stroke-width="0.45" d="M270.21,-268.45C270.21,-259.52 270.21,-244.71 270.21,-230.85"/>
<polygon fill="green" stroke="green" stroke-width="0.45" points="273.71,-231.04 270.21,-221.04 266.71,-231.04 273.71,-231.04"/>
</g>
<!-- M3&#45;&gt;6657 -->
<g id="edge5" class="edge">
<title>M3&#45;&gt;6657</title>
<path fill="none" stroke="green" stroke-width="0.38" d="M240.58,-89.03C238.98,-80.13 237.06,-69.42 235.25,-59.37"/>
<polygon fill="green" stroke="green" stroke-width="0.38" points="238.72,-58.85 233.5,-49.63 231.83,-60.09 238.72,-58.85"/>
</g>
<!-- M4 -->
<g id="node12" class="node">
<title>M4</title>
<ellipse fill="lightblue" stroke="black" cx="413.21" cy="-277.71" rx="21.43" ry="21.43"/>
<text text-anchor="middle" x="413.21" y="-275.51" font-family="Times New Roman,serif" font-size="9.00">M4</text>
</g>
<!-- 9634 -->
<g id="node14" class="node">
<title>9634</title>
<ellipse fill="white" stroke="black" cx="85.21" cy="-110.25" rx="25" ry="25"/>
<text text-anchor="middle" x="85.21" y="-108.05" font-family="Times New Roman,serif" font-size="9.00">9634</text>
</g>
<!-- 9634&#45;&gt;7701 -->
<g id="edge12" class="edge">
<title>9634&#45;&gt;7701</title>
<path fill="none" stroke="green" stroke-width="0.13" d="M85.21,-85.1C85.21,-77.29 85.21,-68.48 85.21,-60.08"/>
<polygon fill="green" stroke="green" stroke-width="0.13" points="88.71,-60.13 85.21,-50.13 81.71,-60.13 88.71,-60.13"/>
</g>
<!-- 9328&#45;&gt;9634 -->
<g id="edge11" class="edge">
<title>9328&#45;&gt;9634</title>
<path fill="none" stroke="green" stroke-width="0.2" d="M85.21,-170.59C85.21,-162.79 85.21,-153.97 85.21,-145.58"/>
<polygon fill="green" stroke="green" stroke-width="0.2" points="88.71,-145.63 85.21,-135.63 81.71,-145.63 88.71,-145.63"/>
</g>
<!-- 9405&#45;&gt;M3 -->
<g id="edge9" class="edge">
<title>9405&#45;&gt;M3</title>
<path fill="none" stroke="red" stroke-width="0.2" d="M262.97,-171.48C259.99,-161.9 256.5,-150.7 253.34,-140.56"/>
<polygon fill="red" stroke="red" stroke-width="0.2" points="256.76,-139.77 250.45,-131.26 250.08,-141.85 256.76,-139.77"/>
</g>
</g>
</svg>
