<?xml version="1.0" encoding="UTF-8" standalone="no"?>
<!DOCTYPE svg PUBLIC "-//W3C//DTD SVG 1.1//EN"
 "http://www.w3.org/Graphics/SVG/1.1/DTD/svg11.dtd">
<!-- Generated by graphviz version 8.0.3 (20230416.2022)
 -->
<!-- Pages: 1 -->
<svg width="185pt" height="183pt"
 viewBox="0.00 0.00 184.71 182.85" xmlns="http://www.w3.org/2000/svg" xmlns:xlink="http://www.w3.org/1999/xlink">
<g id="graph0" class="graph" transform="scale(1 1) rotate(0) translate(4 178.85)">
<polygon fill="white" stroke="none" points="-4,4 -4,-178.85 180.71,-178.85 180.71,4 -4,4"/>
<!-- X -->
<g id="node1" class="node">
<title>X</title>
<polygon fill="lightgray" stroke="black" points="23,-174.85 0,-174.85 0,-156.85 23,-156.85 23,-174.85"/>
<text text-anchor="middle" x="11.5" y="-163.65" font-family="Times New Roman,serif" font-size="9.00">X</text>
</g>
<!-- M1 -->
<g id="node3" class="node">
<title>M1</title>
<ellipse fill="lightblue" stroke="black" cx="35.5" cy="-99.64" rx="21.43" ry="21.43"/>
<text text-anchor="middle" x="35.5" y="-97.44" font-family="Times New Roman,serif" font-size="9.00">M1</text>
</g>
<!-- X&#45;&gt;M1 -->
<g id="edge1" class="edge">
<title>X&#45;&gt;M1</title>
<path fill="none" stroke="green" stroke-width="0.3" d="M14.64,-156.46C17.24,-149.5 21.09,-139.19 24.78,-129.32"/>
<polygon fill="green" stroke="green" stroke-width="0.3" points="28,-130.7 28.22,-120.11 21.44,-128.25 28,-130.7"/>
</g>
<!-- 108 -->
<g id="node6" class="node">
<title>108</title>
<ellipse fill="white" stroke="black" cx="40.5" cy="-21.21" rx="21.43" ry="21.43"/>
<text text-anchor="middle" x="40.5" y="-19.01" font-family="Times New Roman,serif" font-size="9.00">108</text>
</g>
<!-- X&#45;&gt;108 -->
<g id="edge6" class="edge">
<title>X&#45;&gt;108</title>
<path fill="none" stroke="red" stroke-width="0.56" d="M9.07,-156.55C4.91,-140.92 -2.44,-106.19 5.5,-78.43 8.74,-67.09 15.01,-55.81 21.35,-46.36"/>
<polygon fill="red" stroke="red" stroke-width="0.56" points="24.17,-48.43 27.11,-38.25 18.47,-44.38 24.17,-48.43"/>
</g>
<!-- Y -->
<g id="node2" class="node">
<title>Y</title>
<polygon fill="lightgray" stroke="black" points="107,-174.85 84,-174.85 84,-156.85 107,-156.85 107,-174.85"/>
<text text-anchor="middle" x="95.5" y="-163.65" font-family="Times New Roman,serif" font-size="9.00">Y</text>
</g>
<!-- Y&#45;&gt;M1 -->
<g id="edge2" class="edge">
<title>Y&#45;&gt;M1</title>
<path fill="none" stroke="green" stroke-width="0.2" d="M87.66,-156.46C79.79,-148.04 67.32,-134.7 56.55,-123.17"/>
<polygon fill="green" stroke="green" stroke-width="0.2" points="59.17,-120.84 49.78,-115.93 54.05,-125.62 59.17,-120.84"/>
</g>
<!-- M2 -->
<g id="node4" class="node">
<title>M2</title>
<ellipse fill="lightblue" stroke="black" cx="95.5" cy="-99.64" rx="21.43" ry="21.43"/>
<text text-anchor="middle" x="95.5" y="-97.44" font-family="Times New Roman,serif" font-size="9.00">M2</text>
</g>
<!-- Y&#45;&gt;M2 -->
<g id="edge3" class="edge">
<title>Y&#45;&gt;M2</title>
<path fill="none" stroke="green" stroke-width="0.97" d="M95.5,-156.46C95.5,-150.17 95.5,-141.15 95.5,-132.19"/>
<polygon fill="green" stroke="green" stroke-width="0.97" points="99,-132.47 95.5,-122.47 92,-132.47 99,-132.47"/>
</g>
<!-- 235 -->
<g id="node5" class="node">
<title>235</title>
<ellipse fill="white" stroke="black" cx="155.5" cy="-99.64" rx="21.43" ry="21.43"/>
<text text-anchor="middle" x="155.5" y="-97.44" font-family="Times New Roman,serif" font-size="9.00">235</text>
</g>
<!-- Y&#45;&gt;235 -->
<g id="edge5" class="edge">
<title>Y&#45;&gt;235</title>
<path fill="none" stroke="red" stroke-width="0.19" d="M103.34,-156.46C111.21,-148.04 123.68,-134.7 134.45,-123.17"/>
<polygon fill="red" stroke="red" stroke-width="0.19" points="136.95,-125.62 141.22,-115.93 131.83,-120.84 136.95,-125.62"/>
</g>
<!-- M2&#45;&gt;108 -->
<g id="edge4" class="edge">
<title>M2&#45;&gt;108</title>
<path fill="none" stroke="green" stroke-width="0.29" d="M83.29,-81.68C75.96,-71.49 66.5,-58.34 58.34,-47"/>
<polygon fill="green" stroke="green" stroke-width="0.29" points="61.35,-45.2 52.67,-39.13 55.67,-49.29 61.35,-45.2"/>
</g>
</g>
</svg>
