<?xml version="1.0" encoding="UTF-8" standalone="no"?>
<!DOCTYPE svg PUBLIC "-//W3C//DTD SVG 1.1//EN"
 "http://www.w3.org/Graphics/SVG/1.1/DTD/svg11.dtd">
<!-- Generated by graphviz version 8.0.3 (20230416.2022)
 -->
<!-- Pages: 1 -->
<svg width="293pt" height="104pt"
 viewBox="0.00 0.00 293.00 104.43" xmlns="http://www.w3.org/2000/svg" xmlns:xlink="http://www.w3.org/1999/xlink">
<g id="graph0" class="graph" transform="scale(1 1) rotate(0) translate(4 100.43)">
<polygon fill="white" stroke="none" points="-4,4 -4,-100.43 289,-100.43 289,4 -4,4"/>
<!-- X -->
<g id="node1" class="node">
<title>X</title>
<polygon fill="lightgray" stroke="black" points="64,-96.43 41,-96.43 41,-78.43 64,-78.43 64,-96.43"/>
<text text-anchor="middle" x="52.5" y="-85.23" font-family="Times New Roman,serif" font-size="9.00">X</text>
</g>
<!-- M1 -->
<g id="node8" class="node">
<title>M1</title>
<ellipse fill="lightblue" stroke="black" cx="169.5" cy="-21.21" rx="21.43" ry="21.43"/>
<text text-anchor="middle" x="169.5" y="-19.01" font-family="Times New Roman,serif" font-size="9.00">M1</text>
</g>
<!-- X&#45;&gt;M1 -->
<g id="edge1" class="edge">
<title>X&#45;&gt;M1</title>
<path fill="none" stroke="green" stroke-width="0.13" d="M64.29,-81.04C81.24,-73.16 113.37,-57.76 139.5,-42.43 140.95,-41.57 142.43,-40.68 143.91,-39.76"/>
<polygon fill="green" stroke="green" stroke-width="0.13" points="145.79,-42.71 152.29,-34.35 141.99,-36.83 145.79,-42.71"/>
</g>
<!-- M2 -->
<g id="node9" class="node">
<title>M2</title>
<ellipse fill="lightblue" stroke="black" cx="229.5" cy="-21.21" rx="21.43" ry="21.43"/>
<text text-anchor="middle" x="229.5" y="-19.01" font-family="Times New Roman,serif" font-size="9.00">M2</text>
</g>
<!-- X&#45;&gt;M2 -->
<g id="edge2" class="edge">
<title>X&#45;&gt;M2</title>
<path fill="none" stroke="red" stroke-width="0.16" d="M64.43,-81.68C67.38,-80.56 70.54,-79.41 73.5,-78.43 128.76,-60.04 146.7,-67 199.5,-42.43 201.03,-41.72 202.56,-40.93 204.09,-40.1"/>
<polygon fill="red" stroke="red" stroke-width="0.16" points="205.86,-43.12 212.6,-34.94 202.23,-37.13 205.86,-43.12"/>
</g>
<!-- M3 -->
<g id="node10" class="node">
<title>M3</title>
<ellipse fill="lightblue" stroke="black" cx="49.5" cy="-21.21" rx="21.43" ry="21.43"/>
<text text-anchor="middle" x="49.5" y="-19.01" font-family="Times New Roman,serif" font-size="9.00">M3</text>
</g>
<!-- X&#45;&gt;M3 -->
<g id="edge3" class="edge">
<title>X&#45;&gt;M3</title>
<path fill="none" stroke="green" stroke-width="0.45" d="M52.11,-78.03C51.8,-71.54 51.36,-62.13 50.93,-52.88"/>
<polygon fill="green" stroke="green" stroke-width="0.45" points="54.44,-52.87 50.47,-43.04 47.44,-53.2 54.44,-52.87"/>
</g>
<!-- M4 -->
<g id="node11" class="node">
<title>M4</title>
<ellipse fill="lightblue" stroke="black" cx="109.5" cy="-21.21" rx="21.43" ry="21.43"/>
<text text-anchor="middle" x="109.5" y="-19.01" font-family="Times New Roman,serif" font-size="9.00">M4</text>
</g>
<!-- X&#45;&gt;M4 -->
<g id="edge4" class="edge">
<title>X&#45;&gt;M4</title>
<path fill="none" stroke="green" stroke-width="0.26" d="M59.95,-78.03C67.33,-69.72 78.96,-56.62 89.09,-45.2"/>
<polygon fill="green" stroke="green" stroke-width="0.26" points="91.46,-47.81 95.48,-38.01 86.22,-43.16 91.46,-47.81"/>
</g>
<!-- Y -->
<g id="node2" class="node">
<title>Y</title>
<polygon fill="lightgray" stroke="black" points="105,-96.43 82,-96.43 82,-78.43 105,-78.43 105,-96.43"/>
<text text-anchor="middle" x="93.5" y="-85.23" font-family="Times New Roman,serif" font-size="9.00">Y</text>
</g>
<!-- Y&#45;&gt;M1 -->
<g id="edge5" class="edge">
<title>Y&#45;&gt;M1</title>
<path fill="none" stroke="red" stroke-width="0.17" d="M103.44,-78.03C114.16,-68.97 131.63,-54.21 145.91,-42.14"/>
<polygon fill="red" stroke="red" stroke-width="0.17" points="148.08,-44.89 153.46,-35.77 143.56,-39.55 148.08,-44.89"/>
</g>
<!-- Y&#45;&gt;M2 -->
<g id="edge6" class="edge">
<title>Y&#45;&gt;M2</title>
<path fill="none" stroke="red" stroke-width="0.22" d="M105.4,-81.83C129.3,-72.55 182.3,-51.67 199.5,-42.43 200.98,-41.63 202.48,-40.78 203.98,-39.89"/>
<polygon fill="red" stroke="red" stroke-width="0.22" points="205.82,-42.87 212.42,-34.58 202.09,-36.95 205.82,-42.87"/>
</g>
<!-- Y&#45;&gt;M3 -->
<g id="edge7" class="edge">
<title>Y&#45;&gt;M3</title>
<path fill="none" stroke="green" stroke-width="0.12" d="M87.75,-78.03C82.44,-70.28 74.28,-58.37 66.86,-47.54"/>
<polygon fill="green" stroke="green" stroke-width="0.12" points="69.92,-45.83 61.38,-39.56 64.15,-49.78 69.92,-45.83"/>
</g>
<!-- Y&#45;&gt;M4 -->
<g id="edge8" class="edge">
<title>Y&#45;&gt;M4</title>
<path fill="none" stroke="green" stroke-width="0.32" d="M95.59,-78.03C97.25,-71.37 99.68,-61.63 102.04,-52.15"/>
<polygon fill="green" stroke="green" stroke-width="0.32" points="105.42,-53.05 104.45,-42.5 98.63,-51.35 105.42,-53.05"/>
</g>
<!-- V1 -->
<g id="node3" class="node">
<title>V1</title>
<polygon fill="lightgray" stroke="black" points="150,-96.43 123,-96.43 123,-78.43 150,-78.43 150,-96.43"/>
<text text-anchor="middle" x="136.5" y="-85.23" font-family="Times New Roman,serif" font-size="9.00">V1</text>
</g>
<!-- V1&#45;&gt;M1 -->
<g id="edge9" class="edge">
<title>V1&#45;&gt;M1</title>
<path fill="none" stroke="red" stroke-width="0.13" d="M140.81,-78.03C144.54,-70.77 150.15,-59.87 155.42,-49.61"/>
<polygon fill="red" stroke="red" stroke-width="0.13" points="158.45,-51.37 159.91,-40.88 152.22,-48.17 158.45,-51.37"/>
</g>
<!-- V1&#45;&gt;M2 -->
<g id="edge10" class="edge">
<title>V1&#45;&gt;M2</title>
<path fill="none" stroke="red" stroke-width="0.13" d="M148.66,-78.03C162.66,-68.36 186.06,-52.21 204.09,-39.76"/>
<polygon fill="red" stroke="red" stroke-width="0.13" points="205.7,-42.9 211.94,-34.34 201.72,-37.14 205.7,-42.9"/>
</g>
<!-- V1&#45;&gt;M3 -->
<g id="edge11" class="edge">
<title>V1&#45;&gt;M3</title>
<path fill="none" stroke="red" stroke-width="0.27" d="M125.13,-78.03C112.3,-68.57 91.06,-52.89 74.35,-40.55"/>
<polygon fill="red" stroke="red" stroke-width="0.27" points="76.69,-37.93 66.57,-34.81 72.53,-43.56 76.69,-37.93"/>
</g>
<!-- V1&#45;&gt;M4 -->
<g id="edge12" class="edge">
<title>V1&#45;&gt;M4</title>
<path fill="none" stroke="green" stroke-width="0.27" d="M132.97,-78.03C129.99,-70.95 125.56,-60.4 121.34,-50.37"/>
<polygon fill="green" stroke="green" stroke-width="0.27" points="124.68,-49.28 117.57,-41.41 118.22,-51.99 124.68,-49.28"/>
</g>
<!-- V2 -->
<g id="node4" class="node">
<title>V2</title>
<polygon fill="lightgray" stroke="black" points="195,-96.43 168,-96.43 168,-78.43 195,-78.43 195,-96.43"/>
<text text-anchor="middle" x="181.5" y="-85.23" font-family="Times New Roman,serif" font-size="9.00">V2</text>
</g>
<!-- V2&#45;&gt;M1 -->
<g id="edge13" class="edge">
<title>V2&#45;&gt;M1</title>
<path fill="none" stroke="red" stroke-width="0.29" d="M179.93,-78.03C178.7,-71.42 176.89,-61.78 175.13,-52.36"/>
<polygon fill="red" stroke="red" stroke-width="0.29" points="178.62,-51.96 173.34,-42.77 171.74,-53.24 178.62,-51.96"/>
</g>
<!-- V2&#45;&gt;M2 -->
<g id="edge14" class="edge">
<title>V2&#45;&gt;M2</title>
<path fill="none" stroke="red" stroke-width="0.34" d="M187.78,-78.03C193.71,-70.1 202.9,-57.8 211.15,-46.77"/>
<polygon fill="red" stroke="red" stroke-width="0.34" points="213.74,-49.14 216.93,-39.03 208.14,-44.95 213.74,-49.14"/>
</g>
<!-- V2&#45;&gt;M3 -->
<g id="edge15" class="edge">
<title>V2&#45;&gt;M3</title>
<path fill="none" stroke="red" stroke-width="0.19" d="M167.59,-81.37C147.59,-73.9 109.79,-58.98 79.5,-42.43 78.02,-41.62 76.53,-40.76 75.03,-39.87"/>
<polygon fill="red" stroke="red" stroke-width="0.19" points="76.93,-36.93 66.61,-34.53 73.18,-42.84 76.93,-36.93"/>
</g>
<!-- V2&#45;&gt;M4 -->
<g id="edge16" class="edge">
<title>V2&#45;&gt;M4</title>
<path fill="none" stroke="red" stroke-width="0.24" d="M172.09,-78.03C162.05,-69.08 145.79,-54.58 132.36,-42.6"/>
<polygon fill="red" stroke="red" stroke-width="0.24" points="135.04,-40.3 125.25,-36.26 130.38,-45.52 135.04,-40.3"/>
</g>
<!-- V3 -->
<g id="node5" class="node">
<title>V3</title>
<polygon fill="lightgray" stroke="black" points="240,-96.43 213,-96.43 213,-78.43 240,-78.43 240,-96.43"/>
<text text-anchor="middle" x="226.5" y="-85.23" font-family="Times New Roman,serif" font-size="9.00">V3</text>
</g>
<!-- V3&#45;&gt;M1 -->
<g id="edge17" class="edge">
<title>V3&#45;&gt;M1</title>
<path fill="none" stroke="green" stroke-width="0.35" d="M219.05,-78.03C211.67,-69.72 200.04,-56.62 189.91,-45.2"/>
<polygon fill="green" stroke="green" stroke-width="0.35" points="192.78,-43.16 183.52,-38.01 187.54,-47.81 192.78,-43.16"/>
</g>
<!-- V3&#45;&gt;M2 -->
<g id="edge18" class="edge">
<title>V3&#45;&gt;M2</title>
<path fill="none" stroke="green" stroke-width="0.18" d="M226.89,-78.03C227.2,-71.54 227.64,-62.13 228.07,-52.88"/>
<polygon fill="green" stroke="green" stroke-width="0.18" points="231.56,-53.2 228.53,-43.04 224.56,-52.87 231.56,-53.2"/>
</g>
<!-- V3&#45;&gt;M3 -->
<g id="edge19" class="edge">
<title>V3&#45;&gt;M3</title>
<path fill="none" stroke="red" stroke-width="0.64" d="M212.58,-81.2C209.91,-80.25 207.13,-79.28 204.5,-78.43 149.52,-60.54 131.89,-66.88 79.5,-42.43 77.97,-41.71 76.44,-40.93 74.91,-40.1"/>
<polygon fill="red" stroke="red" stroke-width="0.64" points="76.77,-37.13 66.4,-34.94 73.14,-43.11 76.77,-37.13"/>
</g>
<!-- V3&#45;&gt;M4 -->
<g id="edge20" class="edge">
<title>V3&#45;&gt;M4</title>
<path fill="none" stroke="green" stroke-width="0.11" d="M212.66,-80.08C195.25,-71.96 164.61,-57.16 139.5,-42.43 138.05,-41.57 136.57,-40.68 135.09,-39.76"/>
<polygon fill="green" stroke="green" stroke-width="0.11" points="137.01,-36.83 126.71,-34.35 133.21,-42.71 137.01,-36.83"/>
</g>
<!-- V4 -->
<g id="node6" class="node">
<title>V4</title>
<polygon fill="lightgray" stroke="black" points="285,-96.43 258,-96.43 258,-78.43 285,-78.43 285,-96.43"/>
<text text-anchor="middle" x="271.5" y="-85.23" font-family="Times New Roman,serif" font-size="9.00">V4</text>
</g>
<!-- V4&#45;&gt;M1 -->
<g id="edge21" class="edge">
<title>V4&#45;&gt;M1</title>
<path fill="none" stroke="red" stroke-width="0.21" d="M257.58,-78.17C243,-69.46 219.47,-55.25 199.5,-42.43 198.08,-41.52 196.63,-40.58 195.17,-39.62"/>
<polygon fill="red" stroke="red" stroke-width="0.21" points="197.13,-36.72 186.86,-34.1 193.26,-42.55 197.13,-36.72"/>
</g>
<!-- V4&#45;&gt;M2 -->
<g id="edge22" class="edge">
<title>V4&#45;&gt;M2</title>
<path fill="none" stroke="red" stroke-width="0.28" d="M266.01,-78.03C261.03,-70.41 253.41,-58.77 246.42,-48.09"/>
<polygon fill="red" stroke="red" stroke-width="0.28" points="249.42,-46.27 241.01,-39.82 243.56,-50.1 249.42,-46.27"/>
</g>
<!-- V4&#45;&gt;M3 -->
<g id="edge23" class="edge">
<title>V4&#45;&gt;M3</title>
<path fill="none" stroke="red" stroke-width="0.26" d="M257.63,-81.05C254.95,-80.11 252.16,-79.19 249.5,-78.43 175.25,-57.18 150.61,-72.56 79.5,-42.43 77.95,-41.77 76.39,-41.03 74.85,-40.23"/>
<polygon fill="red" stroke="red" stroke-width="0.26" points="76.69,-37.25 66.3,-35.17 73.13,-43.27 76.69,-37.25"/>
</g>
<!-- V4&#45;&gt;M4 -->
<g id="edge24" class="edge">
<title>V4&#45;&gt;M4</title>
<path fill="none" stroke="green" stroke-width="0.17" d="M257.56,-81.28C254.89,-80.32 252.11,-79.33 249.5,-78.43 200.88,-61.63 185.72,-65.01 139.5,-42.43 137.99,-41.69 136.46,-40.88 134.94,-40.03"/>
<polygon fill="green" stroke="green" stroke-width="0.17" points="136.81,-37.07 126.46,-34.82 133.15,-43.04 136.81,-37.07"/>
</g>
<!-- A -->
<g id="node7" class="node">
<title>A</title>
<polygon fill="lightgray" stroke="black" points="23,-96.43 0,-96.43 0,-78.43 23,-78.43 23,-96.43"/>
<text text-anchor="middle" x="11.5" y="-85.23" font-family="Times New Roman,serif" font-size="9.00">A</text>
</g>
<!-- A&#45;&gt;M1 -->
<g id="edge25" class="edge">
<title>A&#45;&gt;M1</title>
<path fill="none" stroke="green" stroke-width="0.11" d="M23.46,-81.78C26.41,-80.66 29.56,-79.48 32.5,-78.43 79.73,-61.49 94.51,-64.64 139.5,-42.43 141.01,-41.68 142.53,-40.87 144.05,-40.01"/>
<polygon fill="green" stroke="green" stroke-width="0.11" points="145.85,-43.02 152.53,-34.79 142.18,-37.06 145.85,-43.02"/>
</g>
<!-- A&#45;&gt;M2 -->
<g id="edge26" class="edge">
<title>A&#45;&gt;M2</title>
<path fill="none" stroke="red" stroke-width="0.45" d="M23.39,-81.54C26.33,-80.43 29.51,-79.31 32.5,-78.43 105.3,-56.85 129.64,-72.18 199.5,-42.43 201.05,-41.77 202.6,-41.02 204.14,-40.22"/>
<polygon fill="red" stroke="red" stroke-width="0.45" points="205.87,-43.26 212.69,-35.16 202.31,-37.24 205.87,-43.26"/>
</g>
<!-- A&#45;&gt;M3 -->
<g id="edge27" class="edge">
<title>A&#45;&gt;M3</title>
<path fill="none" stroke="green" stroke-width="0.22" d="M16.47,-78.03C20.9,-70.54 27.63,-59.16 33.87,-48.63"/>
<polygon fill="green" stroke="green" stroke-width="0.22" points="36.85,-50.47 38.93,-40.08 30.82,-46.9 36.85,-50.47"/>
</g>
<!-- A&#45;&gt;M4 -->
<g id="edge28" class="edge">
<title>A&#45;&gt;M4</title>
<path fill="none" stroke="red" stroke-width="0.28" d="M23.09,-79.02C36.66,-70.32 59.79,-55.44 79.5,-42.43 80.91,-41.5 82.35,-40.54 83.8,-39.58"/>
<polygon fill="red" stroke="red" stroke-width="0.28" points="85.73,-42.5 92.09,-34.03 81.83,-36.68 85.73,-42.5"/>
</g>
</g>
</svg>
