<?xml version="1.0" encoding="UTF-8" standalone="no"?>
<!DOCTYPE svg PUBLIC "-//W3C//DTD SVG 1.1//EN"
 "http://www.w3.org/Graphics/SVG/1.1/DTD/svg11.dtd">
<!-- Generated by graphviz version 8.0.3 (20230416.2022)
 -->
<!-- Pages: 1 -->
<svg width="110pt" height="104pt"
 viewBox="0.00 0.00 110.43 104.43" xmlns="http://www.w3.org/2000/svg" xmlns:xlink="http://www.w3.org/1999/xlink">
<g id="graph0" class="graph" transform="scale(1 1) rotate(0) translate(4 100.43)">
<polygon fill="white" stroke="none" points="-4,4 -4,-100.43 106.43,-100.43 106.43,4 -4,4"/>
<!-- X -->
<g id="node1" class="node">
<title>X</title>
<polygon fill="lightgray" stroke="black" points="32.71,-96.43 9.71,-96.43 9.71,-78.43 32.71,-78.43 32.71,-96.43"/>
<text text-anchor="middle" x="21.21" y="-85.23" font-family="Times New Roman,serif" font-size="9.00">X</text>
</g>
<!-- M1 -->
<g id="node3" class="node">
<title>M1</title>
<ellipse fill="lightblue" stroke="black" cx="21.21" cy="-21.21" rx="21.43" ry="21.43"/>
<text text-anchor="middle" x="21.21" y="-19.01" font-family="Times New Roman,serif" font-size="9.00">M1</text>
</g>
<!-- X&#45;&gt;M1 -->
<g id="edge2" class="edge">
<title>X&#45;&gt;M1</title>
<path fill="none" stroke="green" stroke-width="0.28" d="M21.21,-78.03C21.21,-71.54 21.21,-62.13 21.21,-52.88"/>
<polygon fill="green" stroke="green" stroke-width="0.28" points="24.71,-53.04 21.21,-43.04 17.71,-53.04 24.71,-53.04"/>
</g>
<!-- Y -->
<g id="node2" class="node">
<title>Y</title>
<polygon fill="lightgray" stroke="black" points="92.71,-96.43 69.71,-96.43 69.71,-78.43 92.71,-78.43 92.71,-96.43"/>
<text text-anchor="middle" x="81.21" y="-85.23" font-family="Times New Roman,serif" font-size="9.00">Y</text>
</g>
<!-- M2 -->
<g id="node4" class="node">
<title>M2</title>
<ellipse fill="lightblue" stroke="black" cx="81.21" cy="-21.21" rx="21.43" ry="21.43"/>
<text text-anchor="middle" x="81.21" y="-19.01" font-family="Times New Roman,serif" font-size="9.00">M2</text>
</g>
<!-- Y&#45;&gt;M2 -->
<g id="edge1" class="edge">
<title>Y&#45;&gt;M2</title>
<path fill="none" stroke="green" stroke-width="0.44" d="M81.21,-78.03C81.21,-71.54 81.21,-62.13 81.21,-52.88"/>
<polygon fill="green" stroke="green" stroke-width="0.44" points="84.71,-53.04 81.21,-43.04 77.71,-53.04 84.71,-53.04"/>
</g>
</g>
</svg>
