<?xml version="1.0" encoding="UTF-8" standalone="no"?>
<!DOCTYPE svg PUBLIC "-//W3C//DTD SVG 1.1//EN"
 "http://www.w3.org/Graphics/SVG/1.1/DTD/svg11.dtd">
<!-- Generated by graphviz version 8.0.3 (20230416.2022)
 -->
<!-- Pages: 1 -->
<svg width="410pt" height="104pt"
 viewBox="0.00 0.00 409.71 104.43" xmlns="http://www.w3.org/2000/svg" xmlns:xlink="http://www.w3.org/1999/xlink">
<g id="graph0" class="graph" transform="scale(1 1) rotate(0) translate(4 100.43)">
<polygon fill="white" stroke="none" points="-4,4 -4,-100.43 405.71,-100.43 405.71,4 -4,4"/>
<!-- X -->
<g id="node1" class="node">
<title>X</title>
<polygon fill="lightgray" stroke="black" points="36.71,-96.43 13.71,-96.43 13.71,-78.43 36.71,-78.43 36.71,-96.43"/>
<text text-anchor="middle" x="25.21" y="-85.23" font-family="Times New Roman,serif" font-size="9.00">X</text>
</g>
<!-- M2 -->
<g id="node10" class="node">
<title>M2</title>
<ellipse fill="lightblue" stroke="black" cx="21.21" cy="-21.21" rx="21.43" ry="21.43"/>
<text text-anchor="middle" x="21.21" y="-19.01" font-family="Times New Roman,serif" font-size="9.00">M2</text>
</g>
<!-- X&#45;&gt;M2 -->
<g id="edge1" class="edge">
<title>X&#45;&gt;M2</title>
<path fill="none" stroke="green" stroke-width="1.15" d="M24.69,-78.03C24.3,-71.75 23.74,-62.73 23.18,-53.76"/>
<polygon fill="green" stroke="green" stroke-width="1.15" points="26.63,-53.81 22.51,-44.04 19.64,-54.24 26.63,-53.81"/>
</g>
<!-- M4 -->
<g id="node12" class="node">
<title>M4</title>
<ellipse fill="lightblue" stroke="black" cx="81.21" cy="-21.21" rx="21.43" ry="21.43"/>
<text text-anchor="middle" x="81.21" y="-19.01" font-family="Times New Roman,serif" font-size="9.00">M4</text>
</g>
<!-- X&#45;&gt;M4 -->
<g id="edge2" class="edge">
<title>X&#45;&gt;M4</title>
<path fill="none" stroke="red" stroke-width="1.2" d="M32.53,-78.03C39.57,-69.96 50.56,-57.37 60.31,-46.18"/>
<polygon fill="red" stroke="red" stroke-width="1.2" points="62.51,-48.84 66.44,-39.01 57.23,-44.24 62.51,-48.84"/>
</g>
<!-- Y -->
<g id="node2" class="node">
<title>Y</title>
<polygon fill="lightgray" stroke="black" points="182.71,-96.43 159.71,-96.43 159.71,-78.43 182.71,-78.43 182.71,-96.43"/>
<text text-anchor="middle" x="171.21" y="-85.23" font-family="Times New Roman,serif" font-size="9.00">Y</text>
</g>
<!-- M1 -->
<g id="node9" class="node">
<title>M1</title>
<ellipse fill="lightblue" stroke="black" cx="141.21" cy="-21.21" rx="21.43" ry="21.43"/>
<text text-anchor="middle" x="141.21" y="-19.01" font-family="Times New Roman,serif" font-size="9.00">M1</text>
</g>
<!-- Y&#45;&gt;M1 -->
<g id="edge3" class="edge">
<title>Y&#45;&gt;M1</title>
<path fill="none" stroke="green" stroke-width="2.44" d="M167.29,-78.03C164.23,-71.48 159.78,-61.96 155.42,-52.63"/>
<polygon fill="green" stroke="green" stroke-width="2.44" points="158.46,-51.72 151.06,-44.15 152.12,-54.69 158.46,-51.72"/>
</g>
<!-- M3 -->
<g id="node11" class="node">
<title>M3</title>
<ellipse fill="lightblue" stroke="black" cx="201.21" cy="-21.21" rx="21.43" ry="21.43"/>
<text text-anchor="middle" x="201.21" y="-19.01" font-family="Times New Roman,serif" font-size="9.00">M3</text>
</g>
<!-- Y&#45;&gt;M3 -->
<g id="edge4" class="edge">
<title>Y&#45;&gt;M3</title>
<path fill="none" stroke="red" stroke-width="0.36" d="M175.14,-78.03C178.47,-70.9 183.45,-60.24 188.16,-50.14"/>
<polygon fill="red" stroke="red" stroke-width="0.36" points="191.31,-51.69 192.37,-41.15 184.96,-48.72 191.31,-51.69"/>
</g>
<!-- Δθ -->
<g id="node3" class="node">
<title>Δθ</title>
<polygon fill="lightgray" stroke="black" points="227.71,-96.43 200.71,-96.43 200.71,-78.43 227.71,-78.43 227.71,-96.43"/>
<text text-anchor="middle" x="214.21" y="-85.23" font-family="Times New Roman,serif" font-size="9.00">Δθ</text>
</g>
<!-- θ -->
<g id="node4" class="node">
<title>θ</title>
<polygon fill="lightgray" stroke="black" points="266.71,-96.43 245.71,-96.43 245.71,-78.43 266.71,-78.43 266.71,-96.43"/>
<text text-anchor="middle" x="256.21" y="-85.23" font-family="Times New Roman,serif" font-size="9.00">θ</text>
</g>
<!-- V1 -->
<g id="node5" class="node">
<title>V1</title>
<polygon fill="lightgray" stroke="black" points="89.71,-96.43 62.71,-96.43 62.71,-78.43 89.71,-78.43 89.71,-96.43"/>
<text text-anchor="middle" x="76.21" y="-85.23" font-family="Times New Roman,serif" font-size="9.00">V1</text>
</g>
<!-- V1&#45;&gt;M2 -->
<g id="edge6" class="edge">
<title>V1&#45;&gt;M2</title>
<path fill="none" stroke="green" stroke-width="0.3" d="M69.02,-78.03C62.02,-69.86 51.05,-57.04 41.38,-45.76"/>
<polygon fill="green" stroke="green" stroke-width="0.3" points="44.12,-43.58 34.96,-38.26 38.81,-48.13 44.12,-43.58"/>
</g>
<!-- V1&#45;&gt;M4 -->
<g id="edge5" class="edge">
<title>V1&#45;&gt;M4</title>
<path fill="none" stroke="green" stroke-width="0.29" d="M76.87,-78.03C77.37,-71.54 78.11,-62.13 78.83,-52.88"/>
<polygon fill="green" stroke="green" stroke-width="0.29" points="82.3,-53.29 79.59,-43.04 75.33,-52.74 82.3,-53.29"/>
</g>
<!-- V2 -->
<g id="node6" class="node">
<title>V2</title>
<polygon fill="lightgray" stroke="black" points="311.71,-96.43 284.71,-96.43 284.71,-78.43 311.71,-78.43 311.71,-96.43"/>
<text text-anchor="middle" x="298.21" y="-85.23" font-family="Times New Roman,serif" font-size="9.00">V2</text>
</g>
<!-- V3 -->
<g id="node7" class="node">
<title>V3</title>
<polygon fill="lightgray" stroke="black" points="356.71,-96.43 329.71,-96.43 329.71,-78.43 356.71,-78.43 356.71,-96.43"/>
<text text-anchor="middle" x="343.21" y="-85.23" font-family="Times New Roman,serif" font-size="9.00">V3</text>
</g>
<!-- V4 -->
<g id="node8" class="node">
<title>V4</title>
<polygon fill="lightgray" stroke="black" points="401.71,-96.43 374.71,-96.43 374.71,-78.43 401.71,-78.43 401.71,-96.43"/>
<text text-anchor="middle" x="388.21" y="-85.23" font-family="Times New Roman,serif" font-size="9.00">V4</text>
</g>
</g>
</svg>
