<?xml version="1.0" encoding="UTF-8" standalone="no"?>
<!DOCTYPE svg PUBLIC "-//W3C//DTD SVG 1.1//EN"
 "http://www.w3.org/Graphics/SVG/1.1/DTD/svg11.dtd">
<!-- Generated by graphviz version 8.0.3 (20230416.2022)
 -->
<!-- Pages: 1 -->
<svg width="390pt" height="190pt"
 viewBox="0.00 0.00 389.71 189.92" xmlns="http://www.w3.org/2000/svg" xmlns:xlink="http://www.w3.org/1999/xlink">
<g id="graph0" class="graph" transform="scale(1 1) rotate(0) translate(4 185.92)">
<polygon fill="white" stroke="none" points="-4,4 -4,-185.92 385.71,-185.92 385.71,4 -4,4"/>
<!-- X -->
<g id="node1" class="node">
<title>X</title>
<polygon fill="lightgray" stroke="black" points="35.71,-112.18 12.71,-112.18 12.71,-94.18 35.71,-94.18 35.71,-112.18"/>
<text text-anchor="middle" x="24.21" y="-100.98" font-family="Times New Roman,serif" font-size="9.00">X</text>
</g>
<!-- M2 -->
<g id="node10" class="node">
<title>M2</title>
<ellipse fill="lightblue" stroke="black" cx="21.21" cy="-21.21" rx="21.43" ry="21.43"/>
<text text-anchor="middle" x="21.21" y="-19.01" font-family="Times New Roman,serif" font-size="9.00">M2</text>
</g>
<!-- X&#45;&gt;M2 -->
<g id="edge1" class="edge">
<title>X&#45;&gt;M2</title>
<path fill="none" stroke="green" stroke-width="0.58" d="M23.9,-93.92C23.54,-84.26 22.92,-67.7 22.37,-52.93"/>
<polygon fill="green" stroke="green" stroke-width="0.58" points="25.87,-52.95 22,-43.09 18.87,-53.21 25.87,-52.95"/>
</g>
<!-- M4 -->
<g id="node12" class="node">
<title>M4</title>
<ellipse fill="lightblue" stroke="black" cx="81.21" cy="-21.21" rx="21.43" ry="21.43"/>
<text text-anchor="middle" x="81.21" y="-19.01" font-family="Times New Roman,serif" font-size="9.00">M4</text>
</g>
<!-- X&#45;&gt;M4 -->
<g id="edge2" class="edge">
<title>X&#45;&gt;M4</title>
<path fill="none" stroke="red" stroke-width="0.72" d="M30.1,-93.92C37.75,-83.18 51.49,-63.91 62.79,-48.05"/>
<polygon fill="red" stroke="red" stroke-width="0.72" points="66.15,-49.37 69.1,-39.2 60.45,-45.31 66.15,-49.37"/>
</g>
<!-- Y -->
<g id="node2" class="node">
<title>Y</title>
<polygon fill="lightgray" stroke="black" points="207.71,-181.92 184.71,-181.92 184.71,-163.92 207.71,-163.92 207.71,-181.92"/>
<text text-anchor="middle" x="196.21" y="-170.72" font-family="Times New Roman,serif" font-size="9.00">Y</text>
</g>
<!-- M1 -->
<g id="node9" class="node">
<title>M1</title>
<ellipse fill="lightblue" stroke="black" cx="145.21" cy="-103.18" rx="21.43" ry="21.43"/>
<text text-anchor="middle" x="145.21" y="-100.98" font-family="Times New Roman,serif" font-size="9.00">M1</text>
</g>
<!-- Y&#45;&gt;M1 -->
<g id="edge3" class="edge">
<title>Y&#45;&gt;M1</title>
<path fill="none" stroke="green" stroke-width="0.88" d="M189.96,-163.62C183.6,-155.17 173.42,-141.65 164.38,-129.64"/>
<polygon fill="green" stroke="green" stroke-width="0.88" points="166.58,-127.74 157.77,-121.86 160.99,-131.95 166.58,-127.74"/>
</g>
<!-- M3 -->
<g id="node11" class="node">
<title>M3</title>
<ellipse fill="lightblue" stroke="black" cx="205.21" cy="-103.18" rx="21.43" ry="21.43"/>
<text text-anchor="middle" x="205.21" y="-100.98" font-family="Times New Roman,serif" font-size="9.00">M3</text>
</g>
<!-- Y&#45;&gt;M3 -->
<g id="edge4" class="edge">
<title>Y&#45;&gt;M3</title>
<path fill="none" stroke="red" stroke-width="0.98" d="M197.32,-163.62C198.25,-156.56 199.66,-145.96 201.03,-135.66"/>
<polygon fill="red" stroke="red" stroke-width="0.98" points="204.63,-136.15 202.48,-125.78 197.69,-135.23 204.63,-136.15"/>
</g>
<!-- Δθ -->
<g id="node3" class="node">
<title>Δθ</title>
<polygon fill="lightgray" stroke="black" points="252.71,-181.92 225.71,-181.92 225.71,-163.92 252.71,-163.92 252.71,-181.92"/>
<text text-anchor="middle" x="239.21" y="-170.72" font-family="Times New Roman,serif" font-size="9.00">Δθ</text>
</g>
<!-- θ -->
<g id="node4" class="node">
<title>θ</title>
<polygon fill="lightgray" stroke="black" points="291.71,-181.92 270.71,-181.92 270.71,-163.92 291.71,-163.92 291.71,-181.92"/>
<text text-anchor="middle" x="281.21" y="-170.72" font-family="Times New Roman,serif" font-size="9.00">θ</text>
</g>
<!-- V1 -->
<g id="node5" class="node">
<title>V1</title>
<polygon fill="lightgray" stroke="black" points="94.71,-181.92 67.71,-181.92 67.71,-163.92 94.71,-163.92 94.71,-181.92"/>
<text text-anchor="middle" x="81.21" y="-170.72" font-family="Times New Roman,serif" font-size="9.00">V1</text>
</g>
<!-- 8288 -->
<g id="node13" class="node">
<title>8288</title>
<ellipse fill="white" stroke="black" cx="81.21" cy="-103.18" rx="25" ry="25"/>
<text text-anchor="middle" x="81.21" y="-100.98" font-family="Times New Roman,serif" font-size="9.00">8288</text>
</g>
<!-- V1&#45;&gt;8288 -->
<g id="edge5" class="edge">
<title>V1&#45;&gt;8288</title>
<path fill="none" stroke="green" stroke-width="0.13" d="M81.21,-163.62C81.21,-157.17 81.21,-147.76 81.21,-138.32"/>
<polygon fill="green" stroke="green" stroke-width="0.13" points="84.71,-138.6 81.21,-128.6 77.71,-138.6 84.71,-138.6"/>
</g>
<!-- V2 -->
<g id="node6" class="node">
<title>V2</title>
<polygon fill="lightgray" stroke="black" points="336.71,-181.92 309.71,-181.92 309.71,-163.92 336.71,-163.92 336.71,-181.92"/>
<text text-anchor="middle" x="323.21" y="-170.72" font-family="Times New Roman,serif" font-size="9.00">V2</text>
</g>
<!-- V3 -->
<g id="node7" class="node">
<title>V3</title>
<polygon fill="lightgray" stroke="black" points="381.71,-181.92 354.71,-181.92 354.71,-163.92 381.71,-163.92 381.71,-181.92"/>
<text text-anchor="middle" x="368.21" y="-170.72" font-family="Times New Roman,serif" font-size="9.00">V3</text>
</g>
<!-- V4 -->
<g id="node8" class="node">
<title>V4</title>
<polygon fill="lightgray" stroke="black" points="158.71,-181.92 131.71,-181.92 131.71,-163.92 158.71,-163.92 158.71,-181.92"/>
<text text-anchor="middle" x="145.21" y="-170.72" font-family="Times New Roman,serif" font-size="9.00">V4</text>
</g>
<!-- V4&#45;&gt;M1 -->
<g id="edge7" class="edge">
<title>V4&#45;&gt;M1</title>
<path fill="none" stroke="red" stroke-width="0.28" d="M145.21,-163.62C145.21,-156.39 145.21,-145.44 145.21,-134.91"/>
<polygon fill="red" stroke="red" stroke-width="0.28" points="148.71,-135.07 145.21,-125.07 141.71,-135.07 148.71,-135.07"/>
</g>
<!-- 8288&#45;&gt;M4 -->
<g id="edge6" class="edge">
<title>8288&#45;&gt;M4</title>
<path fill="none" stroke="red" stroke-width="0.19" d="M81.21,-77.75C81.21,-69.93 81.21,-61.18 81.21,-52.97"/>
<polygon fill="red" stroke="red" stroke-width="0.19" points="84.71,-52.98 81.21,-42.98 77.71,-52.98 84.71,-52.98"/>
</g>
</g>
</svg>
