<?xml version="1.0" encoding="UTF-8" standalone="no"?>
<!DOCTYPE svg PUBLIC "-//W3C//DTD SVG 1.1//EN"
 "http://www.w3.org/Graphics/SVG/1.1/DTD/svg11.dtd">
<!-- Generated by graphviz version 8.0.3 (20230416.2022)
 -->
<!-- Pages: 1 -->
<svg width="498pt" height="183pt"
 viewBox="0.00 0.00 498.00 182.85" xmlns="http://www.w3.org/2000/svg" xmlns:xlink="http://www.w3.org/1999/xlink">
<g id="graph0" class="graph" transform="scale(1 1) rotate(0) translate(4 178.85)">
<polygon fill="white" stroke="none" points="-4,4 -4,-178.85 494,-178.85 494,4 -4,4"/>
<!-- X -->
<g id="node1" class="node">
<title>X</title>
<polygon fill="lightgray" stroke="black" points="312,-174.85 289,-174.85 289,-156.85 312,-156.85 312,-174.85"/>
<text text-anchor="middle" x="300.5" y="-163.65" font-family="Times New Roman,serif" font-size="9.00">X</text>
</g>
<!-- M1 -->
<g id="node9" class="node">
<title>M1</title>
<ellipse fill="lightblue" stroke="black" cx="300.5" cy="-99.64" rx="21.43" ry="21.43"/>
<text text-anchor="middle" x="300.5" y="-97.44" font-family="Times New Roman,serif" font-size="9.00">M1</text>
</g>
<!-- X&#45;&gt;M1 -->
<g id="edge1" class="edge">
<title>X&#45;&gt;M1</title>
<path fill="none" stroke="red" stroke-width="0.71" d="M300.5,-156.46C300.5,-150.17 300.5,-141.15 300.5,-132.19"/>
<polygon fill="red" stroke="red" stroke-width="0.71" points="304,-132.47 300.5,-122.47 297,-132.47 304,-132.47"/>
</g>
<!-- M3 -->
<g id="node11" class="node">
<title>M3</title>
<ellipse fill="lightblue" stroke="black" cx="202.5" cy="-99.64" rx="21.43" ry="21.43"/>
<text text-anchor="middle" x="202.5" y="-97.44" font-family="Times New Roman,serif" font-size="9.00">M3</text>
</g>
<!-- X&#45;&gt;M3 -->
<g id="edge2" class="edge">
<title>X&#45;&gt;M3</title>
<path fill="none" stroke="green" stroke-width="0.4" d="M288.87,-157.23C274.03,-147.51 247.93,-130.41 228.3,-117.54"/>
<polygon fill="green" stroke="green" stroke-width="0.4" points="230.35,-114.7 220.06,-112.15 226.51,-120.56 230.35,-114.7"/>
</g>
<!-- M4 -->
<g id="node12" class="node">
<title>M4</title>
<ellipse fill="lightblue" stroke="black" cx="360.5" cy="-99.64" rx="21.43" ry="21.43"/>
<text text-anchor="middle" x="360.5" y="-97.44" font-family="Times New Roman,serif" font-size="9.00">M4</text>
</g>
<!-- X&#45;&gt;M4 -->
<g id="edge3" class="edge">
<title>X&#45;&gt;M4</title>
<path fill="none" stroke="red" stroke-width="0.11" d="M308.34,-156.46C316.21,-148.04 328.68,-134.7 339.45,-123.17"/>
<polygon fill="red" stroke="red" stroke-width="0.11" points="341.95,-125.62 346.22,-115.93 336.83,-120.84 341.95,-125.62"/>
</g>
<!-- Y -->
<g id="node2" class="node">
<title>Y</title>
<polygon fill="lightgray" stroke="black" points="267,-174.85 244,-174.85 244,-156.85 267,-156.85 267,-174.85"/>
<text text-anchor="middle" x="255.5" y="-163.65" font-family="Times New Roman,serif" font-size="9.00">Y</text>
</g>
<!-- Y&#45;&gt;M1 -->
<g id="edge4" class="edge">
<title>Y&#45;&gt;M1</title>
<path fill="none" stroke="red" stroke-width="0.22" d="M261.38,-156.46C266.85,-148.66 275.28,-136.63 282.91,-125.74"/>
<polygon fill="red" stroke="red" stroke-width="0.22" points="285.66,-127.92 288.53,-117.72 279.92,-123.9 285.66,-127.92"/>
</g>
<!-- M2 -->
<g id="node10" class="node">
<title>M2</title>
<ellipse fill="lightblue" stroke="black" cx="153.5" cy="-21.21" rx="21.43" ry="21.43"/>
<text text-anchor="middle" x="153.5" y="-19.01" font-family="Times New Roman,serif" font-size="9.00">M2</text>
</g>
<!-- Y&#45;&gt;M2 -->
<g id="edge5" class="edge">
<title>Y&#45;&gt;M2</title>
<path fill="none" stroke="red" stroke-width="0.56" d="M255.13,-156.46C254.02,-140.05 249.66,-103.18 232.5,-78.43 219.6,-59.81 198.43,-45.24 181.26,-35.6"/>
<polygon fill="red" stroke="red" stroke-width="0.56" points="183.17,-32.65 172.71,-31.01 179.86,-38.82 183.17,-32.65"/>
</g>
<!-- Y&#45;&gt;M3 -->
<g id="edge6" class="edge">
<title>Y&#45;&gt;M3</title>
<path fill="none" stroke="red" stroke-width="0.19" d="M248.57,-156.46C241.87,-148.34 231.39,-135.64 222.12,-124.41"/>
<polygon fill="red" stroke="red" stroke-width="0.19" points="225.02,-122.43 215.96,-116.94 219.62,-126.88 225.02,-122.43"/>
</g>
<!-- Y&#45;&gt;M4 -->
<g id="edge7" class="edge">
<title>Y&#45;&gt;M4</title>
<path fill="none" stroke="green" stroke-width="0.5" d="M267.33,-158.22C282.22,-149.79 308.52,-134.68 330.5,-120.85 331.93,-119.96 333.38,-119.03 334.85,-118.08"/>
<polygon fill="green" stroke="green" stroke-width="0.5" points="336.75,-121.01 343.17,-112.58 332.9,-115.17 336.75,-121.01"/>
</g>
<!-- Δθ -->
<g id="node3" class="node">
<title>Δθ</title>
<polygon fill="lightgray" stroke="black" points="118,-174.85 91,-174.85 91,-156.85 118,-156.85 118,-174.85"/>
<text text-anchor="middle" x="104.5" y="-163.65" font-family="Times New Roman,serif" font-size="9.00">Δθ</text>
</g>
<!-- Δθ&#45;&gt;M2 -->
<g id="edge8" class="edge">
<title>Δθ&#45;&gt;M2</title>
<path fill="none" stroke="red" stroke-width="0.27" d="M96.57,-156.58C89.22,-148.3 78.81,-134.81 74.5,-120.85 68.94,-102.83 65.86,-95.18 74.5,-78.43 85.01,-58.04 106.71,-43.43 124.71,-34.23"/>
<polygon fill="red" stroke="red" stroke-width="0.27" points="126.22,-37.39 133.71,-29.9 123.18,-31.08 126.22,-37.39"/>
</g>
<!-- Δθ&#45;&gt;M3 -->
<g id="edge9" class="edge">
<title>Δθ&#45;&gt;M3</title>
<path fill="none" stroke="green" stroke-width="0.33" d="M117.31,-156.46C132.25,-146.67 157.32,-130.24 176.41,-117.73"/>
<polygon fill="green" stroke="green" stroke-width="0.33" points="178.26,-120.71 184.7,-112.3 174.42,-114.85 178.26,-120.71"/>
</g>
<!-- 310 -->
<g id="node14" class="node">
<title>310</title>
<ellipse fill="white" stroke="black" cx="104.5" cy="-99.64" rx="21.43" ry="21.43"/>
<text text-anchor="middle" x="104.5" y="-97.44" font-family="Times New Roman,serif" font-size="9.00">310</text>
</g>
<!-- Δθ&#45;&gt;310 -->
<g id="edge20" class="edge">
<title>Δθ&#45;&gt;310</title>
<path fill="none" stroke="red" stroke-width="0.13" d="M104.5,-156.46C104.5,-149.97 104.5,-140.55 104.5,-131.3"/>
<polygon fill="red" stroke="red" stroke-width="0.13" points="108,-131.47 104.5,-121.47 101,-131.47 108,-131.47"/>
</g>
<!-- θ -->
<g id="node4" class="node">
<title>θ</title>
<polygon fill="lightgray" stroke="black" points="490,-174.85 469,-174.85 469,-156.85 490,-156.85 490,-174.85"/>
<text text-anchor="middle" x="479.5" y="-163.65" font-family="Times New Roman,serif" font-size="9.00">θ</text>
</g>
<!-- V1 -->
<g id="node5" class="node">
<title>V1</title>
<polygon fill="lightgray" stroke="black" points="374,-174.85 347,-174.85 347,-156.85 374,-156.85 374,-174.85"/>
<text text-anchor="middle" x="360.5" y="-163.65" font-family="Times New Roman,serif" font-size="9.00">V1</text>
</g>
<!-- V1&#45;&gt;M1 -->
<g id="edge10" class="edge">
<title>V1&#45;&gt;M1</title>
<path fill="none" stroke="green" stroke-width="0.49" d="M352.66,-156.46C344.79,-148.04 332.32,-134.7 321.55,-123.17"/>
<polygon fill="green" stroke="green" stroke-width="0.49" points="324.17,-120.84 314.78,-115.93 319.05,-125.62 324.17,-120.84"/>
</g>
<!-- V1&#45;&gt;M4 -->
<g id="edge11" class="edge">
<title>V1&#45;&gt;M4</title>
<path fill="none" stroke="green" stroke-width="0.24" d="M360.5,-156.46C360.5,-149.97 360.5,-140.55 360.5,-131.3"/>
<polygon fill="green" stroke="green" stroke-width="0.24" points="364,-131.47 360.5,-121.47 357,-131.47 364,-131.47"/>
</g>
<!-- 872 -->
<g id="node13" class="node">
<title>872</title>
<ellipse fill="white" stroke="black" cx="420.5" cy="-99.64" rx="21.43" ry="21.43"/>
<text text-anchor="middle" x="420.5" y="-97.44" font-family="Times New Roman,serif" font-size="9.00">872</text>
</g>
<!-- V1&#45;&gt;872 -->
<g id="edge21" class="edge">
<title>V1&#45;&gt;872</title>
<path fill="none" stroke="green" stroke-width="0.24" d="M368.34,-156.46C376.21,-148.04 388.68,-134.7 399.45,-123.17"/>
<polygon fill="green" stroke="green" stroke-width="0.24" points="401.95,-125.62 406.22,-115.93 396.83,-120.84 401.95,-125.62"/>
</g>
<!-- V2 -->
<g id="node6" class="node">
<title>V2</title>
<polygon fill="lightgray" stroke="black" points="451,-174.85 424,-174.85 424,-156.85 451,-156.85 451,-174.85"/>
<text text-anchor="middle" x="437.5" y="-163.65" font-family="Times New Roman,serif" font-size="9.00">V2</text>
</g>
<!-- V2&#45;&gt;M1 -->
<g id="edge12" class="edge">
<title>V2&#45;&gt;M1</title>
<path fill="none" stroke="red" stroke-width="0.18" d="M423.58,-160.15C402.77,-152.9 362.55,-138.01 330.5,-120.85 329.02,-120.06 327.51,-119.21 326.01,-118.32"/>
<polygon fill="red" stroke="red" stroke-width="0.18" points="327.91,-115.38 317.58,-113.01 324.18,-121.3 327.91,-115.38"/>
</g>
<!-- V2&#45;&gt;M2 -->
<g id="edge13" class="edge">
<title>V2&#45;&gt;M2</title>
<path fill="none" stroke="green" stroke-width="0.58" d="M442.43,-156.61C451.77,-139.82 469.47,-101.33 450.5,-78.43 416.98,-37.97 254.22,-26.41 184.88,-23.29"/>
<polygon fill="green" stroke="green" stroke-width="0.58" points="185.11,-19.8 174.97,-22.88 184.82,-26.79 185.11,-19.8"/>
</g>
<!-- V3 -->
<g id="node7" class="node">
<title>V3</title>
<polygon fill="lightgray" stroke="black" points="191,-174.85 164,-174.85 164,-156.85 191,-156.85 191,-174.85"/>
<text text-anchor="middle" x="177.5" y="-163.65" font-family="Times New Roman,serif" font-size="9.00">V3</text>
</g>
<!-- V3&#45;&gt;M1 -->
<g id="edge14" class="edge">
<title>V3&#45;&gt;M1</title>
<path fill="none" stroke="green" stroke-width="0.32" d="M191.13,-157.74C210.74,-147.5 247.34,-128.39 272.77,-115.12"/>
<polygon fill="green" stroke="green" stroke-width="0.32" points="274.34,-118.25 281.58,-110.51 271.1,-112.04 274.34,-118.25"/>
</g>
<!-- V3&#45;&gt;M2 -->
<g id="edge15" class="edge">
<title>V3&#45;&gt;M2</title>
<path fill="none" stroke="red" stroke-width="0.42" d="M176.07,-156.36C172.71,-136.36 164.15,-85.5 158.59,-52.46"/>
<polygon fill="red" stroke="red" stroke-width="0.42" points="162.08,-52.12 156.97,-42.84 155.18,-53.28 162.08,-52.12"/>
</g>
<!-- V3&#45;&gt;M3 -->
<g id="edge16" class="edge">
<title>V3&#45;&gt;M3</title>
<path fill="none" stroke="green" stroke-width="0.56" d="M180.77,-156.46C183.48,-149.5 187.49,-139.19 191.33,-129.32"/>
<polygon fill="green" stroke="green" stroke-width="0.56" points="194.55,-130.7 194.92,-120.11 188.03,-128.16 194.55,-130.7"/>
</g>
<!-- V3&#45;&gt;310 -->
<g id="edge18" class="edge">
<title>V3&#45;&gt;310</title>
<path fill="none" stroke="red" stroke-width="0.18" d="M167.96,-156.46C157.72,-147.45 141.08,-132.82 127.41,-120.8"/>
<polygon fill="red" stroke="red" stroke-width="0.18" points="130.01,-118.41 120.19,-114.44 125.38,-123.67 130.01,-118.41"/>
</g>
<!-- V4 -->
<g id="node8" class="node">
<title>V4</title>
<polygon fill="lightgray" stroke="black" points="27,-108.64 0,-108.64 0,-90.64 27,-90.64 27,-108.64"/>
<text text-anchor="middle" x="13.5" y="-97.44" font-family="Times New Roman,serif" font-size="9.00">V4</text>
</g>
<!-- V4&#45;&gt;M2 -->
<g id="edge17" class="edge">
<title>V4&#45;&gt;M2</title>
<path fill="none" stroke="green" stroke-width="0.22" d="M24.39,-90.15C29.46,-86.37 35.66,-81.97 41.5,-78.43 68.97,-61.77 102.01,-45.62 125.06,-34.94"/>
<polygon fill="green" stroke="green" stroke-width="0.22" points="126.34,-38.2 133.97,-30.85 123.43,-31.84 126.34,-38.2"/>
</g>
<!-- 872&#45;&gt;M2 -->
<g id="edge22" class="edge">
<title>872&#45;&gt;M2</title>
<path fill="none" stroke="green" stroke-width="0.37" d="M403.67,-85.76C399.52,-83.04 394.99,-80.39 390.5,-78.43 320.46,-47.74 231.12,-32.36 184.69,-25.97"/>
<polygon fill="green" stroke="green" stroke-width="0.37" points="185.29,-22.52 174.92,-24.67 184.37,-29.46 185.29,-22.52"/>
</g>
<!-- 310&#45;&gt;M2 -->
<g id="edge19" class="edge">
<title>310&#45;&gt;M2</title>
<path fill="none" stroke="red" stroke-width="0.31" d="M115.86,-80.91C122.11,-71.17 129.97,-58.91 136.9,-48.11"/>
<polygon fill="red" stroke="red" stroke-width="0.31" points="139.75,-50.15 142.2,-39.84 133.85,-46.37 139.75,-50.15"/>
</g>
</g>
</svg>
