<?xml version="1.0" encoding="UTF-8" standalone="no"?>
<!DOCTYPE svg PUBLIC "-//W3C//DTD SVG 1.1//EN"
 "http://www.w3.org/Graphics/SVG/1.1/DTD/svg11.dtd">
<!-- Generated by graphviz version 8.0.3 (20230416.2022)
 -->
<!-- Pages: 1 -->
<svg width="346pt" height="104pt"
 viewBox="0.00 0.00 345.71 104.43" xmlns="http://www.w3.org/2000/svg" xmlns:xlink="http://www.w3.org/1999/xlink">
<g id="graph0" class="graph" transform="scale(1 1) rotate(0) translate(4 100.43)">
<polygon fill="white" stroke="none" points="-4,4 -4,-100.43 341.71,-100.43 341.71,4 -4,4"/>
<!-- X -->
<g id="node1" class="node">
<title>X</title>
<polygon fill="lightgray" stroke="black" points="32.71,-96.43 9.71,-96.43 9.71,-78.43 32.71,-78.43 32.71,-96.43"/>
<text text-anchor="middle" x="21.21" y="-85.23" font-family="Times New Roman,serif" font-size="9.00">X</text>
</g>
<!-- M1 -->
<g id="node9" class="node">
<title>M1</title>
<ellipse fill="lightblue" stroke="black" cx="21.21" cy="-21.21" rx="21.43" ry="21.43"/>
<text text-anchor="middle" x="21.21" y="-19.01" font-family="Times New Roman,serif" font-size="9.00">M1</text>
</g>
<!-- X&#45;&gt;M1 -->
<g id="edge1" class="edge">
<title>X&#45;&gt;M1</title>
<path fill="none" stroke="red" stroke-width="0.37" d="M21.21,-78.03C21.21,-71.54 21.21,-62.13 21.21,-52.88"/>
<polygon fill="red" stroke="red" stroke-width="0.37" points="24.71,-53.04 21.21,-43.04 17.71,-53.04 24.71,-53.04"/>
</g>
<!-- M3 -->
<g id="node11" class="node">
<title>M3</title>
<ellipse fill="lightblue" stroke="black" cx="84.21" cy="-21.21" rx="21.43" ry="21.43"/>
<text text-anchor="middle" x="84.21" y="-19.01" font-family="Times New Roman,serif" font-size="9.00">M3</text>
</g>
<!-- X&#45;&gt;M3 -->
<g id="edge2" class="edge">
<title>X&#45;&gt;M3</title>
<path fill="none" stroke="green" stroke-width="0.39" d="M29.45,-78.03C37.85,-69.47 51.23,-55.84 62.66,-44.18"/>
<polygon fill="green" stroke="green" stroke-width="0.39" points="64.96,-46.84 69.46,-37.25 59.96,-41.94 64.96,-46.84"/>
</g>
<!-- Y -->
<g id="node2" class="node">
<title>Y</title>
<polygon fill="lightgray" stroke="black" points="247.71,-96.43 224.71,-96.43 224.71,-78.43 247.71,-78.43 247.71,-96.43"/>
<text text-anchor="middle" x="236.21" y="-85.23" font-family="Times New Roman,serif" font-size="9.00">Y</text>
</g>
<!-- M2 -->
<g id="node10" class="node">
<title>M2</title>
<ellipse fill="lightblue" stroke="black" cx="236.21" cy="-21.21" rx="21.43" ry="21.43"/>
<text text-anchor="middle" x="236.21" y="-19.01" font-family="Times New Roman,serif" font-size="9.00">M2</text>
</g>
<!-- Y&#45;&gt;M2 -->
<g id="edge3" class="edge">
<title>Y&#45;&gt;M2</title>
<path fill="none" stroke="red" stroke-width="0.77" d="M236.21,-78.03C236.21,-71.75 236.21,-62.73 236.21,-53.76"/>
<polygon fill="red" stroke="red" stroke-width="0.77" points="239.71,-54.04 236.21,-44.04 232.71,-54.04 239.71,-54.04"/>
</g>
<!-- Δθ -->
<g id="node3" class="node">
<title>Δθ</title>
<polygon fill="lightgray" stroke="black" points="292.71,-96.43 265.71,-96.43 265.71,-78.43 292.71,-78.43 292.71,-96.43"/>
<text text-anchor="middle" x="279.21" y="-85.23" font-family="Times New Roman,serif" font-size="9.00">Δθ</text>
</g>
<!-- θ -->
<g id="node4" class="node">
<title>θ</title>
<polygon fill="lightgray" stroke="black" points="71.71,-96.43 50.71,-96.43 50.71,-78.43 71.71,-78.43 71.71,-96.43"/>
<text text-anchor="middle" x="61.21" y="-85.23" font-family="Times New Roman,serif" font-size="9.00">θ</text>
</g>
<!-- θ&#45;&gt;M3 -->
<g id="edge4" class="edge">
<title>θ&#45;&gt;M3</title>
<path fill="none" stroke="green" stroke-width="0.28" d="M64.22,-78.03C66.69,-71.13 70.35,-60.92 73.86,-51.11"/>
<polygon fill="green" stroke="green" stroke-width="0.28" points="77.07,-52.55 77.14,-41.95 70.48,-50.19 77.07,-52.55"/>
</g>
<!-- V1 -->
<g id="node5" class="node">
<title>V1</title>
<polygon fill="lightgray" stroke="black" points="116.71,-96.43 89.71,-96.43 89.71,-78.43 116.71,-78.43 116.71,-96.43"/>
<text text-anchor="middle" x="103.21" y="-85.23" font-family="Times New Roman,serif" font-size="9.00">V1</text>
</g>
<!-- V1&#45;&gt;M3 -->
<g id="edge5" class="edge">
<title>V1&#45;&gt;M3</title>
<path fill="none" stroke="green" stroke-width="0.15" d="M100.73,-78.03C98.72,-71.25 95.77,-61.28 92.92,-51.63"/>
<polygon fill="green" stroke="green" stroke-width="0.15" points="96.33,-50.82 90.13,-42.23 89.62,-52.81 96.33,-50.82"/>
</g>
<!-- V2 -->
<g id="node6" class="node">
<title>V2</title>
<polygon fill="lightgray" stroke="black" points="161.71,-96.43 134.71,-96.43 134.71,-78.43 161.71,-78.43 161.71,-96.43"/>
<text text-anchor="middle" x="148.21" y="-85.23" font-family="Times New Roman,serif" font-size="9.00">V2</text>
</g>
<!-- V2&#45;&gt;M3 -->
<g id="edge6" class="edge">
<title>V2&#45;&gt;M3</title>
<path fill="none" stroke="red" stroke-width="0.18" d="M139.85,-78.03C131.2,-69.36 117.37,-55.48 105.65,-43.72"/>
<polygon fill="red" stroke="red" stroke-width="0.18" points="108.24,-41.36 98.7,-36.75 103.28,-46.3 108.24,-41.36"/>
</g>
<!-- M4 -->
<g id="node12" class="node">
<title>M4</title>
<ellipse fill="lightblue" stroke="black" cx="162.21" cy="-21.21" rx="21.43" ry="21.43"/>
<text text-anchor="middle" x="162.21" y="-19.01" font-family="Times New Roman,serif" font-size="9.00">M4</text>
</g>
<!-- V2&#45;&gt;M4 -->
<g id="edge7" class="edge">
<title>V2&#45;&gt;M4</title>
<path fill="none" stroke="red" stroke-width="0.36" d="M150.04,-78.03C151.5,-71.37 153.62,-61.63 155.69,-52.15"/>
<polygon fill="red" stroke="red" stroke-width="0.36" points="159.08,-53.01 157.79,-42.5 152.24,-51.52 159.08,-53.01"/>
</g>
<!-- V3 -->
<g id="node7" class="node">
<title>V3</title>
<polygon fill="lightgray" stroke="black" points="206.71,-96.43 179.71,-96.43 179.71,-78.43 206.71,-78.43 206.71,-96.43"/>
<text text-anchor="middle" x="193.21" y="-85.23" font-family="Times New Roman,serif" font-size="9.00">V3</text>
</g>
<!-- V3&#45;&gt;M4 -->
<g id="edge8" class="edge">
<title>V3&#45;&gt;M4</title>
<path fill="none" stroke="green" stroke-width="0.3" d="M189.16,-78.03C185.72,-70.9 180.57,-60.24 175.7,-50.14"/>
<polygon fill="green" stroke="green" stroke-width="0.3" points="178.85,-48.63 171.35,-41.15 172.55,-51.67 178.85,-48.63"/>
</g>
<!-- V4 -->
<g id="node8" class="node">
<title>V4</title>
<polygon fill="lightgray" stroke="black" points="337.71,-96.43 310.71,-96.43 310.71,-78.43 337.71,-78.43 337.71,-96.43"/>
<text text-anchor="middle" x="324.21" y="-85.23" font-family="Times New Roman,serif" font-size="9.00">V4</text>
</g>
</g>
</svg>
