<?xml version="1.0" encoding="UTF-8" standalone="no"?>
<!DOCTYPE svg PUBLIC "-//W3C//DTD SVG 1.1//EN"
 "http://www.w3.org/Graphics/SVG/1.1/DTD/svg11.dtd">
<!-- Generated by graphviz version 8.0.3 (20230416.2022)
 -->
<!-- Pages: 1 -->
<svg width="347pt" height="299pt"
 viewBox="0.00 0.00 347.39 299.46" xmlns="http://www.w3.org/2000/svg" xmlns:xlink="http://www.w3.org/1999/xlink">
<g id="graph0" class="graph" transform="scale(1 1) rotate(0) translate(4 295.46)">
<polygon fill="white" stroke="none" points="-4,4 -4,-295.46 343.39,-295.46 343.39,4 -4,4"/>
<!-- X -->
<g id="node1" class="node">
<title>X</title>
<polygon fill="lightgray" stroke="black" points="216.31,-291.46 193.31,-291.46 193.31,-273.46 216.31,-273.46 216.31,-291.46"/>
<text text-anchor="middle" x="204.81" y="-280.26" font-family="Times New Roman,serif" font-size="9.00">X</text>
</g>
<!-- M1 -->
<g id="node3" class="node">
<title>M1</title>
<ellipse fill="lightblue" stroke="black" cx="171.81" cy="-209.89" rx="21.43" ry="21.43"/>
<text text-anchor="middle" x="171.81" y="-207.69" font-family="Times New Roman,serif" font-size="9.00">M1</text>
</g>
<!-- X&#45;&gt;M1 -->
<g id="edge1" class="edge">
<title>X&#45;&gt;M1</title>
<path fill="none" stroke="green" stroke-width="2.13" d="M200.9,-273.09C197.22,-265.23 191.5,-252.99 186.09,-241.43"/>
<polygon fill="green" stroke="green" stroke-width="2.13" points="189.09,-239.43 181.68,-231.86 182.75,-242.4 189.09,-239.43"/>
</g>
<!-- M2 -->
<g id="node4" class="node">
<title>M2</title>
<ellipse fill="lightblue" stroke="black" cx="37.81" cy="-209.89" rx="21.43" ry="21.43"/>
<text text-anchor="middle" x="37.81" y="-207.69" font-family="Times New Roman,serif" font-size="9.00">M2</text>
</g>
<!-- X&#45;&gt;M2 -->
<g id="edge6" class="edge">
<title>X&#45;&gt;M2</title>
<path fill="none" stroke="green" stroke-width="0.49" d="M193.15,-279.41C168.65,-274.75 110.57,-261.82 67.81,-237.46 65.09,-235.91 62.4,-234.09 59.81,-232.13"/>
<polygon fill="green" stroke="green" stroke-width="0.49" points="62.36,-229.7 52.43,-226.01 57.89,-235.09 62.36,-229.7"/>
</g>
<!-- 13369 -->
<g id="node8" class="node">
<title>13369</title>
<ellipse fill="white" stroke="black" cx="238.81" cy="-209.89" rx="27.65" ry="27.65"/>
<text text-anchor="middle" x="238.81" y="-207.69" font-family="Times New Roman,serif" font-size="9.00">13369</text>
</g>
<!-- X&#45;&gt;13369 -->
<g id="edge7" class="edge">
<title>X&#45;&gt;13369</title>
<path fill="none" stroke="green" stroke-width="0.5" d="M208.84,-273.09C212.33,-265.84 217.62,-254.87 222.79,-244.15"/>
<polygon fill="green" stroke="green" stroke-width="0.5" points="225.87,-245.82 227.06,-235.29 219.56,-242.78 225.87,-245.82"/>
</g>
<!-- 11356 -->
<g id="node9" class="node">
<title>11356</title>
<ellipse fill="white" stroke="black" cx="311.81" cy="-209.89" rx="27.65" ry="27.65"/>
<text text-anchor="middle" x="311.81" y="-207.69" font-family="Times New Roman,serif" font-size="9.00">11356</text>
</g>
<!-- X&#45;&gt;11356 -->
<g id="edge4" class="edge">
<title>X&#45;&gt;11356</title>
<path fill="none" stroke="green" stroke-width="0.17" stroke-dasharray="1,5" d="M216.55,-274.58C230.79,-266.16 255.4,-251.29 275.81,-237.46 277.84,-236.09 279.91,-234.65 281.99,-233.19"/>
<polygon fill="green" stroke="green" stroke-width="0.17" points="283.85,-236.16 289.93,-227.48 279.77,-230.47 283.85,-236.16"/>
</g>
<!-- Y -->
<g id="node2" class="node">
<title>Y</title>
<polygon fill="lightgray" stroke="black" points="25.31,-291.46 2.31,-291.46 2.31,-273.46 25.31,-273.46 25.31,-291.46"/>
<text text-anchor="middle" x="13.81" y="-280.26" font-family="Times New Roman,serif" font-size="9.00">Y</text>
</g>
<!-- Y&#45;&gt;M2 -->
<g id="edge2" class="edge">
<title>Y&#45;&gt;M2</title>
<path fill="none" stroke="green" stroke-width="3.3" d="M16.66,-273.09C19.14,-265.8 22.9,-254.73 26.57,-243.95"/>
<polygon fill="green" stroke="green" stroke-width="3.3" points="30.15,-245.33 30.06,-234.74 23.53,-243.08 30.15,-245.33"/>
</g>
<!-- 10287 -->
<g id="node6" class="node">
<title>10287</title>
<ellipse fill="white" stroke="black" cx="46.81" cy="-27.58" rx="27.65" ry="27.65"/>
<text text-anchor="middle" x="46.81" y="-25.38" font-family="Times New Roman,serif" font-size="9.00">10287</text>
</g>
<!-- Y&#45;&gt;10287 -->
<g id="edge3" class="edge">
<title>Y&#45;&gt;10287</title>
<path fill="none" stroke="red" stroke-width="0.8" stroke-dasharray="1,5" d="M11.96,-273.27C6.24,-246.45 -9.59,-159.16 9.81,-91.15 12.95,-80.14 18.52,-69.07 24.39,-59.37"/>
<polygon fill="red" stroke="red" stroke-width="0.8" points="27.84,-61.48 30.29,-51.18 21.94,-57.7 27.84,-61.48"/>
</g>
<!-- 13653 -->
<g id="node7" class="node">
<title>13653</title>
<ellipse fill="white" stroke="black" cx="46.81" cy="-118.73" rx="27.65" ry="27.65"/>
<text text-anchor="middle" x="46.81" y="-116.53" font-family="Times New Roman,serif" font-size="9.00">13653</text>
</g>
<!-- M2&#45;&gt;13653 -->
<g id="edge10" class="edge">
<title>M2&#45;&gt;13653</title>
<path fill="none" stroke="green" stroke-width="0.56" d="M39.9,-188.21C40.85,-178.76 42.01,-167.27 43.11,-156.42"/>
<polygon fill="green" stroke="green" stroke-width="0.56" points="46.56,-157.02 44.09,-146.72 39.6,-156.32 46.56,-157.02"/>
</g>
<!-- 13116 -->
<g id="node5" class="node">
<title>13116</title>
<ellipse fill="white" stroke="black" cx="104.81" cy="-209.89" rx="27.65" ry="27.65"/>
<text text-anchor="middle" x="104.81" y="-207.69" font-family="Times New Roman,serif" font-size="9.00">13116</text>
</g>
<!-- 13116&#45;&gt;10287 -->
<g id="edge5" class="edge">
<title>13116&#45;&gt;10287</title>
<path fill="none" stroke="green" stroke-width="0.68" stroke-dasharray="1,5" d="M102.76,-181.99C100.27,-157.65 94.93,-121.13 83.81,-91.15 79.86,-80.5 74.11,-69.61 68.32,-59.96"/>
<polygon fill="green" stroke="green" stroke-width="0.68" points="70.85,-57.4 62.58,-50.77 64.92,-61.11 70.85,-57.4"/>
</g>
<!-- 13116&#45;&gt;13653 -->
<g id="edge8" class="edge">
<title>13116&#45;&gt;13653</title>
<path fill="none" stroke="green" stroke-width="0.41" d="M90.17,-186.39C83.15,-175.6 74.63,-162.49 67,-150.77"/>
<polygon fill="green" stroke="green" stroke-width="0.41" points="70.03,-149.01 61.64,-142.53 64.16,-152.82 70.03,-149.01"/>
</g>
<!-- 13653&#45;&gt;10287 -->
<g id="edge9" class="edge">
<title>13653&#45;&gt;10287</title>
<path fill="none" stroke="green" stroke-width="0.55" d="M46.81,-90.98C46.81,-82.95 46.81,-73.98 46.81,-65.41"/>
<polygon fill="green" stroke="green" stroke-width="0.55" points="50.31,-65.62 46.81,-55.62 43.31,-65.62 50.31,-65.62"/>
</g>
</g>
</svg>
