<?xml version="1.0" encoding="utf-8" standalone="no"?>
<!DOCTYPE svg PUBLIC "-//W3C//DTD SVG 1.1//EN"
  "http://www.w3.org/Graphics/SVG/1.1/DTD/svg11.dtd">
<svg height="345.6pt" version="1.1" viewBox="0 0 460.8 345.6" width="460.8pt" xmlns="http://www.w3.org/2000/svg" xmlns:xlink="http://www.w3.org/1999/xlink">
 <metadata>
  <rdf:RDF xmlns:cc="http://creativecommons.org/ns#" xmlns:dc="http://purl.org/dc/elements/1.1/" xmlns:rdf="http://www.w3.org/1999/02/22-rdf-syntax-ns#">
   <cc:Work>
    <dc:type rdf:resource="http://purl.org/dc/dcmitype/StillImage"/>
    <dc:date>2023-05-04T13:41:27.493640</dc:date>
    <dc:format>image/svg+xml</dc:format>
    <dc:creator>
     <cc:Agent>
      <dc:title>Matplotlib v3.4.3, https://matplotlib.org/</dc:title>
     </cc:Agent>
    </dc:creator>
   </cc:Work>
  </rdf:RDF>
 </metadata>
 <defs>
  <style type="text/css">*{stroke-linecap:butt;stroke-linejoin:round;}</style>
 </defs>
 <g id="figure_1">
  <g id="patch_1">
   <path d="M 0 345.6 
L 460.8 345.6 
L 460.8 0 
L 0 0 
z
" style="fill:#ffffff;"/>
  </g>
  <g id="axes_1">
   <g id="patch_2">
    <path d="M 57.6 307.584 
L 414.72 307.584 
L 414.72 41.472 
L 57.6 41.472 
z
" style="fill:#ffffff;"/>
   </g>
   <g id="PolyCollection_1">
    <path clip-path="url(#p6ac3d3590a)" d="M 73.832727 55.153721 
L 73.832727 307.584 
L 77.112066 307.584 
L 80.391405 307.584 
L 83.670744 307.584 
L 86.950083 307.584 
L 90.229421 307.584 
L 93.50876 307.584 
L 96.788099 307.584 
L 100.067438 307.584 
L 103.346777 307.584 
L 106.626116 307.584 
L 109.905455 307.584 
L 113.184793 307.584 
L 116.464132 307.584 
L 119.743471 307.584 
L 123.02281 307.584 
L 126.302149 307.584 
L 129.581488 307.584 
L 132.860826 307.584 
L 136.140165 307.584 
L 139.419504 307.584 
L 142.698843 307.584 
L 145.978182 307.584 
L 149.257521 307.584 
L 152.53686 307.584 
L 155.816198 307.584 
L 159.095537 307.584 
L 162.374876 307.584 
L 165.654215 307.584 
L 168.933554 307.584 
L 172.212893 307.584 
L 175.492231 307.584 
L 178.77157 307.584 
L 182.050909 307.584 
L 185.330248 307.584 
L 188.609587 307.584 
L 191.888926 307.584 
L 195.168264 307.584 
L 198.447603 307.584 
L 201.726942 307.584 
L 205.006281 307.584 
L 208.28562 307.584 
L 211.564959 307.584 
L 214.844298 307.584 
L 218.123636 307.584 
L 221.402975 307.584 
L 224.682314 307.584 
L 227.961653 307.584 
L 231.240992 307.584 
L 234.520331 307.584 
L 237.799669 307.584 
L 241.079008 307.584 
L 244.358347 307.584 
L 247.637686 307.584 
L 250.917025 307.584 
L 254.196364 307.584 
L 257.475702 307.584 
L 260.755041 307.584 
L 264.03438 307.584 
L 267.313719 307.584 
L 270.593058 307.584 
L 273.872397 307.584 
L 277.151736 307.584 
L 280.431074 307.584 
L 283.710413 307.584 
L 286.989752 307.584 
L 290.269091 307.584 
L 293.54843 307.584 
L 296.827769 307.584 
L 300.107107 307.584 
L 303.386446 307.584 
L 306.665785 307.584 
L 309.945124 307.584 
L 313.224463 307.584 
L 316.503802 307.584 
L 319.78314 307.584 
L 323.062479 307.584 
L 326.341818 307.584 
L 329.621157 307.584 
L 332.900496 307.584 
L 336.179835 307.584 
L 339.459174 307.584 
L 342.738512 307.584 
L 346.017851 307.584 
L 349.29719 307.584 
L 352.576529 307.584 
L 355.855868 307.584 
L 359.135207 307.584 
L 362.414545 307.584 
L 365.693884 307.584 
L 368.973223 307.584 
L 372.252562 307.584 
L 375.531901 307.584 
L 378.81124 307.584 
L 382.090579 307.584 
L 385.369917 307.584 
L 388.649256 307.584 
L 391.928595 307.584 
L 395.207934 307.584 
L 398.487273 307.584 
L 398.487273 307.584 
L 398.487273 307.584 
L 395.207934 307.584 
L 391.928595 307.584 
L 388.649256 307.584 
L 385.369917 307.584 
L 382.090579 307.584 
L 378.81124 307.584 
L 375.531901 307.584 
L 372.252562 307.584 
L 368.973223 307.584 
L 365.693884 307.584 
L 362.414545 307.584 
L 359.135207 307.584 
L 355.855868 307.584 
L 352.576529 307.584 
L 349.29719 307.584 
L 346.017851 307.584 
L 342.738512 307.584 
L 339.459174 307.584 
L 336.179835 307.584 
L 332.900496 307.584 
L 329.621157 307.584 
L 326.341818 307.584 
L 323.062479 307.584 
L 319.78314 307.584 
L 316.503802 307.584 
L 313.224463 307.584 
L 309.945124 307.584 
L 306.665785 307.584 
L 303.386446 307.584 
L 300.107107 307.584 
L 296.827769 307.584 
L 293.54843 307.584 
L 290.269091 307.584 
L 286.989752 307.584 
L 283.710413 307.584 
L 280.431074 307.584 
L 277.151736 307.584 
L 273.872397 307.584 
L 270.593058 307.584 
L 267.313719 307.584 
L 264.03438 307.584 
L 260.755041 307.584 
L 257.475702 307.584 
L 254.196364 307.584 
L 250.917025 307.584 
L 247.637686 244.47643 
L 244.358347 248.515315 
L 241.079008 248.010454 
L 237.799669 253.56392 
L 234.520331 272.748622 
L 231.240992 264.670853 
L 227.961653 262.65141 
L 224.682314 259.117386 
L 221.402975 263.661131 
L 218.123636 277.797227 
L 214.844298 264.670853 
L 211.564959 267.700016 
L 208.28562 273.758343 
L 205.006281 279.311809 
L 201.726942 260.631968 
L 198.447603 274.768064 
L 195.168264 270.224319 
L 191.888926 255.583363 
L 188.609587 247.000733 
L 185.330248 220.747984 
L 182.050909 253.05906 
L 178.77157 251.039618 
L 175.492231 240.437546 
L 172.212893 233.874359 
L 168.933554 225.79659 
L 165.654215 272.748622 
L 162.374876 252.554199 
L 159.095537 252.554199 
L 155.816198 273.253482 
L 152.53686 263.661131 
L 149.257521 270.729179 
L 145.978182 249.020175 
L 142.698843 270.224319 
L 139.419504 232.864637 
L 136.140165 277.292367 
L 132.860826 227.816032 
L 129.581488 263.156271 
L 126.302149 208.631331 
L 123.02281 243.97157 
L 119.743471 245.991012 
L 116.464132 71.309259 
L 113.184793 55.153721 
L 109.905455 55.153721 
L 106.626116 55.153721 
L 103.346777 55.153721 
L 100.067438 55.153721 
L 96.788099 55.153721 
L 93.50876 55.153721 
L 90.229421 55.153721 
L 86.950083 55.153721 
L 83.670744 55.153721 
L 80.391405 55.153721 
L 77.112066 55.153721 
L 73.832727 55.153721 
z
" style="fill:#1f77b4;"/>
   </g>
   <g id="PolyCollection_2">
    <path clip-path="url(#p6ac3d3590a)" d="M 73.832727 55.153721 
L 73.832727 55.153721 
L 77.112066 55.153721 
L 80.391405 55.153721 
L 83.670744 55.153721 
L 86.950083 55.153721 
L 90.229421 55.153721 
L 93.50876 55.153721 
L 96.788099 55.153721 
L 100.067438 55.153721 
L 103.346777 55.153721 
L 106.626116 55.153721 
L 109.905455 55.153721 
L 113.184793 55.153721 
L 116.464132 71.309259 
L 119.743471 245.991012 
L 123.02281 243.97157 
L 126.302149 208.631331 
L 129.581488 263.156271 
L 132.860826 227.816032 
L 136.140165 277.292367 
L 139.419504 232.864637 
L 142.698843 270.224319 
L 145.978182 249.020175 
L 149.257521 270.729179 
L 152.53686 263.661131 
L 155.816198 273.253482 
L 159.095537 252.554199 
L 162.374876 252.554199 
L 165.654215 272.748622 
L 168.933554 225.79659 
L 172.212893 233.874359 
L 175.492231 240.437546 
L 178.77157 251.039618 
L 182.050909 253.05906 
L 185.330248 220.747984 
L 188.609587 247.000733 
L 191.888926 255.583363 
L 195.168264 270.224319 
L 198.447603 274.768064 
L 201.726942 260.631968 
L 205.006281 279.311809 
L 208.28562 273.758343 
L 211.564959 267.700016 
L 214.844298 264.670853 
L 218.123636 277.797227 
L 221.402975 263.661131 
L 224.682314 259.117386 
L 227.961653 262.65141 
L 231.240992 264.670853 
L 234.520331 272.748622 
L 237.799669 253.56392 
L 241.079008 248.010454 
L 244.358347 248.515315 
L 247.637686 244.47643 
L 250.917025 307.584 
L 254.196364 307.584 
L 257.475702 307.584 
L 260.755041 307.584 
L 264.03438 307.584 
L 267.313719 307.584 
L 270.593058 307.584 
L 273.872397 307.584 
L 277.151736 307.584 
L 280.431074 307.584 
L 283.710413 307.584 
L 286.989752 307.584 
L 290.269091 307.584 
L 293.54843 307.584 
L 296.827769 307.584 
L 300.107107 307.584 
L 303.386446 307.584 
L 306.665785 307.584 
L 309.945124 307.584 
L 313.224463 307.584 
L 316.503802 307.584 
L 319.78314 307.584 
L 323.062479 307.584 
L 326.341818 307.584 
L 329.621157 307.584 
L 332.900496 307.584 
L 336.179835 307.584 
L 339.459174 307.584 
L 342.738512 307.584 
L 346.017851 307.584 
L 349.29719 307.584 
L 352.576529 307.584 
L 355.855868 307.584 
L 359.135207 307.584 
L 362.414545 307.584 
L 365.693884 307.584 
L 368.973223 307.584 
L 372.252562 307.584 
L 375.531901 307.584 
L 378.81124 307.584 
L 382.090579 307.584 
L 385.369917 307.584 
L 388.649256 307.584 
L 391.928595 307.584 
L 395.207934 307.584 
L 398.487273 307.584 
L 398.487273 307.584 
L 398.487273 307.584 
L 395.207934 307.584 
L 391.928595 307.584 
L 388.649256 307.584 
L 385.369917 307.584 
L 382.090579 307.584 
L 378.81124 307.584 
L 375.531901 307.584 
L 372.252562 307.584 
L 368.973223 307.584 
L 365.693884 307.584 
L 362.414545 307.584 
L 359.135207 307.584 
L 355.855868 307.584 
L 352.576529 307.584 
L 349.29719 274.263203 
L 346.017851 273.758343 
L 342.738512 270.224319 
L 339.459174 263.661131 
L 336.179835 252.049339 
L 332.900496 245.486151 
L 329.621157 247.000733 
L 326.341818 250.534757 
L 323.062479 214.184797 
L 319.78314 261.136829 
L 316.503802 255.583363 
L 313.224463 271.23404 
L 309.945124 275.777785 
L 306.665785 278.302088 
L 303.386446 278.806948 
L 300.107107 273.758343 
L 296.827769 270.729179 
L 293.54843 279.816669 
L 290.269091 276.787506 
L 286.989752 279.816669 
L 283.710413 273.758343 
L 280.431074 283.350693 
L 277.151736 279.816669 
L 273.872397 281.331251 
L 270.593058 281.836112 
L 267.313719 269.719458 
L 264.03438 270.729179 
L 260.755041 270.729179 
L 257.475702 283.855554 
L 254.196364 273.758343 
L 250.917025 266.185434 
L 247.637686 218.728542 
L 244.358347 201.058422 
L 241.079008 217.21396 
L 237.799669 221.757705 
L 234.520331 229.330614 
L 231.240992 247.505594 
L 227.961653 218.728542 
L 224.682314 225.291729 
L 221.402975 243.97157 
L 218.123636 247.505594 
L 214.844298 218.728542 
L 211.564959 202.068143 
L 208.28562 222.767426 
L 205.006281 212.670215 
L 201.726942 239.932685 
L 198.447603 244.981291 
L 195.168264 216.204239 
L 191.888926 211.660494 
L 188.609587 218.728542 
L 185.330248 181.368861 
L 182.050909 201.058422 
L 178.77157 198.53412 
L 175.492231 195.504956 
L 172.212893 189.446629 
L 168.933554 192.475793 
L 165.654215 236.903522 
L 162.374876 214.184797 
L 159.095537 224.282008 
L 155.816198 179.854279 
L 152.53686 234.379219 
L 149.257521 236.903522 
L 145.978182 204.087586 
L 142.698843 237.408382 
L 139.419504 196.009817 
L 136.140165 230.845195 
L 132.860826 162.184159 
L 129.581488 190.961211 
L 126.302149 127.348781 
L 123.02281 162.184159 
L 119.743471 186.417466 
L 116.464132 67.270375 
L 113.184793 55.153721 
L 109.905455 55.153721 
L 106.626116 55.153721 
L 103.346777 55.153721 
L 100.067438 55.153721 
L 96.788099 55.153721 
L 93.50876 55.153721 
L 90.229421 55.153721 
L 86.950083 55.153721 
L 83.670744 55.153721 
L 80.391405 55.153721 
L 77.112066 55.153721 
L 73.832727 55.153721 
z
" style="fill:#ff7f0e;"/>
   </g>
   <g id="PolyCollection_3">
    <path clip-path="url(#p6ac3d3590a)" d="M 73.832727 55.153721 
L 73.832727 55.153721 
L 77.112066 55.153721 
L 80.391405 55.153721 
L 83.670744 55.153721 
L 86.950083 55.153721 
L 90.229421 55.153721 
L 93.50876 55.153721 
L 96.788099 55.153721 
L 100.067438 55.153721 
L 103.346777 55.153721 
L 106.626116 55.153721 
L 109.905455 55.153721 
L 113.184793 55.153721 
L 116.464132 67.270375 
L 119.743471 186.417466 
L 123.02281 162.184159 
L 126.302149 127.348781 
L 129.581488 190.961211 
L 132.860826 162.184159 
L 136.140165 230.845195 
L 139.419504 196.009817 
L 142.698843 237.408382 
L 145.978182 204.087586 
L 149.257521 236.903522 
L 152.53686 234.379219 
L 155.816198 179.854279 
L 159.095537 224.282008 
L 162.374876 214.184797 
L 165.654215 236.903522 
L 168.933554 192.475793 
L 172.212893 189.446629 
L 175.492231 195.504956 
L 178.77157 198.53412 
L 182.050909 201.058422 
L 185.330248 181.368861 
L 188.609587 218.728542 
L 191.888926 211.660494 
L 195.168264 216.204239 
L 198.447603 244.981291 
L 201.726942 239.932685 
L 205.006281 212.670215 
L 208.28562 222.767426 
L 211.564959 202.068143 
L 214.844298 218.728542 
L 218.123636 247.505594 
L 221.402975 243.97157 
L 224.682314 225.291729 
L 227.961653 218.728542 
L 231.240992 247.505594 
L 234.520331 229.330614 
L 237.799669 221.757705 
L 241.079008 217.21396 
L 244.358347 201.058422 
L 247.637686 218.728542 
L 250.917025 266.185434 
L 254.196364 273.758343 
L 257.475702 283.855554 
L 260.755041 270.729179 
L 264.03438 270.729179 
L 267.313719 269.719458 
L 270.593058 281.836112 
L 273.872397 281.331251 
L 277.151736 279.816669 
L 280.431074 283.350693 
L 283.710413 273.758343 
L 286.989752 279.816669 
L 290.269091 276.787506 
L 293.54843 279.816669 
L 296.827769 270.729179 
L 300.107107 273.758343 
L 303.386446 278.806948 
L 306.665785 278.302088 
L 309.945124 275.777785 
L 313.224463 271.23404 
L 316.503802 255.583363 
L 319.78314 261.136829 
L 323.062479 214.184797 
L 326.341818 250.534757 
L 329.621157 247.000733 
L 332.900496 245.486151 
L 336.179835 252.049339 
L 339.459174 263.661131 
L 342.738512 270.224319 
L 346.017851 273.758343 
L 349.29719 274.263203 
L 352.576529 307.584 
L 355.855868 307.584 
L 359.135207 307.584 
L 362.414545 307.584 
L 365.693884 307.584 
L 368.973223 307.584 
L 372.252562 307.584 
L 375.531901 307.584 
L 378.81124 307.584 
L 382.090579 307.584 
L 385.369917 307.584 
L 388.649256 307.584 
L 391.928595 307.584 
L 395.207934 307.584 
L 398.487273 307.584 
L 398.487273 307.584 
L 398.487273 307.584 
L 395.207934 307.584 
L 391.928595 307.584 
L 388.649256 307.584 
L 385.369917 307.584 
L 382.090579 307.584 
L 378.81124 307.584 
L 375.531901 307.584 
L 372.252562 307.584 
L 368.973223 307.584 
L 365.693884 307.584 
L 362.414545 307.584 
L 359.135207 307.584 
L 355.855868 307.584 
L 352.576529 307.584 
L 349.29719 274.263203 
L 346.017851 273.758343 
L 342.738512 270.224319 
L 339.459174 263.661131 
L 336.179835 252.049339 
L 332.900496 245.486151 
L 329.621157 247.000733 
L 326.341818 250.534757 
L 323.062479 214.184797 
L 319.78314 261.136829 
L 316.503802 255.583363 
L 313.224463 271.23404 
L 309.945124 275.777785 
L 306.665785 278.302088 
L 303.386446 278.806948 
L 300.107107 273.758343 
L 296.827769 270.729179 
L 293.54843 279.816669 
L 290.269091 244.981291 
L 286.989752 247.505594 
L 283.710413 244.47643 
L 280.431074 251.544478 
L 277.151736 248.010454 
L 273.872397 244.981291 
L 270.593058 252.049339 
L 267.313719 241.952127 
L 264.03438 238.922964 
L 260.755041 235.38894 
L 257.475702 252.554199 
L 254.196364 246.495873 
L 250.917025 234.88408 
L 247.637686 197.524398 
L 244.358347 172.281371 
L 241.079008 188.941769 
L 237.799669 192.980653 
L 234.520331 197.019538 
L 231.240992 223.272287 
L 227.961653 191.970932 
L 224.682314 194.495235 
L 221.402975 211.660494 
L 218.123636 211.660494 
L 214.844298 178.844558 
L 211.564959 172.281371 
L 208.28562 159.154996 
L 205.006281 160.669578 
L 201.726942 181.368861 
L 198.447603 175.815394 
L 195.168264 156.630693 
L 191.888926 180.864 
L 188.609587 156.125833 
L 185.330248 136.436271 
L 182.050909 148.048064 
L 178.77157 152.591809 
L 175.492231 154.611251 
L 172.212893 152.086948 
L 168.933554 140.980016 
L 165.654215 133.407108 
L 162.374876 127.853641 
L 159.095537 110.688382 
L 155.816198 112.202964 
L 152.53686 129.873084 
L 149.257521 113.717546 
L 145.978182 177.329976 
L 142.698843 176.825116 
L 139.419504 118.261291 
L 136.140165 103.620335 
L 132.860826 90.998821 
L 129.581488 59.697466 
L 126.302149 55.153721 
L 123.02281 55.153721 
L 119.743471 55.153721 
L 116.464132 55.153721 
L 113.184793 55.153721 
L 109.905455 55.153721 
L 106.626116 55.153721 
L 103.346777 55.153721 
L 100.067438 55.153721 
L 96.788099 55.153721 
L 93.50876 55.153721 
L 90.229421 55.153721 
L 86.950083 55.153721 
L 83.670744 55.153721 
L 80.391405 55.153721 
L 77.112066 55.153721 
L 73.832727 55.153721 
z
" style="fill:#2ca02c;"/>
   </g>
   <g id="PolyCollection_4">
    <path clip-path="url(#p6ac3d3590a)" d="M 73.832727 55.153721 
L 73.832727 55.153721 
L 77.112066 55.153721 
L 80.391405 55.153721 
L 83.670744 55.153721 
L 86.950083 55.153721 
L 90.229421 55.153721 
L 93.50876 55.153721 
L 96.788099 55.153721 
L 100.067438 55.153721 
L 103.346777 55.153721 
L 106.626116 55.153721 
L 109.905455 55.153721 
L 113.184793 55.153721 
L 116.464132 55.153721 
L 119.743471 55.153721 
L 123.02281 55.153721 
L 126.302149 55.153721 
L 129.581488 59.697466 
L 132.860826 90.998821 
L 136.140165 103.620335 
L 139.419504 118.261291 
L 142.698843 176.825116 
L 145.978182 177.329976 
L 149.257521 113.717546 
L 152.53686 129.873084 
L 155.816198 112.202964 
L 159.095537 110.688382 
L 162.374876 127.853641 
L 165.654215 133.407108 
L 168.933554 140.980016 
L 172.212893 152.086948 
L 175.492231 154.611251 
L 178.77157 152.591809 
L 182.050909 148.048064 
L 185.330248 136.436271 
L 188.609587 156.125833 
L 191.888926 180.864 
L 195.168264 156.630693 
L 198.447603 175.815394 
L 201.726942 181.368861 
L 205.006281 160.669578 
L 208.28562 159.154996 
L 211.564959 172.281371 
L 214.844298 178.844558 
L 218.123636 211.660494 
L 221.402975 211.660494 
L 224.682314 194.495235 
L 227.961653 191.970932 
L 231.240992 223.272287 
L 234.520331 197.019538 
L 237.799669 192.980653 
L 241.079008 188.941769 
L 244.358347 172.281371 
L 247.637686 197.524398 
L 250.917025 234.88408 
L 254.196364 246.495873 
L 257.475702 252.554199 
L 260.755041 235.38894 
L 264.03438 238.922964 
L 267.313719 241.952127 
L 270.593058 252.049339 
L 273.872397 244.981291 
L 277.151736 248.010454 
L 280.431074 251.544478 
L 283.710413 244.47643 
L 286.989752 247.505594 
L 290.269091 244.981291 
L 293.54843 279.816669 
L 296.827769 270.729179 
L 300.107107 273.758343 
L 303.386446 278.806948 
L 306.665785 278.302088 
L 309.945124 275.777785 
L 313.224463 271.23404 
L 316.503802 255.583363 
L 319.78314 261.136829 
L 323.062479 214.184797 
L 326.341818 250.534757 
L 329.621157 247.000733 
L 332.900496 245.486151 
L 336.179835 252.049339 
L 339.459174 263.661131 
L 342.738512 270.224319 
L 346.017851 273.758343 
L 349.29719 274.263203 
L 352.576529 307.584 
L 355.855868 307.584 
L 359.135207 307.584 
L 362.414545 307.584 
L 365.693884 307.584 
L 368.973223 307.584 
L 372.252562 307.584 
L 375.531901 307.584 
L 378.81124 307.584 
L 382.090579 307.584 
L 385.369917 307.584 
L 388.649256 307.584 
L 391.928595 307.584 
L 395.207934 307.584 
L 398.487273 307.584 
L 398.487273 307.584 
L 398.487273 307.584 
L 395.207934 307.584 
L 391.928595 307.584 
L 388.649256 307.584 
L 385.369917 307.584 
L 382.090579 307.584 
L 378.81124 307.584 
L 375.531901 307.584 
L 372.252562 307.584 
L 368.973223 307.584 
L 365.693884 307.584 
L 362.414545 307.584 
L 359.135207 307.584 
L 355.855868 307.584 
L 352.576529 307.584 
L 349.29719 274.263203 
L 346.017851 273.758343 
L 342.738512 270.224319 
L 339.459174 263.661131 
L 336.179835 252.049339 
L 332.900496 245.486151 
L 329.621157 247.000733 
L 326.341818 250.534757 
L 323.062479 214.184797 
L 319.78314 261.136829 
L 316.503802 255.583363 
L 313.224463 271.23404 
L 309.945124 275.777785 
L 306.665785 278.302088 
L 303.386446 278.806948 
L 300.107107 273.758343 
L 296.827769 270.729179 
L 293.54843 279.816669 
L 290.269091 244.981291 
L 286.989752 247.505594 
L 283.710413 244.47643 
L 280.431074 251.544478 
L 277.151736 248.010454 
L 273.872397 244.981291 
L 270.593058 242.456988 
L 267.313719 216.204239 
L 264.03438 208.12647 
L 260.755041 200.048701 
L 257.475702 212.165355 
L 254.196364 203.077865 
L 250.917025 188.436908 
L 247.637686 162.184159 
L 244.358347 136.436271 
L 241.079008 151.582088 
L 237.799669 159.154996 
L 234.520331 165.718183 
L 231.240992 188.941769 
L 227.961653 160.669578 
L 224.682314 164.203602 
L 221.402975 182.883442 
L 218.123636 170.766789 
L 214.844298 140.980016 
L 211.564959 137.950853 
L 208.28562 123.814757 
L 205.006281 123.814757 
L 201.726942 146.533482 
L 198.447603 139.465434 
L 195.168264 119.271012 
L 191.888926 143.504319 
L 188.609587 119.775873 
L 185.330248 105.134916 
L 182.050909 116.746709 
L 178.77157 115.232127 
L 175.492231 118.261291 
L 172.212893 115.232127 
L 168.933554 102.610614 
L 165.654215 93.018263 
L 162.374876 92.008542 
L 159.095537 75.348143 
L 155.816198 77.872446 
L 152.53686 90.49396 
L 149.257521 75.853004 
L 145.978182 137.445992 
L 142.698843 138.960574 
L 139.419504 70.299538 
L 136.140165 55.153721 
L 132.860826 55.153721 
L 129.581488 55.658582 
L 126.302149 55.153721 
L 123.02281 55.153721 
L 119.743471 55.153721 
L 116.464132 55.153721 
L 113.184793 55.153721 
L 109.905455 55.153721 
L 106.626116 55.153721 
L 103.346777 55.153721 
L 100.067438 55.153721 
L 96.788099 55.153721 
L 93.50876 55.153721 
L 90.229421 55.153721 
L 86.950083 55.153721 
L 83.670744 55.153721 
L 80.391405 55.153721 
L 77.112066 55.153721 
L 73.832727 55.153721 
z
" style="fill:#d62728;"/>
   </g>
   <g id="PolyCollection_5">
    <path clip-path="url(#p6ac3d3590a)" d="M 73.832727 55.153721 
L 73.832727 55.153721 
L 77.112066 55.153721 
L 80.391405 55.153721 
L 83.670744 55.153721 
L 86.950083 55.153721 
L 90.229421 55.153721 
L 93.50876 55.153721 
L 96.788099 55.153721 
L 100.067438 55.153721 
L 103.346777 55.153721 
L 106.626116 55.153721 
L 109.905455 55.153721 
L 113.184793 55.153721 
L 116.464132 55.153721 
L 119.743471 55.153721 
L 123.02281 55.153721 
L 126.302149 55.153721 
L 129.581488 55.658582 
L 132.860826 55.153721 
L 136.140165 55.153721 
L 139.419504 70.299538 
L 142.698843 138.960574 
L 145.978182 137.445992 
L 149.257521 75.853004 
L 152.53686 90.49396 
L 155.816198 77.872446 
L 159.095537 75.348143 
L 162.374876 92.008542 
L 165.654215 93.018263 
L 168.933554 102.610614 
L 172.212893 115.232127 
L 175.492231 118.261291 
L 178.77157 115.232127 
L 182.050909 116.746709 
L 185.330248 105.134916 
L 188.609587 119.775873 
L 191.888926 143.504319 
L 195.168264 119.271012 
L 198.447603 139.465434 
L 201.726942 146.533482 
L 205.006281 123.814757 
L 208.28562 123.814757 
L 211.564959 137.950853 
L 214.844298 140.980016 
L 218.123636 170.766789 
L 221.402975 182.883442 
L 224.682314 164.203602 
L 227.961653 160.669578 
L 231.240992 188.941769 
L 234.520331 165.718183 
L 237.799669 159.154996 
L 241.079008 151.582088 
L 244.358347 136.436271 
L 247.637686 162.184159 
L 250.917025 188.436908 
L 254.196364 203.077865 
L 257.475702 212.165355 
L 260.755041 200.048701 
L 264.03438 208.12647 
L 267.313719 216.204239 
L 270.593058 242.456988 
L 273.872397 244.981291 
L 277.151736 248.010454 
L 280.431074 251.544478 
L 283.710413 244.47643 
L 286.989752 247.505594 
L 290.269091 244.981291 
L 293.54843 279.816669 
L 296.827769 270.729179 
L 300.107107 273.758343 
L 303.386446 278.806948 
L 306.665785 278.302088 
L 309.945124 275.777785 
L 313.224463 271.23404 
L 316.503802 255.583363 
L 319.78314 261.136829 
L 323.062479 214.184797 
L 326.341818 250.534757 
L 329.621157 247.000733 
L 332.900496 245.486151 
L 336.179835 252.049339 
L 339.459174 263.661131 
L 342.738512 270.224319 
L 346.017851 273.758343 
L 349.29719 274.263203 
L 352.576529 307.584 
L 355.855868 307.584 
L 359.135207 307.584 
L 362.414545 307.584 
L 365.693884 307.584 
L 368.973223 307.584 
L 372.252562 307.584 
L 375.531901 307.584 
L 378.81124 307.584 
L 382.090579 307.584 
L 385.369917 307.584 
L 388.649256 307.584 
L 391.928595 307.584 
L 395.207934 307.584 
L 398.487273 307.584 
L 398.487273 307.584 
L 398.487273 307.584 
L 395.207934 307.584 
L 391.928595 307.584 
L 388.649256 307.584 
L 385.369917 307.584 
L 382.090579 307.584 
L 378.81124 307.584 
L 375.531901 307.584 
L 372.252562 307.584 
L 368.973223 307.584 
L 365.693884 307.584 
L 362.414545 307.584 
L 359.135207 307.584 
L 355.855868 307.584 
L 352.576529 307.584 
L 349.29719 274.263203 
L 346.017851 273.758343 
L 342.738512 270.224319 
L 339.459174 263.661131 
L 336.179835 252.049339 
L 332.900496 245.486151 
L 329.621157 222.767426 
L 326.341818 220.243124 
L 323.062479 186.417466 
L 319.78314 227.816032 
L 316.503802 221.757705 
L 313.224463 231.854916 
L 309.945124 238.418104 
L 306.665785 237.408382 
L 303.386446 225.291729 
L 300.107107 229.835474 
L 296.827769 222.262566 
L 293.54843 218.728542 
L 290.269091 217.718821 
L 286.989752 192.475793 
L 283.710413 185.407745 
L 280.431074 174.805673 
L 277.151736 199.03898 
L 273.872397 196.009817 
L 270.593058 176.320255 
L 267.313719 174.805673 
L 264.03438 177.834837 
L 260.755041 171.271649 
L 257.475702 170.261928 
L 254.196364 162.184159 
L 250.917025 158.145275 
L 247.637686 125.329339 
L 244.358347 108.16408 
L 241.079008 109.678661 
L 237.799669 103.115474 
L 234.520331 113.717546 
L 231.240992 95.542566 
L 227.961653 99.07659 
L 224.682314 107.659219 
L 221.402975 121.290454 
L 218.123636 114.727267 
L 214.844298 96.552287 
L 211.564959 101.600892 
L 208.28562 90.998821 
L 205.006281 88.979378 
L 201.726942 84.435633 
L 198.447603 87.969657 
L 195.168264 92.008542 
L 191.888926 92.008542 
L 188.609587 82.416191 
L 185.330248 85.950215 
L 182.050909 82.921052 
L 178.77157 88.474518 
L 175.492231 90.49396 
L 172.212893 85.950215 
L 168.933554 60.707187 
L 165.654215 55.658582 
L 162.374876 55.153721 
L 159.095537 55.153721 
L 155.816198 55.153721 
L 152.53686 55.153721 
L 149.257521 55.153721 
L 145.978182 55.153721 
L 142.698843 54.648861 
L 139.419504 54.648861 
L 136.140165 55.153721 
L 132.860826 55.153721 
L 129.581488 55.658582 
L 126.302149 55.153721 
L 123.02281 55.153721 
L 119.743471 55.153721 
L 116.464132 55.153721 
L 113.184793 55.153721 
L 109.905455 55.153721 
L 106.626116 55.153721 
L 103.346777 55.153721 
L 100.067438 55.153721 
L 96.788099 55.153721 
L 93.50876 55.153721 
L 90.229421 55.153721 
L 86.950083 55.153721 
L 83.670744 55.153721 
L 80.391405 55.153721 
L 77.112066 55.153721 
L 73.832727 55.153721 
z
" style="fill:#9467bd;"/>
   </g>
   <g id="PolyCollection_6">
    <path clip-path="url(#p6ac3d3590a)" d="M 73.832727 55.153721 
L 73.832727 55.153721 
L 77.112066 55.153721 
L 80.391405 55.153721 
L 83.670744 55.153721 
L 86.950083 55.153721 
L 90.229421 55.153721 
L 93.50876 55.153721 
L 96.788099 55.153721 
L 100.067438 55.153721 
L 103.346777 55.153721 
L 106.626116 55.153721 
L 109.905455 55.153721 
L 113.184793 55.153721 
L 116.464132 55.153721 
L 119.743471 55.153721 
L 123.02281 55.153721 
L 126.302149 55.153721 
L 129.581488 55.658582 
L 132.860826 55.153721 
L 136.140165 55.153721 
L 139.419504 54.648861 
L 142.698843 54.648861 
L 145.978182 55.153721 
L 149.257521 55.153721 
L 152.53686 55.153721 
L 155.816198 55.153721 
L 159.095537 55.153721 
L 162.374876 55.153721 
L 165.654215 55.658582 
L 168.933554 60.707187 
L 172.212893 85.950215 
L 175.492231 90.49396 
L 178.77157 88.474518 
L 182.050909 82.921052 
L 185.330248 85.950215 
L 188.609587 82.416191 
L 191.888926 92.008542 
L 195.168264 92.008542 
L 198.447603 87.969657 
L 201.726942 84.435633 
L 205.006281 88.979378 
L 208.28562 90.998821 
L 211.564959 101.600892 
L 214.844298 96.552287 
L 218.123636 114.727267 
L 221.402975 121.290454 
L 224.682314 107.659219 
L 227.961653 99.07659 
L 231.240992 95.542566 
L 234.520331 113.717546 
L 237.799669 103.115474 
L 241.079008 109.678661 
L 244.358347 108.16408 
L 247.637686 125.329339 
L 250.917025 158.145275 
L 254.196364 162.184159 
L 257.475702 170.261928 
L 260.755041 171.271649 
L 264.03438 177.834837 
L 267.313719 174.805673 
L 270.593058 176.320255 
L 273.872397 196.009817 
L 277.151736 199.03898 
L 280.431074 174.805673 
L 283.710413 185.407745 
L 286.989752 192.475793 
L 290.269091 217.718821 
L 293.54843 218.728542 
L 296.827769 222.262566 
L 300.107107 229.835474 
L 303.386446 225.291729 
L 306.665785 237.408382 
L 309.945124 238.418104 
L 313.224463 231.854916 
L 316.503802 221.757705 
L 319.78314 227.816032 
L 323.062479 186.417466 
L 326.341818 220.243124 
L 329.621157 222.767426 
L 332.900496 245.486151 
L 336.179835 252.049339 
L 339.459174 263.661131 
L 342.738512 270.224319 
L 346.017851 273.758343 
L 349.29719 274.263203 
L 352.576529 307.584 
L 355.855868 307.584 
L 359.135207 307.584 
L 362.414545 307.584 
L 365.693884 307.584 
L 368.973223 307.584 
L 372.252562 307.584 
L 375.531901 307.584 
L 378.81124 307.584 
L 382.090579 307.584 
L 385.369917 307.584 
L 388.649256 307.584 
L 391.928595 307.584 
L 395.207934 307.584 
L 398.487273 307.584 
L 398.487273 307.584 
L 398.487273 307.584 
L 395.207934 307.584 
L 391.928595 307.584 
L 388.649256 307.584 
L 385.369917 307.584 
L 382.090579 307.584 
L 378.81124 307.584 
L 375.531901 307.584 
L 372.252562 307.584 
L 368.973223 307.584 
L 365.693884 307.584 
L 362.414545 307.584 
L 359.135207 258.107665 
L 355.855868 258.612526 
L 352.576529 266.185434 
L 349.29719 233.369498 
L 346.017851 222.262566 
L 342.738512 211.660494 
L 339.459174 197.019538 
L 336.179835 168.747347 
L 332.900496 164.708462 
L 329.621157 125.329339 
L 326.341818 151.582088 
L 323.062479 133.407108 
L 319.78314 187.427187 
L 316.503802 166.727904 
L 313.224463 188.436908 
L 309.945124 194.495235 
L 306.665785 204.087586 
L 303.386446 208.631331 
L 300.107107 202.573004 
L 296.827769 201.563283 
L 293.54843 201.563283 
L 290.269091 176.825116 
L 286.989752 167.232765 
L 283.710413 160.669578 
L 280.431074 165.213323 
L 277.151736 178.844558 
L 273.872397 166.223044 
L 270.593058 164.203602 
L 267.313719 157.640414 
L 264.03438 143.504319 
L 260.755041 136.436271 
L 257.475702 133.407108 
L 254.196364 127.348781 
L 250.917025 120.280733 
L 247.637686 92.008542 
L 244.358347 78.882167 
L 241.079008 64.746072 
L 237.799669 55.153721 
L 234.520331 55.153721 
L 231.240992 54.648861 
L 227.961653 55.153721 
L 224.682314 55.658582 
L 221.402975 55.153721 
L 218.123636 55.658582 
L 214.844298 55.658582 
L 211.564959 55.153721 
L 208.28562 55.658582 
L 205.006281 55.153721 
L 201.726942 54.648861 
L 198.447603 55.153721 
L 195.168264 55.658582 
L 191.888926 55.658582 
L 188.609587 55.658582 
L 185.330248 54.648861 
L 182.050909 55.153721 
L 178.77157 55.658582 
L 175.492231 55.153721 
L 172.212893 55.153721 
L 168.933554 55.658582 
L 165.654215 55.658582 
L 162.374876 55.153721 
L 159.095537 55.153721 
L 155.816198 55.153721 
L 152.53686 55.153721 
L 149.257521 55.153721 
L 145.978182 55.153721 
L 142.698843 54.648861 
L 139.419504 54.648861 
L 136.140165 55.153721 
L 132.860826 55.153721 
L 129.581488 55.658582 
L 126.302149 55.153721 
L 123.02281 55.153721 
L 119.743471 55.153721 
L 116.464132 55.153721 
L 113.184793 55.153721 
L 109.905455 55.153721 
L 106.626116 55.153721 
L 103.346777 55.153721 
L 100.067438 55.153721 
L 96.788099 55.153721 
L 93.50876 55.153721 
L 90.229421 55.153721 
L 86.950083 55.153721 
L 83.670744 55.153721 
L 80.391405 55.153721 
L 77.112066 55.153721 
L 73.832727 55.153721 
z
" style="fill:#8c564b;"/>
   </g>
   <g id="PolyCollection_7">
    <path clip-path="url(#p6ac3d3590a)" d="M 73.832727 55.153721 
L 73.832727 55.153721 
L 77.112066 55.153721 
L 80.391405 55.153721 
L 83.670744 55.153721 
L 86.950083 55.153721 
L 90.229421 55.153721 
L 93.50876 55.153721 
L 96.788099 55.153721 
L 100.067438 55.153721 
L 103.346777 55.153721 
L 106.626116 55.153721 
L 109.905455 55.153721 
L 113.184793 55.153721 
L 116.464132 55.153721 
L 119.743471 55.153721 
L 123.02281 55.153721 
L 126.302149 55.153721 
L 129.581488 55.658582 
L 132.860826 55.153721 
L 136.140165 55.153721 
L 139.419504 54.648861 
L 142.698843 54.648861 
L 145.978182 55.153721 
L 149.257521 55.153721 
L 152.53686 55.153721 
L 155.816198 55.153721 
L 159.095537 55.153721 
L 162.374876 55.153721 
L 165.654215 55.658582 
L 168.933554 55.658582 
L 172.212893 55.153721 
L 175.492231 55.153721 
L 178.77157 55.658582 
L 182.050909 55.153721 
L 185.330248 54.648861 
L 188.609587 55.658582 
L 191.888926 55.658582 
L 195.168264 55.658582 
L 198.447603 55.153721 
L 201.726942 54.648861 
L 205.006281 55.153721 
L 208.28562 55.658582 
L 211.564959 55.153721 
L 214.844298 55.658582 
L 218.123636 55.658582 
L 221.402975 55.153721 
L 224.682314 55.658582 
L 227.961653 55.153721 
L 231.240992 54.648861 
L 234.520331 55.153721 
L 237.799669 55.153721 
L 241.079008 64.746072 
L 244.358347 78.882167 
L 247.637686 92.008542 
L 250.917025 120.280733 
L 254.196364 127.348781 
L 257.475702 133.407108 
L 260.755041 136.436271 
L 264.03438 143.504319 
L 267.313719 157.640414 
L 270.593058 164.203602 
L 273.872397 166.223044 
L 277.151736 178.844558 
L 280.431074 165.213323 
L 283.710413 160.669578 
L 286.989752 167.232765 
L 290.269091 176.825116 
L 293.54843 201.563283 
L 296.827769 201.563283 
L 300.107107 202.573004 
L 303.386446 208.631331 
L 306.665785 204.087586 
L 309.945124 194.495235 
L 313.224463 188.436908 
L 316.503802 166.727904 
L 319.78314 187.427187 
L 323.062479 133.407108 
L 326.341818 151.582088 
L 329.621157 125.329339 
L 332.900496 164.708462 
L 336.179835 168.747347 
L 339.459174 197.019538 
L 342.738512 211.660494 
L 346.017851 222.262566 
L 349.29719 233.369498 
L 352.576529 266.185434 
L 355.855868 258.612526 
L 359.135207 258.107665 
L 362.414545 307.584 
L 365.693884 307.584 
L 368.973223 307.584 
L 372.252562 307.584 
L 375.531901 307.584 
L 378.81124 307.584 
L 382.090579 307.584 
L 385.369917 307.584 
L 388.649256 307.584 
L 391.928595 307.584 
L 395.207934 307.584 
L 398.487273 307.584 
L 398.487273 307.584 
L 398.487273 307.584 
L 395.207934 307.584 
L 391.928595 307.584 
L 388.649256 307.584 
L 385.369917 307.584 
L 382.090579 307.584 
L 378.81124 307.584 
L 375.531901 307.584 
L 372.252562 307.584 
L 368.973223 307.584 
L 365.693884 307.584 
L 362.414545 307.584 
L 359.135207 258.107665 
L 355.855868 258.612526 
L 352.576529 266.185434 
L 349.29719 233.369498 
L 346.017851 222.262566 
L 342.738512 211.660494 
L 339.459174 197.019538 
L 336.179835 168.747347 
L 332.900496 164.708462 
L 329.621157 125.329339 
L 326.341818 111.193243 
L 323.062479 115.232127 
L 319.78314 140.475155 
L 316.503802 125.834199 
L 313.224463 153.60153 
L 309.945124 154.611251 
L 306.665785 163.698741 
L 303.386446 166.727904 
L 300.107107 162.184159 
L 296.827769 158.145275 
L 293.54843 160.164717 
L 290.269091 138.960574 
L 286.989752 119.775873 
L 283.710413 119.271012 
L 280.431074 122.805036 
L 277.151736 126.84392 
L 273.872397 122.300175 
L 270.593058 123.814757 
L 267.313719 68.784956 
L 264.03438 80.90161 
L 260.755041 82.921052 
L 257.475702 83.425912 
L 254.196364 82.416191 
L 250.917025 78.882167 
L 247.637686 59.697466 
L 244.358347 55.153721 
L 241.079008 55.658582 
L 237.799669 55.153721 
L 234.520331 55.153721 
L 231.240992 54.648861 
L 227.961653 55.153721 
L 224.682314 55.658582 
L 221.402975 55.153721 
L 218.123636 55.658582 
L 214.844298 55.658582 
L 211.564959 55.153721 
L 208.28562 55.658582 
L 205.006281 55.153721 
L 201.726942 54.648861 
L 198.447603 55.153721 
L 195.168264 55.658582 
L 191.888926 55.658582 
L 188.609587 55.658582 
L 185.330248 54.648861 
L 182.050909 55.153721 
L 178.77157 55.658582 
L 175.492231 55.153721 
L 172.212893 55.153721 
L 168.933554 55.658582 
L 165.654215 55.658582 
L 162.374876 55.153721 
L 159.095537 55.153721 
L 155.816198 55.153721 
L 152.53686 55.153721 
L 149.257521 55.153721 
L 145.978182 55.153721 
L 142.698843 54.648861 
L 139.419504 54.648861 
L 136.140165 55.153721 
L 132.860826 55.153721 
L 129.581488 55.658582 
L 126.302149 55.153721 
L 123.02281 55.153721 
L 119.743471 55.153721 
L 116.464132 55.153721 
L 113.184793 55.153721 
L 109.905455 55.153721 
L 106.626116 55.153721 
L 103.346777 55.153721 
L 100.067438 55.153721 
L 96.788099 55.153721 
L 93.50876 55.153721 
L 90.229421 55.153721 
L 86.950083 55.153721 
L 83.670744 55.153721 
L 80.391405 55.153721 
L 77.112066 55.153721 
L 73.832727 55.153721 
z
" style="fill:#e377c2;"/>
   </g>
   <g id="PolyCollection_8">
    <path clip-path="url(#p6ac3d3590a)" d="M 73.832727 55.153721 
L 73.832727 55.153721 
L 77.112066 55.153721 
L 80.391405 55.153721 
L 83.670744 55.153721 
L 86.950083 55.153721 
L 90.229421 55.153721 
L 93.50876 55.153721 
L 96.788099 55.153721 
L 100.067438 55.153721 
L 103.346777 55.153721 
L 106.626116 55.153721 
L 109.905455 55.153721 
L 113.184793 55.153721 
L 116.464132 55.153721 
L 119.743471 55.153721 
L 123.02281 55.153721 
L 126.302149 55.153721 
L 129.581488 55.658582 
L 132.860826 55.153721 
L 136.140165 55.153721 
L 139.419504 54.648861 
L 142.698843 54.648861 
L 145.978182 55.153721 
L 149.257521 55.153721 
L 152.53686 55.153721 
L 155.816198 55.153721 
L 159.095537 55.153721 
L 162.374876 55.153721 
L 165.654215 55.658582 
L 168.933554 55.658582 
L 172.212893 55.153721 
L 175.492231 55.153721 
L 178.77157 55.658582 
L 182.050909 55.153721 
L 185.330248 54.648861 
L 188.609587 55.658582 
L 191.888926 55.658582 
L 195.168264 55.658582 
L 198.447603 55.153721 
L 201.726942 54.648861 
L 205.006281 55.153721 
L 208.28562 55.658582 
L 211.564959 55.153721 
L 214.844298 55.658582 
L 218.123636 55.658582 
L 221.402975 55.153721 
L 224.682314 55.658582 
L 227.961653 55.153721 
L 231.240992 54.648861 
L 234.520331 55.153721 
L 237.799669 55.153721 
L 241.079008 55.658582 
L 244.358347 55.153721 
L 247.637686 59.697466 
L 250.917025 78.882167 
L 254.196364 82.416191 
L 257.475702 83.425912 
L 260.755041 82.921052 
L 264.03438 80.90161 
L 267.313719 68.784956 
L 270.593058 123.814757 
L 273.872397 122.300175 
L 277.151736 126.84392 
L 280.431074 122.805036 
L 283.710413 119.271012 
L 286.989752 119.775873 
L 290.269091 138.960574 
L 293.54843 160.164717 
L 296.827769 158.145275 
L 300.107107 162.184159 
L 303.386446 166.727904 
L 306.665785 163.698741 
L 309.945124 154.611251 
L 313.224463 153.60153 
L 316.503802 125.834199 
L 319.78314 140.475155 
L 323.062479 115.232127 
L 326.341818 111.193243 
L 329.621157 125.329339 
L 332.900496 164.708462 
L 336.179835 168.747347 
L 339.459174 197.019538 
L 342.738512 211.660494 
L 346.017851 222.262566 
L 349.29719 233.369498 
L 352.576529 266.185434 
L 355.855868 258.612526 
L 359.135207 258.107665 
L 362.414545 307.584 
L 365.693884 307.584 
L 368.973223 307.584 
L 372.252562 307.584 
L 375.531901 307.584 
L 378.81124 307.584 
L 382.090579 307.584 
L 385.369917 307.584 
L 388.649256 307.584 
L 391.928595 307.584 
L 395.207934 307.584 
L 398.487273 307.584 
L 398.487273 307.584 
L 398.487273 307.584 
L 395.207934 307.584 
L 391.928595 307.584 
L 388.649256 307.584 
L 385.369917 307.584 
L 382.090579 307.584 
L 378.81124 307.584 
L 375.531901 307.584 
L 372.252562 307.584 
L 368.973223 307.584 
L 365.693884 307.584 
L 362.414545 307.584 
L 359.135207 258.107665 
L 355.855868 258.612526 
L 352.576529 266.185434 
L 349.29719 233.369498 
L 346.017851 222.262566 
L 342.738512 211.660494 
L 339.459174 197.019538 
L 336.179835 168.747347 
L 332.900496 164.708462 
L 329.621157 125.329339 
L 326.341818 111.193243 
L 323.062479 115.232127 
L 319.78314 140.475155 
L 316.503802 125.834199 
L 313.224463 120.280733 
L 309.945124 125.834199 
L 306.665785 134.921689 
L 303.386446 136.941131 
L 300.107107 127.853641 
L 296.827769 121.290454 
L 293.54843 121.795315 
L 290.269091 109.678661 
L 286.989752 97.562008 
L 283.710413 95.542566 
L 280.431074 96.552287 
L 277.151736 96.552287 
L 273.872397 96.552287 
L 270.593058 101.600892 
L 267.313719 58.182884 
L 264.03438 55.658582 
L 260.755041 56.163442 
L 257.475702 55.153721 
L 254.196364 55.153721 
L 250.917025 55.153721 
L 247.637686 55.153721 
L 244.358347 55.153721 
L 241.079008 55.658582 
L 237.799669 55.153721 
L 234.520331 55.153721 
L 231.240992 54.648861 
L 227.961653 55.153721 
L 224.682314 55.658582 
L 221.402975 55.153721 
L 218.123636 55.658582 
L 214.844298 55.658582 
L 211.564959 55.153721 
L 208.28562 55.658582 
L 205.006281 55.153721 
L 201.726942 54.648861 
L 198.447603 55.153721 
L 195.168264 55.658582 
L 191.888926 55.658582 
L 188.609587 55.658582 
L 185.330248 54.648861 
L 182.050909 55.153721 
L 178.77157 55.658582 
L 175.492231 55.153721 
L 172.212893 55.153721 
L 168.933554 55.658582 
L 165.654215 55.658582 
L 162.374876 55.153721 
L 159.095537 55.153721 
L 155.816198 55.153721 
L 152.53686 55.153721 
L 149.257521 55.153721 
L 145.978182 55.153721 
L 142.698843 54.648861 
L 139.419504 54.648861 
L 136.140165 55.153721 
L 132.860826 55.153721 
L 129.581488 55.658582 
L 126.302149 55.153721 
L 123.02281 55.153721 
L 119.743471 55.153721 
L 116.464132 55.153721 
L 113.184793 55.153721 
L 109.905455 55.153721 
L 106.626116 55.153721 
L 103.346777 55.153721 
L 100.067438 55.153721 
L 96.788099 55.153721 
L 93.50876 55.153721 
L 90.229421 55.153721 
L 86.950083 55.153721 
L 83.670744 55.153721 
L 80.391405 55.153721 
L 77.112066 55.153721 
L 73.832727 55.153721 
z
" style="fill:#7f7f7f;"/>
   </g>
   <g id="PolyCollection_9">
    <path clip-path="url(#p6ac3d3590a)" d="M 73.832727 55.153721 
L 73.832727 55.153721 
L 77.112066 55.153721 
L 80.391405 55.153721 
L 83.670744 55.153721 
L 86.950083 55.153721 
L 90.229421 55.153721 
L 93.50876 55.153721 
L 96.788099 55.153721 
L 100.067438 55.153721 
L 103.346777 55.153721 
L 106.626116 55.153721 
L 109.905455 55.153721 
L 113.184793 55.153721 
L 116.464132 55.153721 
L 119.743471 55.153721 
L 123.02281 55.153721 
L 126.302149 55.153721 
L 129.581488 55.658582 
L 132.860826 55.153721 
L 136.140165 55.153721 
L 139.419504 54.648861 
L 142.698843 54.648861 
L 145.978182 55.153721 
L 149.257521 55.153721 
L 152.53686 55.153721 
L 155.816198 55.153721 
L 159.095537 55.153721 
L 162.374876 55.153721 
L 165.654215 55.658582 
L 168.933554 55.658582 
L 172.212893 55.153721 
L 175.492231 55.153721 
L 178.77157 55.658582 
L 182.050909 55.153721 
L 185.330248 54.648861 
L 188.609587 55.658582 
L 191.888926 55.658582 
L 195.168264 55.658582 
L 198.447603 55.153721 
L 201.726942 54.648861 
L 205.006281 55.153721 
L 208.28562 55.658582 
L 211.564959 55.153721 
L 214.844298 55.658582 
L 218.123636 55.658582 
L 221.402975 55.153721 
L 224.682314 55.658582 
L 227.961653 55.153721 
L 231.240992 54.648861 
L 234.520331 55.153721 
L 237.799669 55.153721 
L 241.079008 55.658582 
L 244.358347 55.153721 
L 247.637686 55.153721 
L 250.917025 55.153721 
L 254.196364 55.153721 
L 257.475702 55.153721 
L 260.755041 56.163442 
L 264.03438 55.658582 
L 267.313719 58.182884 
L 270.593058 101.600892 
L 273.872397 96.552287 
L 277.151736 96.552287 
L 280.431074 96.552287 
L 283.710413 95.542566 
L 286.989752 97.562008 
L 290.269091 109.678661 
L 293.54843 121.795315 
L 296.827769 121.290454 
L 300.107107 127.853641 
L 303.386446 136.941131 
L 306.665785 134.921689 
L 309.945124 125.834199 
L 313.224463 120.280733 
L 316.503802 125.834199 
L 319.78314 140.475155 
L 323.062479 115.232127 
L 326.341818 111.193243 
L 329.621157 125.329339 
L 332.900496 164.708462 
L 336.179835 168.747347 
L 339.459174 197.019538 
L 342.738512 211.660494 
L 346.017851 222.262566 
L 349.29719 233.369498 
L 352.576529 266.185434 
L 355.855868 258.612526 
L 359.135207 258.107665 
L 362.414545 307.584 
L 365.693884 307.584 
L 368.973223 307.584 
L 372.252562 307.584 
L 375.531901 307.584 
L 378.81124 307.584 
L 382.090579 307.584 
L 385.369917 307.584 
L 388.649256 307.584 
L 391.928595 307.584 
L 395.207934 307.584 
L 398.487273 307.584 
L 398.487273 266.185434 
L 398.487273 266.185434 
L 395.207934 270.224319 
L 391.928595 269.719458 
L 388.649256 271.7389 
L 385.369917 272.243761 
L 382.090579 269.719458 
L 378.81124 272.748622 
L 375.531901 273.253482 
L 372.252562 270.729179 
L 368.973223 270.729179 
L 365.693884 275.777785 
L 362.414545 278.302088 
L 359.135207 236.398661 
L 355.855868 231.350056 
L 352.576529 228.825753 
L 349.29719 201.563283 
L 346.017851 197.524398 
L 342.738512 186.417466 
L 339.459174 166.727904 
L 336.179835 137.445992 
L 332.900496 120.785594 
L 329.621157 93.018263 
L 326.341818 80.90161 
L 323.062479 73.833562 
L 319.78314 90.49396 
L 316.503802 86.959936 
L 313.224463 86.959936 
L 309.945124 87.969657 
L 306.665785 88.474518 
L 303.386446 86.959936 
L 300.107107 82.921052 
L 296.827769 83.425912 
L 293.54843 82.921052 
L 290.269091 76.357865 
L 286.989752 59.192606 
L 283.710413 54.648861 
L 280.431074 55.658582 
L 277.151736 55.658582 
L 273.872397 55.658582 
L 270.593058 56.163442 
L 267.313719 55.658582 
L 264.03438 55.658582 
L 260.755041 56.163442 
L 257.475702 55.153721 
L 254.196364 55.153721 
L 250.917025 55.153721 
L 247.637686 55.153721 
L 244.358347 55.153721 
L 241.079008 55.658582 
L 237.799669 55.153721 
L 234.520331 55.153721 
L 231.240992 54.648861 
L 227.961653 55.153721 
L 224.682314 55.658582 
L 221.402975 55.153721 
L 218.123636 55.658582 
L 214.844298 55.658582 
L 211.564959 55.153721 
L 208.28562 55.658582 
L 205.006281 55.153721 
L 201.726942 54.648861 
L 198.447603 55.153721 
L 195.168264 55.658582 
L 191.888926 55.658582 
L 188.609587 55.658582 
L 185.330248 54.648861 
L 182.050909 55.153721 
L 178.77157 55.658582 
L 175.492231 55.153721 
L 172.212893 55.153721 
L 168.933554 55.658582 
L 165.654215 55.658582 
L 162.374876 55.153721 
L 159.095537 55.153721 
L 155.816198 55.153721 
L 152.53686 55.153721 
L 149.257521 55.153721 
L 145.978182 55.153721 
L 142.698843 54.648861 
L 139.419504 54.648861 
L 136.140165 55.153721 
L 132.860826 55.153721 
L 129.581488 55.658582 
L 126.302149 55.153721 
L 123.02281 55.153721 
L 119.743471 55.153721 
L 116.464132 55.153721 
L 113.184793 55.153721 
L 109.905455 55.153721 
L 106.626116 55.153721 
L 103.346777 55.153721 
L 100.067438 55.153721 
L 96.788099 55.153721 
L 93.50876 55.153721 
L 90.229421 55.153721 
L 86.950083 55.153721 
L 83.670744 55.153721 
L 80.391405 55.153721 
L 77.112066 55.153721 
L 73.832727 55.153721 
z
" style="fill:#bcbd22;"/>
   </g>
   <g id="PolyCollection_10">
    <path clip-path="url(#p6ac3d3590a)" d="M 73.832727 55.153721 
L 73.832727 55.153721 
L 77.112066 55.153721 
L 80.391405 55.153721 
L 83.670744 55.153721 
L 86.950083 55.153721 
L 90.229421 55.153721 
L 93.50876 55.153721 
L 96.788099 55.153721 
L 100.067438 55.153721 
L 103.346777 55.153721 
L 106.626116 55.153721 
L 109.905455 55.153721 
L 113.184793 55.153721 
L 116.464132 55.153721 
L 119.743471 55.153721 
L 123.02281 55.153721 
L 126.302149 55.153721 
L 129.581488 55.658582 
L 132.860826 55.153721 
L 136.140165 55.153721 
L 139.419504 54.648861 
L 142.698843 54.648861 
L 145.978182 55.153721 
L 149.257521 55.153721 
L 152.53686 55.153721 
L 155.816198 55.153721 
L 159.095537 55.153721 
L 162.374876 55.153721 
L 165.654215 55.658582 
L 168.933554 55.658582 
L 172.212893 55.153721 
L 175.492231 55.153721 
L 178.77157 55.658582 
L 182.050909 55.153721 
L 185.330248 54.648861 
L 188.609587 55.658582 
L 191.888926 55.658582 
L 195.168264 55.658582 
L 198.447603 55.153721 
L 201.726942 54.648861 
L 205.006281 55.153721 
L 208.28562 55.658582 
L 211.564959 55.153721 
L 214.844298 55.658582 
L 218.123636 55.658582 
L 221.402975 55.153721 
L 224.682314 55.658582 
L 227.961653 55.153721 
L 231.240992 54.648861 
L 234.520331 55.153721 
L 237.799669 55.153721 
L 241.079008 55.658582 
L 244.358347 55.153721 
L 247.637686 55.153721 
L 250.917025 55.153721 
L 254.196364 55.153721 
L 257.475702 55.153721 
L 260.755041 56.163442 
L 264.03438 55.658582 
L 267.313719 55.658582 
L 270.593058 56.163442 
L 273.872397 55.658582 
L 277.151736 55.658582 
L 280.431074 55.658582 
L 283.710413 54.648861 
L 286.989752 59.192606 
L 290.269091 76.357865 
L 293.54843 82.921052 
L 296.827769 83.425912 
L 300.107107 82.921052 
L 303.386446 86.959936 
L 306.665785 88.474518 
L 309.945124 87.969657 
L 313.224463 86.959936 
L 316.503802 86.959936 
L 319.78314 90.49396 
L 323.062479 73.833562 
L 326.341818 80.90161 
L 329.621157 93.018263 
L 332.900496 120.785594 
L 336.179835 137.445992 
L 339.459174 166.727904 
L 342.738512 186.417466 
L 346.017851 197.524398 
L 349.29719 201.563283 
L 352.576529 228.825753 
L 355.855868 231.350056 
L 359.135207 236.398661 
L 362.414545 278.302088 
L 365.693884 275.777785 
L 368.973223 270.729179 
L 372.252562 270.729179 
L 375.531901 273.253482 
L 378.81124 272.748622 
L 382.090579 269.719458 
L 385.369917 272.243761 
L 388.649256 271.7389 
L 391.928595 269.719458 
L 395.207934 270.224319 
L 398.487273 266.185434 
L 398.487273 237.913243 
L 398.487273 237.913243 
L 395.207934 241.447267 
L 391.928595 243.97157 
L 388.649256 244.47643 
L 385.369917 248.515315 
L 382.090579 243.97157 
L 378.81124 256.088223 
L 375.531901 252.554199 
L 372.252562 249.020175 
L 368.973223 250.534757 
L 365.693884 257.602805 
L 362.414545 256.593084 
L 359.135207 219.233402 
L 355.855868 213.175076 
L 352.576529 200.048701 
L 349.29719 178.844558 
L 346.017851 167.232765 
L 342.738512 163.698741 
L 339.459174 160.164717 
L 336.179835 112.707825 
L 332.900496 81.40647 
L 329.621157 64.241211 
L 326.341818 55.153721 
L 323.062479 55.658582 
L 319.78314 55.153721 
L 316.503802 55.153721 
L 313.224463 56.163442 
L 309.945124 55.153721 
L 306.665785 55.153721 
L 303.386446 55.153721 
L 300.107107 55.153721 
L 296.827769 55.153721 
L 293.54843 55.153721 
L 290.269091 55.153721 
L 286.989752 54.648861 
L 283.710413 54.648861 
L 280.431074 55.658582 
L 277.151736 55.658582 
L 273.872397 55.658582 
L 270.593058 56.163442 
L 267.313719 55.658582 
L 264.03438 55.658582 
L 260.755041 56.163442 
L 257.475702 55.153721 
L 254.196364 55.153721 
L 250.917025 55.153721 
L 247.637686 55.153721 
L 244.358347 55.153721 
L 241.079008 55.658582 
L 237.799669 55.153721 
L 234.520331 55.153721 
L 231.240992 54.648861 
L 227.961653 55.153721 
L 224.682314 55.658582 
L 221.402975 55.153721 
L 218.123636 55.658582 
L 214.844298 55.658582 
L 211.564959 55.153721 
L 208.28562 55.658582 
L 205.006281 55.153721 
L 201.726942 54.648861 
L 198.447603 55.153721 
L 195.168264 55.658582 
L 191.888926 55.658582 
L 188.609587 55.658582 
L 185.330248 54.648861 
L 182.050909 55.153721 
L 178.77157 55.658582 
L 175.492231 55.153721 
L 172.212893 55.153721 
L 168.933554 55.658582 
L 165.654215 55.658582 
L 162.374876 55.153721 
L 159.095537 55.153721 
L 155.816198 55.153721 
L 152.53686 55.153721 
L 149.257521 55.153721 
L 145.978182 55.153721 
L 142.698843 54.648861 
L 139.419504 54.648861 
L 136.140165 55.153721 
L 132.860826 55.153721 
L 129.581488 55.658582 
L 126.302149 55.153721 
L 123.02281 55.153721 
L 119.743471 55.153721 
L 116.464132 55.153721 
L 113.184793 55.153721 
L 109.905455 55.153721 
L 106.626116 55.153721 
L 103.346777 55.153721 
L 100.067438 55.153721 
L 96.788099 55.153721 
L 93.50876 55.153721 
L 90.229421 55.153721 
L 86.950083 55.153721 
L 83.670744 55.153721 
L 80.391405 55.153721 
L 77.112066 55.153721 
L 73.832727 55.153721 
z
" style="fill:#17becf;"/>
   </g>
   <g id="PolyCollection_11">
    <path clip-path="url(#p6ac3d3590a)" d="M 73.832727 55.153721 
L 73.832727 55.153721 
L 77.112066 55.153721 
L 80.391405 55.153721 
L 83.670744 55.153721 
L 86.950083 55.153721 
L 90.229421 55.153721 
L 93.50876 55.153721 
L 96.788099 55.153721 
L 100.067438 55.153721 
L 103.346777 55.153721 
L 106.626116 55.153721 
L 109.905455 55.153721 
L 113.184793 55.153721 
L 116.464132 55.153721 
L 119.743471 55.153721 
L 123.02281 55.153721 
L 126.302149 55.153721 
L 129.581488 55.658582 
L 132.860826 55.153721 
L 136.140165 55.153721 
L 139.419504 54.648861 
L 142.698843 54.648861 
L 145.978182 55.153721 
L 149.257521 55.153721 
L 152.53686 55.153721 
L 155.816198 55.153721 
L 159.095537 55.153721 
L 162.374876 55.153721 
L 165.654215 55.658582 
L 168.933554 55.658582 
L 172.212893 55.153721 
L 175.492231 55.153721 
L 178.77157 55.658582 
L 182.050909 55.153721 
L 185.330248 54.648861 
L 188.609587 55.658582 
L 191.888926 55.658582 
L 195.168264 55.658582 
L 198.447603 55.153721 
L 201.726942 54.648861 
L 205.006281 55.153721 
L 208.28562 55.658582 
L 211.564959 55.153721 
L 214.844298 55.658582 
L 218.123636 55.658582 
L 221.402975 55.153721 
L 224.682314 55.658582 
L 227.961653 55.153721 
L 231.240992 54.648861 
L 234.520331 55.153721 
L 237.799669 55.153721 
L 241.079008 55.658582 
L 244.358347 55.153721 
L 247.637686 55.153721 
L 250.917025 55.153721 
L 254.196364 55.153721 
L 257.475702 55.153721 
L 260.755041 56.163442 
L 264.03438 55.658582 
L 267.313719 55.658582 
L 270.593058 56.163442 
L 273.872397 55.658582 
L 277.151736 55.658582 
L 280.431074 55.658582 
L 283.710413 54.648861 
L 286.989752 54.648861 
L 290.269091 55.153721 
L 293.54843 55.153721 
L 296.827769 55.153721 
L 300.107107 55.153721 
L 303.386446 55.153721 
L 306.665785 55.153721 
L 309.945124 55.153721 
L 313.224463 56.163442 
L 316.503802 55.153721 
L 319.78314 55.153721 
L 323.062479 55.658582 
L 326.341818 55.153721 
L 329.621157 64.241211 
L 332.900496 81.40647 
L 336.179835 112.707825 
L 339.459174 160.164717 
L 342.738512 163.698741 
L 346.017851 167.232765 
L 349.29719 178.844558 
L 352.576529 200.048701 
L 355.855868 213.175076 
L 359.135207 219.233402 
L 362.414545 256.593084 
L 365.693884 257.602805 
L 368.973223 250.534757 
L 372.252562 249.020175 
L 375.531901 252.554199 
L 378.81124 256.088223 
L 382.090579 243.97157 
L 385.369917 248.515315 
L 388.649256 244.47643 
L 391.928595 243.97157 
L 395.207934 241.447267 
L 398.487273 237.913243 
L 398.487273 203.582725 
L 398.487273 203.582725 
L 395.207934 195.504956 
L 391.928595 211.155633 
L 388.649256 210.650773 
L 385.369917 215.699378 
L 382.090579 208.631331 
L 378.81124 208.12647 
L 375.531901 208.12647 
L 372.252562 187.932048 
L 368.973223 238.418104 
L 365.693884 223.272287 
L 362.414545 223.272287 
L 359.135207 164.708462 
L 355.855868 141.484876 
L 352.576529 154.10639 
L 349.29719 144.009179 
L 346.017851 136.436271 
L 342.738512 127.348781 
L 339.459174 118.766151 
L 336.179835 74.843283 
L 332.900496 55.153721 
L 329.621157 55.153721 
L 326.341818 55.153721 
L 323.062479 55.658582 
L 319.78314 55.153721 
L 316.503802 55.153721 
L 313.224463 56.163442 
L 309.945124 55.153721 
L 306.665785 55.153721 
L 303.386446 55.153721 
L 300.107107 55.153721 
L 296.827769 55.153721 
L 293.54843 55.153721 
L 290.269091 55.153721 
L 286.989752 54.648861 
L 283.710413 54.648861 
L 280.431074 55.658582 
L 277.151736 55.658582 
L 273.872397 55.658582 
L 270.593058 56.163442 
L 267.313719 55.658582 
L 264.03438 55.658582 
L 260.755041 56.163442 
L 257.475702 55.153721 
L 254.196364 55.153721 
L 250.917025 55.153721 
L 247.637686 55.153721 
L 244.358347 55.153721 
L 241.079008 55.658582 
L 237.799669 55.153721 
L 234.520331 55.153721 
L 231.240992 54.648861 
L 227.961653 55.153721 
L 224.682314 55.658582 
L 221.402975 55.153721 
L 218.123636 55.658582 
L 214.844298 55.658582 
L 211.564959 55.153721 
L 208.28562 55.658582 
L 205.006281 55.153721 
L 201.726942 54.648861 
L 198.447603 55.153721 
L 195.168264 55.658582 
L 191.888926 55.658582 
L 188.609587 55.658582 
L 185.330248 54.648861 
L 182.050909 55.153721 
L 178.77157 55.658582 
L 175.492231 55.153721 
L 172.212893 55.153721 
L 168.933554 55.658582 
L 165.654215 55.658582 
L 162.374876 55.153721 
L 159.095537 55.153721 
L 155.816198 55.153721 
L 152.53686 55.153721 
L 149.257521 55.153721 
L 145.978182 55.153721 
L 142.698843 54.648861 
L 139.419504 54.648861 
L 136.140165 55.153721 
L 132.860826 55.153721 
L 129.581488 55.658582 
L 126.302149 55.153721 
L 123.02281 55.153721 
L 119.743471 55.153721 
L 116.464132 55.153721 
L 113.184793 55.153721 
L 109.905455 55.153721 
L 106.626116 55.153721 
L 103.346777 55.153721 
L 100.067438 55.153721 
L 96.788099 55.153721 
L 93.50876 55.153721 
L 90.229421 55.153721 
L 86.950083 55.153721 
L 83.670744 55.153721 
L 80.391405 55.153721 
L 77.112066 55.153721 
L 73.832727 55.153721 
z
" style="fill:#1f77b4;"/>
   </g>
   <g id="PolyCollection_12">
    <path clip-path="url(#p6ac3d3590a)" d="M 73.832727 55.153721 
L 73.832727 55.153721 
L 77.112066 55.153721 
L 80.391405 55.153721 
L 83.670744 55.153721 
L 86.950083 55.153721 
L 90.229421 55.153721 
L 93.50876 55.153721 
L 96.788099 55.153721 
L 100.067438 55.153721 
L 103.346777 55.153721 
L 106.626116 55.153721 
L 109.905455 55.153721 
L 113.184793 55.153721 
L 116.464132 55.153721 
L 119.743471 55.153721 
L 123.02281 55.153721 
L 126.302149 55.153721 
L 129.581488 55.658582 
L 132.860826 55.153721 
L 136.140165 55.153721 
L 139.419504 54.648861 
L 142.698843 54.648861 
L 145.978182 55.153721 
L 149.257521 55.153721 
L 152.53686 55.153721 
L 155.816198 55.153721 
L 159.095537 55.153721 
L 162.374876 55.153721 
L 165.654215 55.658582 
L 168.933554 55.658582 
L 172.212893 55.153721 
L 175.492231 55.153721 
L 178.77157 55.658582 
L 182.050909 55.153721 
L 185.330248 54.648861 
L 188.609587 55.658582 
L 191.888926 55.658582 
L 195.168264 55.658582 
L 198.447603 55.153721 
L 201.726942 54.648861 
L 205.006281 55.153721 
L 208.28562 55.658582 
L 211.564959 55.153721 
L 214.844298 55.658582 
L 218.123636 55.658582 
L 221.402975 55.153721 
L 224.682314 55.658582 
L 227.961653 55.153721 
L 231.240992 54.648861 
L 234.520331 55.153721 
L 237.799669 55.153721 
L 241.079008 55.658582 
L 244.358347 55.153721 
L 247.637686 55.153721 
L 250.917025 55.153721 
L 254.196364 55.153721 
L 257.475702 55.153721 
L 260.755041 56.163442 
L 264.03438 55.658582 
L 267.313719 55.658582 
L 270.593058 56.163442 
L 273.872397 55.658582 
L 277.151736 55.658582 
L 280.431074 55.658582 
L 283.710413 54.648861 
L 286.989752 54.648861 
L 290.269091 55.153721 
L 293.54843 55.153721 
L 296.827769 55.153721 
L 300.107107 55.153721 
L 303.386446 55.153721 
L 306.665785 55.153721 
L 309.945124 55.153721 
L 313.224463 56.163442 
L 316.503802 55.153721 
L 319.78314 55.153721 
L 323.062479 55.658582 
L 326.341818 55.153721 
L 329.621157 55.153721 
L 332.900496 55.153721 
L 336.179835 74.843283 
L 339.459174 118.766151 
L 342.738512 127.348781 
L 346.017851 136.436271 
L 349.29719 144.009179 
L 352.576529 154.10639 
L 355.855868 141.484876 
L 359.135207 164.708462 
L 362.414545 223.272287 
L 365.693884 223.272287 
L 368.973223 238.418104 
L 372.252562 187.932048 
L 375.531901 208.12647 
L 378.81124 208.12647 
L 382.090579 208.631331 
L 385.369917 215.699378 
L 388.649256 210.650773 
L 391.928595 211.155633 
L 395.207934 195.504956 
L 398.487273 203.582725 
L 398.487273 173.795952 
L 398.487273 173.795952 
L 395.207934 172.281371 
L 391.928595 181.873721 
L 388.649256 180.864 
L 385.369917 179.349418 
L 382.090579 175.815394 
L 378.81124 172.281371 
L 375.531901 181.368861 
L 372.252562 157.640414 
L 368.973223 201.563283 
L 365.693884 187.427187 
L 362.414545 190.456351 
L 359.135207 132.902247 
L 355.855868 99.07659 
L 352.576529 106.649498 
L 349.29719 98.571729 
L 346.017851 101.600892 
L 342.738512 75.853004 
L 339.459174 91.503681 
L 336.179835 60.202327 
L 332.900496 55.153721 
L 329.621157 55.153721 
L 326.341818 55.153721 
L 323.062479 55.658582 
L 319.78314 55.153721 
L 316.503802 55.153721 
L 313.224463 56.163442 
L 309.945124 55.153721 
L 306.665785 55.153721 
L 303.386446 55.153721 
L 300.107107 55.153721 
L 296.827769 55.153721 
L 293.54843 55.153721 
L 290.269091 55.153721 
L 286.989752 54.648861 
L 283.710413 54.648861 
L 280.431074 55.658582 
L 277.151736 55.658582 
L 273.872397 55.658582 
L 270.593058 56.163442 
L 267.313719 55.658582 
L 264.03438 55.658582 
L 260.755041 56.163442 
L 257.475702 55.153721 
L 254.196364 55.153721 
L 250.917025 55.153721 
L 247.637686 55.153721 
L 244.358347 55.153721 
L 241.079008 55.658582 
L 237.799669 55.153721 
L 234.520331 55.153721 
L 231.240992 54.648861 
L 227.961653 55.153721 
L 224.682314 55.658582 
L 221.402975 55.153721 
L 218.123636 55.658582 
L 214.844298 55.658582 
L 211.564959 55.153721 
L 208.28562 55.658582 
L 205.006281 55.153721 
L 201.726942 54.648861 
L 198.447603 55.153721 
L 195.168264 55.658582 
L 191.888926 55.658582 
L 188.609587 55.658582 
L 185.330248 54.648861 
L 182.050909 55.153721 
L 178.77157 55.658582 
L 175.492231 55.153721 
L 172.212893 55.153721 
L 168.933554 55.658582 
L 165.654215 55.658582 
L 162.374876 55.153721 
L 159.095537 55.153721 
L 155.816198 55.153721 
L 152.53686 55.153721 
L 149.257521 55.153721 
L 145.978182 55.153721 
L 142.698843 54.648861 
L 139.419504 54.648861 
L 136.140165 55.153721 
L 132.860826 55.153721 
L 129.581488 55.658582 
L 126.302149 55.153721 
L 123.02281 55.153721 
L 119.743471 55.153721 
L 116.464132 55.153721 
L 113.184793 55.153721 
L 109.905455 55.153721 
L 106.626116 55.153721 
L 103.346777 55.153721 
L 100.067438 55.153721 
L 96.788099 55.153721 
L 93.50876 55.153721 
L 90.229421 55.153721 
L 86.950083 55.153721 
L 83.670744 55.153721 
L 80.391405 55.153721 
L 77.112066 55.153721 
L 73.832727 55.153721 
z
" style="fill:#ff7f0e;"/>
   </g>
   <g id="PolyCollection_13">
    <path clip-path="url(#p6ac3d3590a)" d="M 73.832727 55.153721 
L 73.832727 55.153721 
L 77.112066 55.153721 
L 80.391405 55.153721 
L 83.670744 55.153721 
L 86.950083 55.153721 
L 90.229421 55.153721 
L 93.50876 55.153721 
L 96.788099 55.153721 
L 100.067438 55.153721 
L 103.346777 55.153721 
L 106.626116 55.153721 
L 109.905455 55.153721 
L 113.184793 55.153721 
L 116.464132 55.153721 
L 119.743471 55.153721 
L 123.02281 55.153721 
L 126.302149 55.153721 
L 129.581488 55.658582 
L 132.860826 55.153721 
L 136.140165 55.153721 
L 139.419504 54.648861 
L 142.698843 54.648861 
L 145.978182 55.153721 
L 149.257521 55.153721 
L 152.53686 55.153721 
L 155.816198 55.153721 
L 159.095537 55.153721 
L 162.374876 55.153721 
L 165.654215 55.658582 
L 168.933554 55.658582 
L 172.212893 55.153721 
L 175.492231 55.153721 
L 178.77157 55.658582 
L 182.050909 55.153721 
L 185.330248 54.648861 
L 188.609587 55.658582 
L 191.888926 55.658582 
L 195.168264 55.658582 
L 198.447603 55.153721 
L 201.726942 54.648861 
L 205.006281 55.153721 
L 208.28562 55.658582 
L 211.564959 55.153721 
L 214.844298 55.658582 
L 218.123636 55.658582 
L 221.402975 55.153721 
L 224.682314 55.658582 
L 227.961653 55.153721 
L 231.240992 54.648861 
L 234.520331 55.153721 
L 237.799669 55.153721 
L 241.079008 55.658582 
L 244.358347 55.153721 
L 247.637686 55.153721 
L 250.917025 55.153721 
L 254.196364 55.153721 
L 257.475702 55.153721 
L 260.755041 56.163442 
L 264.03438 55.658582 
L 267.313719 55.658582 
L 270.593058 56.163442 
L 273.872397 55.658582 
L 277.151736 55.658582 
L 280.431074 55.658582 
L 283.710413 54.648861 
L 286.989752 54.648861 
L 290.269091 55.153721 
L 293.54843 55.153721 
L 296.827769 55.153721 
L 300.107107 55.153721 
L 303.386446 55.153721 
L 306.665785 55.153721 
L 309.945124 55.153721 
L 313.224463 56.163442 
L 316.503802 55.153721 
L 319.78314 55.153721 
L 323.062479 55.658582 
L 326.341818 55.153721 
L 329.621157 55.153721 
L 332.900496 55.153721 
L 336.179835 60.202327 
L 339.459174 91.503681 
L 342.738512 75.853004 
L 346.017851 101.600892 
L 349.29719 98.571729 
L 352.576529 106.649498 
L 355.855868 99.07659 
L 359.135207 132.902247 
L 362.414545 190.456351 
L 365.693884 187.427187 
L 368.973223 201.563283 
L 372.252562 157.640414 
L 375.531901 181.368861 
L 378.81124 172.281371 
L 382.090579 175.815394 
L 385.369917 179.349418 
L 388.649256 180.864 
L 391.928595 181.873721 
L 395.207934 172.281371 
L 398.487273 173.795952 
L 398.487273 151.582088 
L 398.487273 151.582088 
L 395.207934 158.145275 
L 391.928595 160.164717 
L 388.649256 155.116112 
L 385.369917 154.611251 
L 382.090579 153.096669 
L 378.81124 147.038343 
L 375.531901 154.10639 
L 372.252562 122.805036 
L 368.973223 183.893163 
L 365.693884 161.174438 
L 362.414545 160.669578 
L 359.135207 114.727267 
L 355.855868 81.911331 
L 352.576529 84.435633 
L 349.29719 76.357865 
L 346.017851 78.882167 
L 342.738512 68.280096 
L 339.459174 55.658582 
L 336.179835 54.648861 
L 332.900496 55.153721 
L 329.621157 55.153721 
L 326.341818 55.153721 
L 323.062479 55.658582 
L 319.78314 55.153721 
L 316.503802 55.153721 
L 313.224463 56.163442 
L 309.945124 55.153721 
L 306.665785 55.153721 
L 303.386446 55.153721 
L 300.107107 55.153721 
L 296.827769 55.153721 
L 293.54843 55.153721 
L 290.269091 55.153721 
L 286.989752 54.648861 
L 283.710413 54.648861 
L 280.431074 55.658582 
L 277.151736 55.658582 
L 273.872397 55.658582 
L 270.593058 56.163442 
L 267.313719 55.658582 
L 264.03438 55.658582 
L 260.755041 56.163442 
L 257.475702 55.153721 
L 254.196364 55.153721 
L 250.917025 55.153721 
L 247.637686 55.153721 
L 244.358347 55.153721 
L 241.079008 55.658582 
L 237.799669 55.153721 
L 234.520331 55.153721 
L 231.240992 54.648861 
L 227.961653 55.153721 
L 224.682314 55.658582 
L 221.402975 55.153721 
L 218.123636 55.658582 
L 214.844298 55.658582 
L 211.564959 55.153721 
L 208.28562 55.658582 
L 205.006281 55.153721 
L 201.726942 54.648861 
L 198.447603 55.153721 
L 195.168264 55.658582 
L 191.888926 55.658582 
L 188.609587 55.658582 
L 185.330248 54.648861 
L 182.050909 55.153721 
L 178.77157 55.658582 
L 175.492231 55.153721 
L 172.212893 55.153721 
L 168.933554 55.658582 
L 165.654215 55.658582 
L 162.374876 55.153721 
L 159.095537 55.153721 
L 155.816198 55.153721 
L 152.53686 55.153721 
L 149.257521 55.153721 
L 145.978182 55.153721 
L 142.698843 54.648861 
L 139.419504 54.648861 
L 136.140165 55.153721 
L 132.860826 55.153721 
L 129.581488 55.658582 
L 126.302149 55.153721 
L 123.02281 55.153721 
L 119.743471 55.153721 
L 116.464132 55.153721 
L 113.184793 55.153721 
L 109.905455 55.153721 
L 106.626116 55.153721 
L 103.346777 55.153721 
L 100.067438 55.153721 
L 96.788099 55.153721 
L 93.50876 55.153721 
L 90.229421 55.153721 
L 86.950083 55.153721 
L 83.670744 55.153721 
L 80.391405 55.153721 
L 77.112066 55.153721 
L 73.832727 55.153721 
z
" style="fill:#2ca02c;"/>
   </g>
   <g id="PolyCollection_14">
    <path clip-path="url(#p6ac3d3590a)" d="M 73.832727 55.153721 
L 73.832727 55.153721 
L 77.112066 55.153721 
L 80.391405 55.153721 
L 83.670744 55.153721 
L 86.950083 55.153721 
L 90.229421 55.153721 
L 93.50876 55.153721 
L 96.788099 55.153721 
L 100.067438 55.153721 
L 103.346777 55.153721 
L 106.626116 55.153721 
L 109.905455 55.153721 
L 113.184793 55.153721 
L 116.464132 55.153721 
L 119.743471 55.153721 
L 123.02281 55.153721 
L 126.302149 55.153721 
L 129.581488 55.658582 
L 132.860826 55.153721 
L 136.140165 55.153721 
L 139.419504 54.648861 
L 142.698843 54.648861 
L 145.978182 55.153721 
L 149.257521 55.153721 
L 152.53686 55.153721 
L 155.816198 55.153721 
L 159.095537 55.153721 
L 162.374876 55.153721 
L 165.654215 55.658582 
L 168.933554 55.658582 
L 172.212893 55.153721 
L 175.492231 55.153721 
L 178.77157 55.658582 
L 182.050909 55.153721 
L 185.330248 54.648861 
L 188.609587 55.658582 
L 191.888926 55.658582 
L 195.168264 55.658582 
L 198.447603 55.153721 
L 201.726942 54.648861 
L 205.006281 55.153721 
L 208.28562 55.658582 
L 211.564959 55.153721 
L 214.844298 55.658582 
L 218.123636 55.658582 
L 221.402975 55.153721 
L 224.682314 55.658582 
L 227.961653 55.153721 
L 231.240992 54.648861 
L 234.520331 55.153721 
L 237.799669 55.153721 
L 241.079008 55.658582 
L 244.358347 55.153721 
L 247.637686 55.153721 
L 250.917025 55.153721 
L 254.196364 55.153721 
L 257.475702 55.153721 
L 260.755041 56.163442 
L 264.03438 55.658582 
L 267.313719 55.658582 
L 270.593058 56.163442 
L 273.872397 55.658582 
L 277.151736 55.658582 
L 280.431074 55.658582 
L 283.710413 54.648861 
L 286.989752 54.648861 
L 290.269091 55.153721 
L 293.54843 55.153721 
L 296.827769 55.153721 
L 300.107107 55.153721 
L 303.386446 55.153721 
L 306.665785 55.153721 
L 309.945124 55.153721 
L 313.224463 56.163442 
L 316.503802 55.153721 
L 319.78314 55.153721 
L 323.062479 55.658582 
L 326.341818 55.153721 
L 329.621157 55.153721 
L 332.900496 55.153721 
L 336.179835 54.648861 
L 339.459174 55.658582 
L 342.738512 68.280096 
L 346.017851 78.882167 
L 349.29719 76.357865 
L 352.576529 84.435633 
L 355.855868 81.911331 
L 359.135207 114.727267 
L 362.414545 160.669578 
L 365.693884 161.174438 
L 368.973223 183.893163 
L 372.252562 122.805036 
L 375.531901 154.10639 
L 378.81124 147.038343 
L 382.090579 153.096669 
L 385.369917 154.611251 
L 388.649256 155.116112 
L 391.928595 160.164717 
L 395.207934 158.145275 
L 398.487273 151.582088 
L 398.487273 111.193243 
L 398.487273 111.193243 
L 395.207934 122.300175 
L 391.928595 109.678661 
L 388.649256 114.727267 
L 385.369917 105.134916 
L 382.090579 103.620335 
L 378.81124 109.173801 
L 375.531901 123.309896 
L 372.252562 105.639777 
L 368.973223 124.319618 
L 365.693884 116.241849 
L 362.414545 119.775873 
L 359.135207 83.425912 
L 355.855868 60.202327 
L 352.576529 55.153721 
L 349.29719 54.648861 
L 346.017851 55.153721 
L 342.738512 54.648861 
L 339.459174 54.648861 
L 336.179835 54.648861 
L 332.900496 55.153721 
L 329.621157 55.153721 
L 326.341818 55.153721 
L 323.062479 55.658582 
L 319.78314 55.153721 
L 316.503802 55.153721 
L 313.224463 56.163442 
L 309.945124 55.153721 
L 306.665785 55.153721 
L 303.386446 55.153721 
L 300.107107 55.153721 
L 296.827769 55.153721 
L 293.54843 55.153721 
L 290.269091 55.153721 
L 286.989752 54.648861 
L 283.710413 54.648861 
L 280.431074 55.658582 
L 277.151736 55.658582 
L 273.872397 55.658582 
L 270.593058 56.163442 
L 267.313719 55.658582 
L 264.03438 55.658582 
L 260.755041 56.163442 
L 257.475702 55.153721 
L 254.196364 55.153721 
L 250.917025 55.153721 
L 247.637686 55.153721 
L 244.358347 55.153721 
L 241.079008 55.658582 
L 237.799669 55.153721 
L 234.520331 55.153721 
L 231.240992 54.648861 
L 227.961653 55.153721 
L 224.682314 55.658582 
L 221.402975 55.153721 
L 218.123636 55.658582 
L 214.844298 55.658582 
L 211.564959 55.153721 
L 208.28562 55.658582 
L 205.006281 55.153721 
L 201.726942 54.648861 
L 198.447603 55.153721 
L 195.168264 55.658582 
L 191.888926 55.658582 
L 188.609587 55.658582 
L 185.330248 54.648861 
L 182.050909 55.153721 
L 178.77157 55.658582 
L 175.492231 55.153721 
L 172.212893 55.153721 
L 168.933554 55.658582 
L 165.654215 55.658582 
L 162.374876 55.153721 
L 159.095537 55.153721 
L 155.816198 55.153721 
L 152.53686 55.153721 
L 149.257521 55.153721 
L 145.978182 55.153721 
L 142.698843 54.648861 
L 139.419504 54.648861 
L 136.140165 55.153721 
L 132.860826 55.153721 
L 129.581488 55.658582 
L 126.302149 55.153721 
L 123.02281 55.153721 
L 119.743471 55.153721 
L 116.464132 55.153721 
L 113.184793 55.153721 
L 109.905455 55.153721 
L 106.626116 55.153721 
L 103.346777 55.153721 
L 100.067438 55.153721 
L 96.788099 55.153721 
L 93.50876 55.153721 
L 90.229421 55.153721 
L 86.950083 55.153721 
L 83.670744 55.153721 
L 80.391405 55.153721 
L 77.112066 55.153721 
L 73.832727 55.153721 
z
" style="fill:#d62728;"/>
   </g>
   <g id="PolyCollection_15">
    <path clip-path="url(#p6ac3d3590a)" d="M 73.832727 55.153721 
L 73.832727 55.153721 
L 77.112066 55.153721 
L 80.391405 55.153721 
L 83.670744 55.153721 
L 86.950083 55.153721 
L 90.229421 55.153721 
L 93.50876 55.153721 
L 96.788099 55.153721 
L 100.067438 55.153721 
L 103.346777 55.153721 
L 106.626116 55.153721 
L 109.905455 55.153721 
L 113.184793 55.153721 
L 116.464132 55.153721 
L 119.743471 55.153721 
L 123.02281 55.153721 
L 126.302149 55.153721 
L 129.581488 55.658582 
L 132.860826 55.153721 
L 136.140165 55.153721 
L 139.419504 54.648861 
L 142.698843 54.648861 
L 145.978182 55.153721 
L 149.257521 55.153721 
L 152.53686 55.153721 
L 155.816198 55.153721 
L 159.095537 55.153721 
L 162.374876 55.153721 
L 165.654215 55.658582 
L 168.933554 55.658582 
L 172.212893 55.153721 
L 175.492231 55.153721 
L 178.77157 55.658582 
L 182.050909 55.153721 
L 185.330248 54.648861 
L 188.609587 55.658582 
L 191.888926 55.658582 
L 195.168264 55.658582 
L 198.447603 55.153721 
L 201.726942 54.648861 
L 205.006281 55.153721 
L 208.28562 55.658582 
L 211.564959 55.153721 
L 214.844298 55.658582 
L 218.123636 55.658582 
L 221.402975 55.153721 
L 224.682314 55.658582 
L 227.961653 55.153721 
L 231.240992 54.648861 
L 234.520331 55.153721 
L 237.799669 55.153721 
L 241.079008 55.658582 
L 244.358347 55.153721 
L 247.637686 55.153721 
L 250.917025 55.153721 
L 254.196364 55.153721 
L 257.475702 55.153721 
L 260.755041 56.163442 
L 264.03438 55.658582 
L 267.313719 55.658582 
L 270.593058 56.163442 
L 273.872397 55.658582 
L 277.151736 55.658582 
L 280.431074 55.658582 
L 283.710413 54.648861 
L 286.989752 54.648861 
L 290.269091 55.153721 
L 293.54843 55.153721 
L 296.827769 55.153721 
L 300.107107 55.153721 
L 303.386446 55.153721 
L 306.665785 55.153721 
L 309.945124 55.153721 
L 313.224463 56.163442 
L 316.503802 55.153721 
L 319.78314 55.153721 
L 323.062479 55.658582 
L 326.341818 55.153721 
L 329.621157 55.153721 
L 332.900496 55.153721 
L 336.179835 54.648861 
L 339.459174 54.648861 
L 342.738512 54.648861 
L 346.017851 55.153721 
L 349.29719 54.648861 
L 352.576529 55.153721 
L 355.855868 60.202327 
L 359.135207 83.425912 
L 362.414545 119.775873 
L 365.693884 116.241849 
L 368.973223 124.319618 
L 372.252562 105.639777 
L 375.531901 123.309896 
L 378.81124 109.173801 
L 382.090579 103.620335 
L 385.369917 105.134916 
L 388.649256 114.727267 
L 391.928595 109.678661 
L 395.207934 122.300175 
L 398.487273 111.193243 
L 398.487273 80.396749 
L 398.487273 80.396749 
L 395.207934 81.40647 
L 391.928595 81.911331 
L 388.649256 76.862725 
L 385.369917 73.328701 
L 382.090579 76.357865 
L 378.81124 76.357865 
L 375.531901 78.882167 
L 372.252562 78.882167 
L 368.973223 79.387028 
L 365.693884 83.930773 
L 362.414545 82.416191 
L 359.135207 57.678024 
L 355.855868 54.648861 
L 352.576529 55.153721 
L 349.29719 54.648861 
L 346.017851 55.153721 
L 342.738512 54.648861 
L 339.459174 54.648861 
L 336.179835 54.648861 
L 332.900496 55.153721 
L 329.621157 55.153721 
L 326.341818 55.153721 
L 323.062479 55.658582 
L 319.78314 55.153721 
L 316.503802 55.153721 
L 313.224463 56.163442 
L 309.945124 55.153721 
L 306.665785 55.153721 
L 303.386446 55.153721 
L 300.107107 55.153721 
L 296.827769 55.153721 
L 293.54843 55.153721 
L 290.269091 55.153721 
L 286.989752 54.648861 
L 283.710413 54.648861 
L 280.431074 55.658582 
L 277.151736 55.658582 
L 273.872397 55.658582 
L 270.593058 56.163442 
L 267.313719 55.658582 
L 264.03438 55.658582 
L 260.755041 56.163442 
L 257.475702 55.153721 
L 254.196364 55.153721 
L 250.917025 55.153721 
L 247.637686 55.153721 
L 244.358347 55.153721 
L 241.079008 55.658582 
L 237.799669 55.153721 
L 234.520331 55.153721 
L 231.240992 54.648861 
L 227.961653 55.153721 
L 224.682314 55.658582 
L 221.402975 55.153721 
L 218.123636 55.658582 
L 214.844298 55.658582 
L 211.564959 55.153721 
L 208.28562 55.658582 
L 205.006281 55.153721 
L 201.726942 54.648861 
L 198.447603 55.153721 
L 195.168264 55.658582 
L 191.888926 55.658582 
L 188.609587 55.658582 
L 185.330248 54.648861 
L 182.050909 55.153721 
L 178.77157 55.658582 
L 175.492231 55.153721 
L 172.212893 55.153721 
L 168.933554 55.658582 
L 165.654215 55.658582 
L 162.374876 55.153721 
L 159.095537 55.153721 
L 155.816198 55.153721 
L 152.53686 55.153721 
L 149.257521 55.153721 
L 145.978182 55.153721 
L 142.698843 54.648861 
L 139.419504 54.648861 
L 136.140165 55.153721 
L 132.860826 55.153721 
L 129.581488 55.658582 
L 126.302149 55.153721 
L 123.02281 55.153721 
L 119.743471 55.153721 
L 116.464132 55.153721 
L 113.184793 55.153721 
L 109.905455 55.153721 
L 106.626116 55.153721 
L 103.346777 55.153721 
L 100.067438 55.153721 
L 96.788099 55.153721 
L 93.50876 55.153721 
L 90.229421 55.153721 
L 86.950083 55.153721 
L 83.670744 55.153721 
L 80.391405 55.153721 
L 77.112066 55.153721 
L 73.832727 55.153721 
z
" style="fill:#9467bd;"/>
   </g>
   <g id="PolyCollection_16">
    <path clip-path="url(#p6ac3d3590a)" d="M 73.832727 55.153721 
L 73.832727 55.153721 
L 77.112066 55.153721 
L 80.391405 55.153721 
L 83.670744 55.153721 
L 86.950083 55.153721 
L 90.229421 55.153721 
L 93.50876 55.153721 
L 96.788099 55.153721 
L 100.067438 55.153721 
L 103.346777 55.153721 
L 106.626116 55.153721 
L 109.905455 55.153721 
L 113.184793 55.153721 
L 116.464132 55.153721 
L 119.743471 55.153721 
L 123.02281 55.153721 
L 126.302149 55.153721 
L 129.581488 55.658582 
L 132.860826 55.153721 
L 136.140165 55.153721 
L 139.419504 54.648861 
L 142.698843 54.648861 
L 145.978182 55.153721 
L 149.257521 55.153721 
L 152.53686 55.153721 
L 155.816198 55.153721 
L 159.095537 55.153721 
L 162.374876 55.153721 
L 165.654215 55.658582 
L 168.933554 55.658582 
L 172.212893 55.153721 
L 175.492231 55.153721 
L 178.77157 55.658582 
L 182.050909 55.153721 
L 185.330248 54.648861 
L 188.609587 55.658582 
L 191.888926 55.658582 
L 195.168264 55.658582 
L 198.447603 55.153721 
L 201.726942 54.648861 
L 205.006281 55.153721 
L 208.28562 55.658582 
L 211.564959 55.153721 
L 214.844298 55.658582 
L 218.123636 55.658582 
L 221.402975 55.153721 
L 224.682314 55.658582 
L 227.961653 55.153721 
L 231.240992 54.648861 
L 234.520331 55.153721 
L 237.799669 55.153721 
L 241.079008 55.658582 
L 244.358347 55.153721 
L 247.637686 55.153721 
L 250.917025 55.153721 
L 254.196364 55.153721 
L 257.475702 55.153721 
L 260.755041 56.163442 
L 264.03438 55.658582 
L 267.313719 55.658582 
L 270.593058 56.163442 
L 273.872397 55.658582 
L 277.151736 55.658582 
L 280.431074 55.658582 
L 283.710413 54.648861 
L 286.989752 54.648861 
L 290.269091 55.153721 
L 293.54843 55.153721 
L 296.827769 55.153721 
L 300.107107 55.153721 
L 303.386446 55.153721 
L 306.665785 55.153721 
L 309.945124 55.153721 
L 313.224463 56.163442 
L 316.503802 55.153721 
L 319.78314 55.153721 
L 323.062479 55.658582 
L 326.341818 55.153721 
L 329.621157 55.153721 
L 332.900496 55.153721 
L 336.179835 54.648861 
L 339.459174 54.648861 
L 342.738512 54.648861 
L 346.017851 55.153721 
L 349.29719 54.648861 
L 352.576529 55.153721 
L 355.855868 54.648861 
L 359.135207 57.678024 
L 362.414545 82.416191 
L 365.693884 83.930773 
L 368.973223 79.387028 
L 372.252562 78.882167 
L 375.531901 78.882167 
L 378.81124 76.357865 
L 382.090579 76.357865 
L 385.369917 73.328701 
L 388.649256 76.862725 
L 391.928595 81.911331 
L 395.207934 81.40647 
L 398.487273 80.396749 
L 398.487273 56.163442 
L 398.487273 56.163442 
L 395.207934 55.658582 
L 391.928595 56.163442 
L 388.649256 56.163442 
L 385.369917 55.658582 
L 382.090579 55.153721 
L 378.81124 55.658582 
L 375.531901 55.153721 
L 372.252562 54.144 
L 368.973223 54.144 
L 365.693884 55.153721 
L 362.414545 55.658582 
L 359.135207 54.144 
L 355.855868 54.648861 
L 352.576529 55.153721 
L 349.29719 54.648861 
L 346.017851 55.153721 
L 342.738512 54.648861 
L 339.459174 54.648861 
L 336.179835 54.648861 
L 332.900496 55.153721 
L 329.621157 55.153721 
L 326.341818 55.153721 
L 323.062479 55.658582 
L 319.78314 55.153721 
L 316.503802 55.153721 
L 313.224463 56.163442 
L 309.945124 55.153721 
L 306.665785 55.153721 
L 303.386446 55.153721 
L 300.107107 55.153721 
L 296.827769 55.153721 
L 293.54843 55.153721 
L 290.269091 55.153721 
L 286.989752 54.648861 
L 283.710413 54.648861 
L 280.431074 55.658582 
L 277.151736 55.658582 
L 273.872397 55.658582 
L 270.593058 56.163442 
L 267.313719 55.658582 
L 264.03438 55.658582 
L 260.755041 56.163442 
L 257.475702 55.153721 
L 254.196364 55.153721 
L 250.917025 55.153721 
L 247.637686 55.153721 
L 244.358347 55.153721 
L 241.079008 55.658582 
L 237.799669 55.153721 
L 234.520331 55.153721 
L 231.240992 54.648861 
L 227.961653 55.153721 
L 224.682314 55.658582 
L 221.402975 55.153721 
L 218.123636 55.658582 
L 214.844298 55.658582 
L 211.564959 55.153721 
L 208.28562 55.658582 
L 205.006281 55.153721 
L 201.726942 54.648861 
L 198.447603 55.153721 
L 195.168264 55.658582 
L 191.888926 55.658582 
L 188.609587 55.658582 
L 185.330248 54.648861 
L 182.050909 55.153721 
L 178.77157 55.658582 
L 175.492231 55.153721 
L 172.212893 55.153721 
L 168.933554 55.658582 
L 165.654215 55.658582 
L 162.374876 55.153721 
L 159.095537 55.153721 
L 155.816198 55.153721 
L 152.53686 55.153721 
L 149.257521 55.153721 
L 145.978182 55.153721 
L 142.698843 54.648861 
L 139.419504 54.648861 
L 136.140165 55.153721 
L 132.860826 55.153721 
L 129.581488 55.658582 
L 126.302149 55.153721 
L 123.02281 55.153721 
L 119.743471 55.153721 
L 116.464132 55.153721 
L 113.184793 55.153721 
L 109.905455 55.153721 
L 106.626116 55.153721 
L 103.346777 55.153721 
L 100.067438 55.153721 
L 96.788099 55.153721 
L 93.50876 55.153721 
L 90.229421 55.153721 
L 86.950083 55.153721 
L 83.670744 55.153721 
L 80.391405 55.153721 
L 77.112066 55.153721 
L 73.832727 55.153721 
z
" style="fill:#8c564b;"/>
   </g>
   <g id="matplotlib.axis_1">
    <g id="xtick_1">
     <g id="line2d_1">
      <defs>
       <path d="M 0 0 
L 0 3.5 
" id="m59322bdd86" style="stroke:#000000;stroke-width:0.8;"/>
      </defs>
      <g>
       <use style="stroke:#000000;stroke-width:0.8;" x="73.832727" xlink:href="#m59322bdd86" y="307.584"/>
      </g>
     </g>
     <g id="text_1">
      <!-- 0 -->
      <g transform="translate(70.651477 322.182437)scale(0.1 -0.1)">
       <defs>
        <path d="M 2034 4250 
Q 1547 4250 1301 3770 
Q 1056 3291 1056 2328 
Q 1056 1369 1301 889 
Q 1547 409 2034 409 
Q 2525 409 2770 889 
Q 3016 1369 3016 2328 
Q 3016 3291 2770 3770 
Q 2525 4250 2034 4250 
z
M 2034 4750 
Q 2819 4750 3233 4129 
Q 3647 3509 3647 2328 
Q 3647 1150 3233 529 
Q 2819 -91 2034 -91 
Q 1250 -91 836 529 
Q 422 1150 422 2328 
Q 422 3509 836 4129 
Q 1250 4750 2034 4750 
z
" id="DejaVuSans-30" transform="scale(0.015625)"/>
       </defs>
       <use xlink:href="#DejaVuSans-30"/>
      </g>
     </g>
    </g>
    <g id="xtick_2">
     <g id="line2d_2">
      <g>
       <use style="stroke:#000000;stroke-width:0.8;" x="139.419504" xlink:href="#m59322bdd86" y="307.584"/>
      </g>
     </g>
     <g id="text_2">
      <!-- 20 -->
      <g transform="translate(133.057004 322.182437)scale(0.1 -0.1)">
       <defs>
        <path d="M 1228 531 
L 3431 531 
L 3431 0 
L 469 0 
L 469 531 
Q 828 903 1448 1529 
Q 2069 2156 2228 2338 
Q 2531 2678 2651 2914 
Q 2772 3150 2772 3378 
Q 2772 3750 2511 3984 
Q 2250 4219 1831 4219 
Q 1534 4219 1204 4116 
Q 875 4013 500 3803 
L 500 4441 
Q 881 4594 1212 4672 
Q 1544 4750 1819 4750 
Q 2544 4750 2975 4387 
Q 3406 4025 3406 3419 
Q 3406 3131 3298 2873 
Q 3191 2616 2906 2266 
Q 2828 2175 2409 1742 
Q 1991 1309 1228 531 
z
" id="DejaVuSans-32" transform="scale(0.015625)"/>
       </defs>
       <use xlink:href="#DejaVuSans-32"/>
       <use x="63.623047" xlink:href="#DejaVuSans-30"/>
      </g>
     </g>
    </g>
    <g id="xtick_3">
     <g id="line2d_3">
      <g>
       <use style="stroke:#000000;stroke-width:0.8;" x="205.006281" xlink:href="#m59322bdd86" y="307.584"/>
      </g>
     </g>
     <g id="text_3">
      <!-- 40 -->
      <g transform="translate(198.643781 322.182437)scale(0.1 -0.1)">
       <defs>
        <path d="M 2419 4116 
L 825 1625 
L 2419 1625 
L 2419 4116 
z
M 2253 4666 
L 3047 4666 
L 3047 1625 
L 3713 1625 
L 3713 1100 
L 3047 1100 
L 3047 0 
L 2419 0 
L 2419 1100 
L 313 1100 
L 313 1709 
L 2253 4666 
z
" id="DejaVuSans-34" transform="scale(0.015625)"/>
       </defs>
       <use xlink:href="#DejaVuSans-34"/>
       <use x="63.623047" xlink:href="#DejaVuSans-30"/>
      </g>
     </g>
    </g>
    <g id="xtick_4">
     <g id="line2d_4">
      <g>
       <use style="stroke:#000000;stroke-width:0.8;" x="270.593058" xlink:href="#m59322bdd86" y="307.584"/>
      </g>
     </g>
     <g id="text_4">
      <!-- 60 -->
      <g transform="translate(264.230558 322.182437)scale(0.1 -0.1)">
       <defs>
        <path d="M 2113 2584 
Q 1688 2584 1439 2293 
Q 1191 2003 1191 1497 
Q 1191 994 1439 701 
Q 1688 409 2113 409 
Q 2538 409 2786 701 
Q 3034 994 3034 1497 
Q 3034 2003 2786 2293 
Q 2538 2584 2113 2584 
z
M 3366 4563 
L 3366 3988 
Q 3128 4100 2886 4159 
Q 2644 4219 2406 4219 
Q 1781 4219 1451 3797 
Q 1122 3375 1075 2522 
Q 1259 2794 1537 2939 
Q 1816 3084 2150 3084 
Q 2853 3084 3261 2657 
Q 3669 2231 3669 1497 
Q 3669 778 3244 343 
Q 2819 -91 2113 -91 
Q 1303 -91 875 529 
Q 447 1150 447 2328 
Q 447 3434 972 4092 
Q 1497 4750 2381 4750 
Q 2619 4750 2861 4703 
Q 3103 4656 3366 4563 
z
" id="DejaVuSans-36" transform="scale(0.015625)"/>
       </defs>
       <use xlink:href="#DejaVuSans-36"/>
       <use x="63.623047" xlink:href="#DejaVuSans-30"/>
      </g>
     </g>
    </g>
    <g id="xtick_5">
     <g id="line2d_5">
      <g>
       <use style="stroke:#000000;stroke-width:0.8;" x="336.179835" xlink:href="#m59322bdd86" y="307.584"/>
      </g>
     </g>
     <g id="text_5">
      <!-- 80 -->
      <g transform="translate(329.817335 322.182437)scale(0.1 -0.1)">
       <defs>
        <path d="M 2034 2216 
Q 1584 2216 1326 1975 
Q 1069 1734 1069 1313 
Q 1069 891 1326 650 
Q 1584 409 2034 409 
Q 2484 409 2743 651 
Q 3003 894 3003 1313 
Q 3003 1734 2745 1975 
Q 2488 2216 2034 2216 
z
M 1403 2484 
Q 997 2584 770 2862 
Q 544 3141 544 3541 
Q 544 4100 942 4425 
Q 1341 4750 2034 4750 
Q 2731 4750 3128 4425 
Q 3525 4100 3525 3541 
Q 3525 3141 3298 2862 
Q 3072 2584 2669 2484 
Q 3125 2378 3379 2068 
Q 3634 1759 3634 1313 
Q 3634 634 3220 271 
Q 2806 -91 2034 -91 
Q 1263 -91 848 271 
Q 434 634 434 1313 
Q 434 1759 690 2068 
Q 947 2378 1403 2484 
z
M 1172 3481 
Q 1172 3119 1398 2916 
Q 1625 2713 2034 2713 
Q 2441 2713 2670 2916 
Q 2900 3119 2900 3481 
Q 2900 3844 2670 4047 
Q 2441 4250 2034 4250 
Q 1625 4250 1398 4047 
Q 1172 3844 1172 3481 
z
" id="DejaVuSans-38" transform="scale(0.015625)"/>
       </defs>
       <use xlink:href="#DejaVuSans-38"/>
       <use x="63.623047" xlink:href="#DejaVuSans-30"/>
      </g>
     </g>
    </g>
    <g id="xtick_6">
     <g id="line2d_6">
      <g>
       <use style="stroke:#000000;stroke-width:0.8;" x="401.766612" xlink:href="#m59322bdd86" y="307.584"/>
      </g>
     </g>
     <g id="text_6">
      <!-- 100 -->
      <g transform="translate(392.222862 322.182437)scale(0.1 -0.1)">
       <defs>
        <path d="M 794 531 
L 1825 531 
L 1825 4091 
L 703 3866 
L 703 4441 
L 1819 4666 
L 2450 4666 
L 2450 531 
L 3481 531 
L 3481 0 
L 794 0 
L 794 531 
z
" id="DejaVuSans-31" transform="scale(0.015625)"/>
       </defs>
       <use xlink:href="#DejaVuSans-31"/>
       <use x="63.623047" xlink:href="#DejaVuSans-30"/>
       <use x="127.246094" xlink:href="#DejaVuSans-30"/>
      </g>
     </g>
    </g>
    <g id="text_7">
     <!-- Generations -->
     <g transform="translate(205.662344 335.860562)scale(0.1 -0.1)">
      <defs>
       <path d="M 3809 666 
L 3809 1919 
L 2778 1919 
L 2778 2438 
L 4434 2438 
L 4434 434 
Q 4069 175 3628 42 
Q 3188 -91 2688 -91 
Q 1594 -91 976 548 
Q 359 1188 359 2328 
Q 359 3472 976 4111 
Q 1594 4750 2688 4750 
Q 3144 4750 3555 4637 
Q 3966 4525 4313 4306 
L 4313 3634 
Q 3963 3931 3569 4081 
Q 3175 4231 2741 4231 
Q 1884 4231 1454 3753 
Q 1025 3275 1025 2328 
Q 1025 1384 1454 906 
Q 1884 428 2741 428 
Q 3075 428 3337 486 
Q 3600 544 3809 666 
z
" id="DejaVuSans-47" transform="scale(0.015625)"/>
       <path d="M 3597 1894 
L 3597 1613 
L 953 1613 
Q 991 1019 1311 708 
Q 1631 397 2203 397 
Q 2534 397 2845 478 
Q 3156 559 3463 722 
L 3463 178 
Q 3153 47 2828 -22 
Q 2503 -91 2169 -91 
Q 1331 -91 842 396 
Q 353 884 353 1716 
Q 353 2575 817 3079 
Q 1281 3584 2069 3584 
Q 2775 3584 3186 3129 
Q 3597 2675 3597 1894 
z
M 3022 2063 
Q 3016 2534 2758 2815 
Q 2500 3097 2075 3097 
Q 1594 3097 1305 2825 
Q 1016 2553 972 2059 
L 3022 2063 
z
" id="DejaVuSans-65" transform="scale(0.015625)"/>
       <path d="M 3513 2113 
L 3513 0 
L 2938 0 
L 2938 2094 
Q 2938 2591 2744 2837 
Q 2550 3084 2163 3084 
Q 1697 3084 1428 2787 
Q 1159 2491 1159 1978 
L 1159 0 
L 581 0 
L 581 3500 
L 1159 3500 
L 1159 2956 
Q 1366 3272 1645 3428 
Q 1925 3584 2291 3584 
Q 2894 3584 3203 3211 
Q 3513 2838 3513 2113 
z
" id="DejaVuSans-6e" transform="scale(0.015625)"/>
       <path d="M 2631 2963 
Q 2534 3019 2420 3045 
Q 2306 3072 2169 3072 
Q 1681 3072 1420 2755 
Q 1159 2438 1159 1844 
L 1159 0 
L 581 0 
L 581 3500 
L 1159 3500 
L 1159 2956 
Q 1341 3275 1631 3429 
Q 1922 3584 2338 3584 
Q 2397 3584 2469 3576 
Q 2541 3569 2628 3553 
L 2631 2963 
z
" id="DejaVuSans-72" transform="scale(0.015625)"/>
       <path d="M 2194 1759 
Q 1497 1759 1228 1600 
Q 959 1441 959 1056 
Q 959 750 1161 570 
Q 1363 391 1709 391 
Q 2188 391 2477 730 
Q 2766 1069 2766 1631 
L 2766 1759 
L 2194 1759 
z
M 3341 1997 
L 3341 0 
L 2766 0 
L 2766 531 
Q 2569 213 2275 61 
Q 1981 -91 1556 -91 
Q 1019 -91 701 211 
Q 384 513 384 1019 
Q 384 1609 779 1909 
Q 1175 2209 1959 2209 
L 2766 2209 
L 2766 2266 
Q 2766 2663 2505 2880 
Q 2244 3097 1772 3097 
Q 1472 3097 1187 3025 
Q 903 2953 641 2809 
L 641 3341 
Q 956 3463 1253 3523 
Q 1550 3584 1831 3584 
Q 2591 3584 2966 3190 
Q 3341 2797 3341 1997 
z
" id="DejaVuSans-61" transform="scale(0.015625)"/>
       <path d="M 1172 4494 
L 1172 3500 
L 2356 3500 
L 2356 3053 
L 1172 3053 
L 1172 1153 
Q 1172 725 1289 603 
Q 1406 481 1766 481 
L 2356 481 
L 2356 0 
L 1766 0 
Q 1100 0 847 248 
Q 594 497 594 1153 
L 594 3053 
L 172 3053 
L 172 3500 
L 594 3500 
L 594 4494 
L 1172 4494 
z
" id="DejaVuSans-74" transform="scale(0.015625)"/>
       <path d="M 603 3500 
L 1178 3500 
L 1178 0 
L 603 0 
L 603 3500 
z
M 603 4863 
L 1178 4863 
L 1178 4134 
L 603 4134 
L 603 4863 
z
" id="DejaVuSans-69" transform="scale(0.015625)"/>
       <path d="M 1959 3097 
Q 1497 3097 1228 2736 
Q 959 2375 959 1747 
Q 959 1119 1226 758 
Q 1494 397 1959 397 
Q 2419 397 2687 759 
Q 2956 1122 2956 1747 
Q 2956 2369 2687 2733 
Q 2419 3097 1959 3097 
z
M 1959 3584 
Q 2709 3584 3137 3096 
Q 3566 2609 3566 1747 
Q 3566 888 3137 398 
Q 2709 -91 1959 -91 
Q 1206 -91 779 398 
Q 353 888 353 1747 
Q 353 2609 779 3096 
Q 1206 3584 1959 3584 
z
" id="DejaVuSans-6f" transform="scale(0.015625)"/>
       <path d="M 2834 3397 
L 2834 2853 
Q 2591 2978 2328 3040 
Q 2066 3103 1784 3103 
Q 1356 3103 1142 2972 
Q 928 2841 928 2578 
Q 928 2378 1081 2264 
Q 1234 2150 1697 2047 
L 1894 2003 
Q 2506 1872 2764 1633 
Q 3022 1394 3022 966 
Q 3022 478 2636 193 
Q 2250 -91 1575 -91 
Q 1294 -91 989 -36 
Q 684 19 347 128 
L 347 722 
Q 666 556 975 473 
Q 1284 391 1588 391 
Q 1994 391 2212 530 
Q 2431 669 2431 922 
Q 2431 1156 2273 1281 
Q 2116 1406 1581 1522 
L 1381 1569 
Q 847 1681 609 1914 
Q 372 2147 372 2553 
Q 372 3047 722 3315 
Q 1072 3584 1716 3584 
Q 2034 3584 2315 3537 
Q 2597 3491 2834 3397 
z
" id="DejaVuSans-73" transform="scale(0.015625)"/>
      </defs>
      <use xlink:href="#DejaVuSans-47"/>
      <use x="77.490234" xlink:href="#DejaVuSans-65"/>
      <use x="139.013672" xlink:href="#DejaVuSans-6e"/>
      <use x="202.392578" xlink:href="#DejaVuSans-65"/>
      <use x="263.916016" xlink:href="#DejaVuSans-72"/>
      <use x="305.029297" xlink:href="#DejaVuSans-61"/>
      <use x="366.308594" xlink:href="#DejaVuSans-74"/>
      <use x="405.517578" xlink:href="#DejaVuSans-69"/>
      <use x="433.300781" xlink:href="#DejaVuSans-6f"/>
      <use x="494.482422" xlink:href="#DejaVuSans-6e"/>
      <use x="557.861328" xlink:href="#DejaVuSans-73"/>
     </g>
    </g>
   </g>
   <g id="matplotlib.axis_2">
    <g id="ytick_1">
     <g id="line2d_7">
      <defs>
       <path d="M 0 0 
L -3.5 0 
" id="maff57ef83c" style="stroke:#000000;stroke-width:0.8;"/>
      </defs>
      <g>
       <use style="stroke:#000000;stroke-width:0.8;" x="57.6" xlink:href="#maff57ef83c" y="307.584"/>
      </g>
     </g>
     <g id="text_8">
      <!-- 0 -->
      <g transform="translate(44.2375 311.383219)scale(0.1 -0.1)">
       <use xlink:href="#DejaVuSans-30"/>
      </g>
     </g>
    </g>
    <g id="ytick_2">
     <g id="line2d_8">
      <g>
       <use style="stroke:#000000;stroke-width:0.8;" x="57.6" xlink:href="#maff57ef83c" y="257.097944"/>
      </g>
     </g>
     <g id="text_9">
      <!-- 100 -->
      <g transform="translate(31.5125 260.897163)scale(0.1 -0.1)">
       <use xlink:href="#DejaVuSans-31"/>
       <use x="63.623047" xlink:href="#DejaVuSans-30"/>
       <use x="127.246094" xlink:href="#DejaVuSans-30"/>
      </g>
     </g>
    </g>
    <g id="ytick_3">
     <g id="line2d_9">
      <g>
       <use style="stroke:#000000;stroke-width:0.8;" x="57.6" xlink:href="#maff57ef83c" y="206.611888"/>
      </g>
     </g>
     <g id="text_10">
      <!-- 200 -->
      <g transform="translate(31.5125 210.411107)scale(0.1 -0.1)">
       <use xlink:href="#DejaVuSans-32"/>
       <use x="63.623047" xlink:href="#DejaVuSans-30"/>
       <use x="127.246094" xlink:href="#DejaVuSans-30"/>
      </g>
     </g>
    </g>
    <g id="ytick_4">
     <g id="line2d_10">
      <g>
       <use style="stroke:#000000;stroke-width:0.8;" x="57.6" xlink:href="#maff57ef83c" y="156.125833"/>
      </g>
     </g>
     <g id="text_11">
      <!-- 300 -->
      <g transform="translate(31.5125 159.925051)scale(0.1 -0.1)">
       <defs>
        <path d="M 2597 2516 
Q 3050 2419 3304 2112 
Q 3559 1806 3559 1356 
Q 3559 666 3084 287 
Q 2609 -91 1734 -91 
Q 1441 -91 1130 -33 
Q 819 25 488 141 
L 488 750 
Q 750 597 1062 519 
Q 1375 441 1716 441 
Q 2309 441 2620 675 
Q 2931 909 2931 1356 
Q 2931 1769 2642 2001 
Q 2353 2234 1838 2234 
L 1294 2234 
L 1294 2753 
L 1863 2753 
Q 2328 2753 2575 2939 
Q 2822 3125 2822 3475 
Q 2822 3834 2567 4026 
Q 2313 4219 1838 4219 
Q 1578 4219 1281 4162 
Q 984 4106 628 3988 
L 628 4550 
Q 988 4650 1302 4700 
Q 1616 4750 1894 4750 
Q 2613 4750 3031 4423 
Q 3450 4097 3450 3541 
Q 3450 3153 3228 2886 
Q 3006 2619 2597 2516 
z
" id="DejaVuSans-33" transform="scale(0.015625)"/>
       </defs>
       <use xlink:href="#DejaVuSans-33"/>
       <use x="63.623047" xlink:href="#DejaVuSans-30"/>
       <use x="127.246094" xlink:href="#DejaVuSans-30"/>
      </g>
     </g>
    </g>
    <g id="ytick_5">
     <g id="line2d_11">
      <g>
       <use style="stroke:#000000;stroke-width:0.8;" x="57.6" xlink:href="#maff57ef83c" y="105.639777"/>
      </g>
     </g>
     <g id="text_12">
      <!-- 400 -->
      <g transform="translate(31.5125 109.438996)scale(0.1 -0.1)">
       <use xlink:href="#DejaVuSans-34"/>
       <use x="63.623047" xlink:href="#DejaVuSans-30"/>
       <use x="127.246094" xlink:href="#DejaVuSans-30"/>
      </g>
     </g>
    </g>
    <g id="ytick_6">
     <g id="line2d_12">
      <g>
       <use style="stroke:#000000;stroke-width:0.8;" x="57.6" xlink:href="#maff57ef83c" y="55.153721"/>
      </g>
     </g>
     <g id="text_13">
      <!-- 500 -->
      <g transform="translate(31.5125 58.95294)scale(0.1 -0.1)">
       <defs>
        <path d="M 691 4666 
L 3169 4666 
L 3169 4134 
L 1269 4134 
L 1269 2991 
Q 1406 3038 1543 3061 
Q 1681 3084 1819 3084 
Q 2600 3084 3056 2656 
Q 3513 2228 3513 1497 
Q 3513 744 3044 326 
Q 2575 -91 1722 -91 
Q 1428 -91 1123 -41 
Q 819 9 494 109 
L 494 744 
Q 775 591 1075 516 
Q 1375 441 1709 441 
Q 2250 441 2565 725 
Q 2881 1009 2881 1497 
Q 2881 1984 2565 2268 
Q 2250 2553 1709 2553 
Q 1456 2553 1204 2497 
Q 953 2441 691 2322 
L 691 4666 
z
" id="DejaVuSans-35" transform="scale(0.015625)"/>
       </defs>
       <use xlink:href="#DejaVuSans-35"/>
       <use x="63.623047" xlink:href="#DejaVuSans-30"/>
       <use x="127.246094" xlink:href="#DejaVuSans-30"/>
      </g>
     </g>
    </g>
    <g id="text_14">
     <!-- Size per Species -->
     <g transform="translate(25.432812 215.520969)rotate(-90)scale(0.1 -0.1)">
      <defs>
       <path d="M 3425 4513 
L 3425 3897 
Q 3066 4069 2747 4153 
Q 2428 4238 2131 4238 
Q 1616 4238 1336 4038 
Q 1056 3838 1056 3469 
Q 1056 3159 1242 3001 
Q 1428 2844 1947 2747 
L 2328 2669 
Q 3034 2534 3370 2195 
Q 3706 1856 3706 1288 
Q 3706 609 3251 259 
Q 2797 -91 1919 -91 
Q 1588 -91 1214 -16 
Q 841 59 441 206 
L 441 856 
Q 825 641 1194 531 
Q 1563 422 1919 422 
Q 2459 422 2753 634 
Q 3047 847 3047 1241 
Q 3047 1584 2836 1778 
Q 2625 1972 2144 2069 
L 1759 2144 
Q 1053 2284 737 2584 
Q 422 2884 422 3419 
Q 422 4038 858 4394 
Q 1294 4750 2059 4750 
Q 2388 4750 2728 4690 
Q 3069 4631 3425 4513 
z
" id="DejaVuSans-53" transform="scale(0.015625)"/>
       <path d="M 353 3500 
L 3084 3500 
L 3084 2975 
L 922 459 
L 3084 459 
L 3084 0 
L 275 0 
L 275 525 
L 2438 3041 
L 353 3041 
L 353 3500 
z
" id="DejaVuSans-7a" transform="scale(0.015625)"/>
       <path id="DejaVuSans-20" transform="scale(0.015625)"/>
       <path d="M 1159 525 
L 1159 -1331 
L 581 -1331 
L 581 3500 
L 1159 3500 
L 1159 2969 
Q 1341 3281 1617 3432 
Q 1894 3584 2278 3584 
Q 2916 3584 3314 3078 
Q 3713 2572 3713 1747 
Q 3713 922 3314 415 
Q 2916 -91 2278 -91 
Q 1894 -91 1617 61 
Q 1341 213 1159 525 
z
M 3116 1747 
Q 3116 2381 2855 2742 
Q 2594 3103 2138 3103 
Q 1681 3103 1420 2742 
Q 1159 2381 1159 1747 
Q 1159 1113 1420 752 
Q 1681 391 2138 391 
Q 2594 391 2855 752 
Q 3116 1113 3116 1747 
z
" id="DejaVuSans-70" transform="scale(0.015625)"/>
       <path d="M 3122 3366 
L 3122 2828 
Q 2878 2963 2633 3030 
Q 2388 3097 2138 3097 
Q 1578 3097 1268 2742 
Q 959 2388 959 1747 
Q 959 1106 1268 751 
Q 1578 397 2138 397 
Q 2388 397 2633 464 
Q 2878 531 3122 666 
L 3122 134 
Q 2881 22 2623 -34 
Q 2366 -91 2075 -91 
Q 1284 -91 818 406 
Q 353 903 353 1747 
Q 353 2603 823 3093 
Q 1294 3584 2113 3584 
Q 2378 3584 2631 3529 
Q 2884 3475 3122 3366 
z
" id="DejaVuSans-63" transform="scale(0.015625)"/>
      </defs>
      <use xlink:href="#DejaVuSans-53"/>
      <use x="63.476562" xlink:href="#DejaVuSans-69"/>
      <use x="91.259766" xlink:href="#DejaVuSans-7a"/>
      <use x="143.75" xlink:href="#DejaVuSans-65"/>
      <use x="205.273438" xlink:href="#DejaVuSans-20"/>
      <use x="237.060547" xlink:href="#DejaVuSans-70"/>
      <use x="300.537109" xlink:href="#DejaVuSans-65"/>
      <use x="362.060547" xlink:href="#DejaVuSans-72"/>
      <use x="403.173828" xlink:href="#DejaVuSans-20"/>
      <use x="434.960938" xlink:href="#DejaVuSans-53"/>
      <use x="498.4375" xlink:href="#DejaVuSans-70"/>
      <use x="561.914062" xlink:href="#DejaVuSans-65"/>
      <use x="623.4375" xlink:href="#DejaVuSans-63"/>
      <use x="678.417969" xlink:href="#DejaVuSans-69"/>
      <use x="706.201172" xlink:href="#DejaVuSans-65"/>
      <use x="767.724609" xlink:href="#DejaVuSans-73"/>
     </g>
    </g>
   </g>
   <g id="patch_3">
    <path d="M 57.6 307.584 
L 57.6 41.472 
" style="fill:none;stroke:#000000;stroke-linecap:square;stroke-linejoin:miter;stroke-width:0.8;"/>
   </g>
   <g id="patch_4">
    <path d="M 414.72 307.584 
L 414.72 41.472 
" style="fill:none;stroke:#000000;stroke-linecap:square;stroke-linejoin:miter;stroke-width:0.8;"/>
   </g>
   <g id="patch_5">
    <path d="M 57.6 307.584 
L 414.72 307.584 
" style="fill:none;stroke:#000000;stroke-linecap:square;stroke-linejoin:miter;stroke-width:0.8;"/>
   </g>
   <g id="patch_6">
    <path d="M 57.6 41.472 
L 414.72 41.472 
" style="fill:none;stroke:#000000;stroke-linecap:square;stroke-linejoin:miter;stroke-width:0.8;"/>
   </g>
   <g id="text_15">
    <!-- Speciation -->
    <g transform="translate(204.714375 35.472)scale(0.12 -0.12)">
     <use xlink:href="#DejaVuSans-53"/>
     <use x="63.476562" xlink:href="#DejaVuSans-70"/>
     <use x="126.953125" xlink:href="#DejaVuSans-65"/>
     <use x="188.476562" xlink:href="#DejaVuSans-63"/>
     <use x="243.457031" xlink:href="#DejaVuSans-69"/>
     <use x="271.240234" xlink:href="#DejaVuSans-61"/>
     <use x="332.519531" xlink:href="#DejaVuSans-74"/>
     <use x="371.728516" xlink:href="#DejaVuSans-69"/>
     <use x="399.511719" xlink:href="#DejaVuSans-6f"/>
     <use x="460.693359" xlink:href="#DejaVuSans-6e"/>
    </g>
   </g>
  </g>
 </g>
 <defs>
  <clipPath id="p6ac3d3590a">
   <rect height="266.112" width="357.12" x="57.6" y="41.472"/>
  </clipPath>
 </defs>
</svg>
