<?xml version="1.0" encoding="UTF-8" standalone="no"?>
<!DOCTYPE svg PUBLIC "-//W3C//DTD SVG 1.1//EN"
 "http://www.w3.org/Graphics/SVG/1.1/DTD/svg11.dtd">
<!-- Generated by graphviz version 8.0.3 (20230416.2022)
 -->
<!-- Pages: 1 -->
<svg width="637pt" height="183pt"
 viewBox="0.00 0.00 636.70 182.85" xmlns="http://www.w3.org/2000/svg" xmlns:xlink="http://www.w3.org/1999/xlink">
<g id="graph0" class="graph" transform="scale(1 1) rotate(0) translate(4 178.85)">
<polygon fill="white" stroke="none" points="-4,4 -4,-178.85 632.7,-178.85 632.7,4 -4,4"/>
<!-- X -->
<g id="node1" class="node">
<title>X</title>
<polygon fill="lightgray" stroke="black" points="383.71,-108.64 360.71,-108.64 360.71,-90.64 383.71,-90.64 383.71,-108.64"/>
<text text-anchor="middle" x="372.21" y="-97.44" font-family="Times New Roman,serif" font-size="9.00">X</text>
</g>
<!-- M1 -->
<g id="node9" class="node">
<title>M1</title>
<ellipse fill="lightblue" stroke="black" cx="253.21" cy="-21.21" rx="21.43" ry="21.43"/>
<text text-anchor="middle" x="253.21" y="-19.01" font-family="Times New Roman,serif" font-size="9.00">M1</text>
</g>
<!-- X&#45;&gt;M1 -->
<g id="edge1" class="edge">
<title>X&#45;&gt;M1</title>
<path fill="none" stroke="red" stroke-width="0.42" d="M364.45,-90.28C360.66,-86.43 355.91,-81.95 351.21,-78.43 329.03,-61.79 301.47,-46.39 281.23,-35.93"/>
<polygon fill="red" stroke="red" stroke-width="0.42" points="282.99,-32.9 272.49,-31.48 279.82,-39.14 282.99,-32.9"/>
</g>
<!-- M2 -->
<g id="node10" class="node">
<title>M2</title>
<ellipse fill="lightblue" stroke="black" cx="129.21" cy="-21.21" rx="21.43" ry="21.43"/>
<text text-anchor="middle" x="129.21" y="-19.01" font-family="Times New Roman,serif" font-size="9.00">M2</text>
</g>
<!-- X&#45;&gt;M2 -->
<g id="edge2" class="edge">
<title>X&#45;&gt;M2</title>
<path fill="none" stroke="red" stroke-width="0.38" d="M365.6,-90.49C361.8,-86.31 356.7,-81.47 351.21,-78.43 334.41,-69.09 216.31,-41.78 159.54,-28.98"/>
<polygon fill="red" stroke="red" stroke-width="0.38" points="160.54,-25.62 150.01,-26.84 159,-32.45 160.54,-25.62"/>
</g>
<!-- M3 -->
<g id="node11" class="node">
<title>M3</title>
<ellipse fill="lightblue" stroke="black" cx="392.21" cy="-21.21" rx="21.43" ry="21.43"/>
<text text-anchor="middle" x="392.21" y="-19.01" font-family="Times New Roman,serif" font-size="9.00">M3</text>
</g>
<!-- X&#45;&gt;M3 -->
<g id="edge3" class="edge">
<title>X&#45;&gt;M3</title>
<path fill="none" stroke="green" stroke-width="0.43" d="M374.43,-90.17C376.84,-80.97 380.82,-65.77 384.4,-52.07"/>
<polygon fill="green" stroke="green" stroke-width="0.43" points="387.77,-53.03 386.91,-42.47 381,-51.25 387.77,-53.03"/>
</g>
<!-- Y -->
<g id="node2" class="node">
<title>Y</title>
<polygon fill="lightgray" stroke="black" points="160.71,-108.64 137.71,-108.64 137.71,-90.64 160.71,-90.64 160.71,-108.64"/>
<text text-anchor="middle" x="149.21" y="-97.44" font-family="Times New Roman,serif" font-size="9.00">Y</text>
</g>
<!-- Y&#45;&gt;M1 -->
<g id="edge4" class="edge">
<title>Y&#45;&gt;M1</title>
<path fill="none" stroke="green" stroke-width="0.2" d="M157.09,-90.43C160.91,-86.62 165.65,-82.12 170.21,-78.43 188.29,-63.78 210.13,-49.1 226.86,-38.42"/>
<polygon fill="green" stroke="green" stroke-width="0.2" points="228.51,-41.51 235.1,-33.22 224.78,-35.59 228.51,-41.51"/>
</g>
<!-- Y&#45;&gt;M2 -->
<g id="edge5" class="edge">
<title>Y&#45;&gt;M2</title>
<path fill="none" stroke="red" stroke-width="0.68" d="M147,-90.17C144.64,-81.15 140.76,-66.36 137.24,-52.87"/>
<polygon fill="red" stroke="red" stroke-width="0.68" points="140.43,-51.25 134.51,-42.47 133.66,-53.03 140.43,-51.25"/>
</g>
<!-- Y&#45;&gt;M3 -->
<g id="edge6" class="edge">
<title>Y&#45;&gt;M3</title>
<path fill="none" stroke="green" stroke-width="0.19" d="M155.83,-90.49C159.63,-86.31 164.73,-81.47 170.21,-78.43 203.11,-60.15 308.74,-38.17 361.55,-27.95"/>
<polygon fill="green" stroke="green" stroke-width="0.19" points="361.91,-31.45 371.07,-26.13 360.59,-24.57 361.91,-31.45"/>
</g>
<!-- Δθ -->
<g id="node3" class="node">
<title>Δθ</title>
<polygon fill="lightgray" stroke="black" points="551.71,-108.64 524.71,-108.64 524.71,-90.64 551.71,-90.64 551.71,-108.64"/>
<text text-anchor="middle" x="538.21" y="-97.44" font-family="Times New Roman,serif" font-size="9.00">Δθ</text>
</g>
<!-- Δθ&#45;&gt;M3 -->
<g id="edge7" class="edge">
<title>Δθ&#45;&gt;M3</title>
<path fill="none" stroke="red" stroke-width="0.5" d="M527.62,-90.3C522.51,-86.45 516.2,-81.97 510.21,-78.43 480.91,-61.07 445.41,-44.74 421.05,-34.2"/>
<polygon fill="red" stroke="red" stroke-width="0.5" points="422.55,-31.04 411.98,-30.32 419.8,-37.47 422.55,-31.04"/>
</g>
<!-- M4 -->
<g id="node12" class="node">
<title>M4</title>
<ellipse fill="lightblue" stroke="black" cx="564.21" cy="-21.21" rx="21.43" ry="21.43"/>
<text text-anchor="middle" x="564.21" y="-19.01" font-family="Times New Roman,serif" font-size="9.00">M4</text>
</g>
<!-- Δθ&#45;&gt;M4 -->
<g id="edge8" class="edge">
<title>Δθ&#45;&gt;M4</title>
<path fill="none" stroke="green" stroke-width="0.55" d="M541.09,-90.17C544.3,-80.76 549.64,-65.05 554.38,-51.11"/>
<polygon fill="green" stroke="green" stroke-width="0.55" points="557.63,-52.43 557.54,-41.83 551,-50.17 557.63,-52.43"/>
</g>
<!-- θ -->
<g id="node4" class="node">
<title>θ</title>
<polygon fill="lightgray" stroke="black" points="119.71,-108.64 98.71,-108.64 98.71,-90.64 119.71,-90.64 119.71,-108.64"/>
<text text-anchor="middle" x="109.21" y="-97.44" font-family="Times New Roman,serif" font-size="9.00">θ</text>
</g>
<!-- θ&#45;&gt;M1 -->
<g id="edge9" class="edge">
<title>θ&#45;&gt;M1</title>
<path fill="none" stroke="red" stroke-width="0.62" d="M116.03,-90.45C119.65,-86.46 124.35,-81.81 129.21,-78.43 158.8,-57.83 197.14,-41.82 223.31,-32.25"/>
<polygon fill="red" stroke="red" stroke-width="0.62" points="224.46,-35.55 232.7,-28.9 222.11,-28.96 224.46,-35.55"/>
</g>
<!-- θ&#45;&gt;M2 -->
<g id="edge10" class="edge">
<title>θ&#45;&gt;M2</title>
<path fill="none" stroke="red" stroke-width="0.29" d="M111.43,-90.17C113.84,-80.97 117.82,-65.77 121.4,-52.07"/>
<polygon fill="red" stroke="red" stroke-width="0.29" points="124.77,-53.03 123.91,-42.47 118,-51.25 124.77,-53.03"/>
</g>
<!-- V1 -->
<g id="node5" class="node">
<title>V1</title>
<polygon fill="lightgray" stroke="black" points="205.71,-108.64 178.71,-108.64 178.71,-90.64 205.71,-90.64 205.71,-108.64"/>
<text text-anchor="middle" x="192.21" y="-97.44" font-family="Times New Roman,serif" font-size="9.00">V1</text>
</g>
<!-- V1&#45;&gt;M1 -->
<g id="edge11" class="edge">
<title>V1&#45;&gt;M1</title>
<path fill="none" stroke="green" stroke-width="0.1" d="M198.97,-90.17C207.43,-79.58 222.25,-61.01 234.26,-45.96"/>
<polygon fill="green" stroke="green" stroke-width="0.1" points="236.74,-48.47 240.24,-38.47 231.27,-44.1 236.74,-48.47"/>
</g>
<!-- V1&#45;&gt;M2 -->
<g id="edge12" class="edge">
<title>V1&#45;&gt;M2</title>
<path fill="none" stroke="red" stroke-width="0.32" d="M185.23,-90.17C176.5,-79.58 161.2,-61.01 148.79,-45.96"/>
<polygon fill="red" stroke="red" stroke-width="0.32" points="151.67,-43.96 142.61,-38.47 146.27,-48.41 151.67,-43.96"/>
</g>
<!-- V1&#45;&gt;M3 -->
<g id="edge13" class="edge">
<title>V1&#45;&gt;M3</title>
<path fill="none" stroke="green" stroke-width="0.32" d="M205.96,-93.39C238.2,-81.06 319.28,-50.08 363.07,-33.35"/>
<polygon fill="green" stroke="green" stroke-width="0.32" points="364.23,-36.65 372.33,-29.81 361.74,-30.11 364.23,-36.65"/>
</g>
<!-- V2 -->
<g id="node6" class="node">
<title>V2</title>
<polygon fill="lightgray" stroke="black" points="247.71,-174.85 220.71,-174.85 220.71,-156.85 247.71,-156.85 247.71,-174.85"/>
<text text-anchor="middle" x="234.21" y="-163.65" font-family="Times New Roman,serif" font-size="9.00">V2</text>
</g>
<!-- V2&#45;&gt;M1 -->
<g id="edge14" class="edge">
<title>V2&#45;&gt;M1</title>
<path fill="none" stroke="green" stroke-width="0.26" d="M235.34,-156.36C238.01,-136.36 244.78,-85.5 249.18,-52.46"/>
<polygon fill="green" stroke="green" stroke-width="0.26" points="252.61,-53.21 250.47,-42.84 245.68,-52.29 252.61,-53.21"/>
</g>
<!-- V2&#45;&gt;M3 -->
<g id="edge15" class="edge">
<title>V2&#45;&gt;M3</title>
<path fill="none" stroke="green" stroke-width="0.6" d="M248,-163.16C283.28,-158.51 375.35,-144.33 393.21,-120.85 408.07,-101.32 405.98,-72.75 401.26,-51.37"/>
<polygon fill="green" stroke="green" stroke-width="0.6" points="404.7,-50.68 398.88,-41.83 397.91,-52.38 404.7,-50.68"/>
</g>
<!-- 468 -->
<g id="node14" class="node">
<title>468</title>
<ellipse fill="white" stroke="black" cx="21.21" cy="-99.64" rx="21.43" ry="21.43"/>
<text text-anchor="middle" x="21.21" y="-97.44" font-family="Times New Roman,serif" font-size="9.00">468</text>
</g>
<!-- V2&#45;&gt;468 -->
<g id="edge22" class="edge">
<title>V2&#45;&gt;468</title>
<path fill="none" stroke="red" stroke-width="0.18" d="M220.41,-162.8C189.94,-157.98 114.97,-144.53 56.21,-120.85 53.38,-119.71 50.49,-118.37 47.65,-116.93"/>
<polygon fill="red" stroke="red" stroke-width="0.18" points="49.34,-113.87 38.89,-112.14 45.98,-120.01 49.34,-113.87"/>
</g>
<!-- V3 -->
<g id="node7" class="node">
<title>V3</title>
<polygon fill="lightgray" stroke="black" points="467.71,-108.64 440.71,-108.64 440.71,-90.64 467.71,-90.64 467.71,-108.64"/>
<text text-anchor="middle" x="454.21" y="-97.44" font-family="Times New Roman,serif" font-size="9.00">V3</text>
</g>
<!-- V3&#45;&gt;M1 -->
<g id="edge16" class="edge">
<title>V3&#45;&gt;M1</title>
<path fill="none" stroke="green" stroke-width="0.63" d="M440.4,-93.39C407.99,-81.06 326.51,-50.08 282.5,-33.35"/>
<polygon fill="green" stroke="green" stroke-width="0.63" points="283.79,-30.1 273.2,-29.81 281.3,-36.64 283.79,-30.1"/>
</g>
<!-- V3&#45;&gt;M4 -->
<g id="edge17" class="edge">
<title>V3&#45;&gt;M4</title>
<path fill="none" stroke="red" stroke-width="0.16" d="M466.41,-90.17C483.77,-78.11 516.02,-55.7 538.73,-39.92"/>
<polygon fill="red" stroke="red" stroke-width="0.16" points="540.7,-42.81 546.91,-34.23 536.7,-37.06 540.7,-42.81"/>
</g>
<!-- V4 -->
<g id="node8" class="node">
<title>V4</title>
<polygon fill="lightgray" stroke="black" points="421.71,-174.85 394.71,-174.85 394.71,-156.85 421.71,-156.85 421.71,-174.85"/>
<text text-anchor="middle" x="408.21" y="-163.65" font-family="Times New Roman,serif" font-size="9.00">V4</text>
</g>
<!-- V4&#45;&gt;M1 -->
<g id="edge18" class="edge">
<title>V4&#45;&gt;M1</title>
<path fill="none" stroke="red" stroke-width="0.33" d="M394.35,-163.32C370.23,-159.96 320.33,-149.74 291.21,-120.85 272.66,-102.44 262.98,-73.98 258.06,-52.35"/>
<polygon fill="red" stroke="red" stroke-width="0.33" points="261.5,-51.75 256.06,-42.66 254.65,-53.16 261.5,-51.75"/>
</g>
<!-- V4&#45;&gt;M2 -->
<g id="edge19" class="edge">
<title>V4&#45;&gt;M2</title>
<path fill="none" stroke="red" stroke-width="0.21" d="M394.35,-163.99C335.76,-160.21 110.58,-144.23 90.21,-120.85 71.04,-98.84 90.57,-66.26 108.22,-44.65"/>
<polygon fill="red" stroke="red" stroke-width="0.21" points="110.73,-47.1 114.56,-37.22 105.41,-42.55 110.73,-47.1"/>
</g>
<!-- V4&#45;&gt;M3 -->
<g id="edge20" class="edge">
<title>V4&#45;&gt;M3</title>
<path fill="none" stroke="red" stroke-width="0.13" d="M422.12,-160.57C438.67,-154.63 465.53,-142.16 477.21,-120.85 486.28,-104.32 486.14,-95.03 477.21,-78.43 465.48,-56.6 441.14,-41.83 421.5,-32.93"/>
<polygon fill="red" stroke="red" stroke-width="0.13" points="422.88,-29.71 412.31,-29.02 420.15,-36.15 422.88,-29.71"/>
</g>
<!-- V4&#45;&gt;M4 -->
<g id="edge21" class="edge">
<title>V4&#45;&gt;M4</title>
<path fill="none" stroke="red" stroke-width="0.42" d="M422.07,-164.18C465.23,-161.79 595.82,-152.03 621.21,-120.85 633.12,-106.23 628.49,-95.82 621.21,-78.43 614.75,-62.96 601.72,-49.6 589.76,-39.78"/>
<polygon fill="red" stroke="red" stroke-width="0.42" points="592.17,-37.22 582.13,-33.86 587.88,-42.75 592.17,-37.22"/>
</g>
<!-- 589 -->
<g id="node13" class="node">
<title>589</title>
<ellipse fill="white" stroke="black" cx="591.21" cy="-99.64" rx="21.43" ry="21.43"/>
<text text-anchor="middle" x="591.21" y="-97.44" font-family="Times New Roman,serif" font-size="9.00">589</text>
</g>
<!-- V4&#45;&gt;589 -->
<g id="edge26" class="edge">
<title>V4&#45;&gt;589</title>
<path fill="none" stroke="red" stroke-width="0.15" d="M421.81,-162.43C449.16,-157.24 512.37,-143.64 561.21,-120.85 562.74,-120.14 564.27,-119.36 565.8,-118.52"/>
<polygon fill="red" stroke="red" stroke-width="0.15" points="567.57,-121.54 574.31,-113.36 563.94,-115.56 567.57,-121.54"/>
</g>
<!-- 540 -->
<g id="node15" class="node">
<title>540</title>
<ellipse fill="white" stroke="black" cx="321.21" cy="-99.64" rx="21.43" ry="21.43"/>
<text text-anchor="middle" x="321.21" y="-97.44" font-family="Times New Roman,serif" font-size="9.00">540</text>
</g>
<!-- V4&#45;&gt;540 -->
<g id="edge24" class="edge">
<title>V4&#45;&gt;540</title>
<path fill="none" stroke="green" stroke-width="0.65" d="M396.84,-156.46C384.01,-146.99 362.77,-131.31 346.06,-118.98"/>
<polygon fill="green" stroke="green" stroke-width="0.65" points="348.4,-116.36 338.28,-113.24 344.25,-121.99 348.4,-116.36"/>
</g>
<!-- 589&#45;&gt;M4 -->
<g id="edge27" class="edge">
<title>589&#45;&gt;M4</title>
<path fill="none" stroke="green" stroke-width="0.13" d="M584.26,-78.96C581.27,-70.49 577.71,-60.42 574.43,-51.13"/>
<polygon fill="green" stroke="green" stroke-width="0.13" points="577.77,-50.09 571.14,-41.83 571.17,-52.42 577.77,-50.09"/>
</g>
<!-- 468&#45;&gt;M2 -->
<g id="edge23" class="edge">
<title>468&#45;&gt;M2</title>
<path fill="none" stroke="red" stroke-width="0.16" d="M38.57,-86.36C56.2,-73.88 83.71,-54.42 103.8,-40.2"/>
<polygon fill="red" stroke="red" stroke-width="0.16" points="105.76,-43.1 111.9,-34.46 101.72,-37.38 105.76,-43.1"/>
</g>
<!-- 540&#45;&gt;M1 -->
<g id="edge25" class="edge">
<title>540&#45;&gt;M1</title>
<path fill="none" stroke="green" stroke-width="0.34" d="M307.45,-83.17C297.75,-72.27 284.58,-57.47 273.65,-45.18"/>
<polygon fill="green" stroke="green" stroke-width="0.34" points="276.45,-43.06 267.19,-37.92 271.22,-47.72 276.45,-43.06"/>
</g>
</g>
</svg>
